999
dxflib 3.17.0.0
  0
SECTION
  2
HEADER
  9
$ACADVER
  1
AC1015
  9
$HANDSEED
  5
FFFF
  9
$DIMADEC
 70
0
  9
$DIMASZ
 40
1.5
  9
$DIMAUNIT
 70
0
  9
$DIMAZIN
 70
2
  9
$DIMDEC
 70
8
  9
$DIMDSEP
 70
46
  9
$DIMEXE
 40
0.75
  9
$DIMEXO
 40
0.375
  9
$DIMGAP
 40
0.375
  9
$DIMLUNIT
 70
2
  9
$DIMSCALE
 40
1.0
  9
$DIMTSZ
 40
0.0
  9
$DIMTXT
 40
1.5
  9
$DIMZIN
 70
8
  9
$DWGCODEPAGE
  3
ANSI_1252
  9
$INSUNITS
 70
4
  9
$LTSCALE
 40
1.0
  9
$MAXACTVP
 70
64
  9
$MEASUREMENT
 70
1
  9
$PDMODE
 70
0
  9
$PDSIZE
 40
0.0
  0
ENDSEC
  0
SECTION
  2
TABLES
  0
TABLE
  2
VPORT
  5
8
100
AcDbSymbolTable
 70
1
  0
VPORT
  5
30
100
AcDbSymbolTableRecord
100
AcDbViewportTableRecord
  2
*Active
 70
0
 10
0.0
 20
0.0
 11
1.0
 21
1.0
 12
286.3055555555554861
 22
148.5
 13
0.0
 23
0.0
 14
10.0
 24
10.0
 15
10.0
 25
10.0
 16
0.0
 26
0.0
 36
1.0
 17
0.0
 27
0.0
 37
0.0
 40
297.0
 41
1.92798353909465
 42
50.0
 43
0.0
 44
0.0
 50
0.0
 51
0.0
 71
0
 72
100
 73
1
 74
3
 75
1
 76
1
 77
0
 78
0
281
0
 65
1
110
0.0
120
0.0
130
0.0
111
1.0
121
0.0
131
0.0
112
0.0
122
1.0
132
0.0
 79
0
146
0.0
  0
ENDTAB
  0
TABLE
  2
LTYPE
  5
5
100
AcDbSymbolTable
 70
41
  0
LTYPE
  5
16
100
AcDbSymbolTableRecord
100
AcDbLinetypeTableRecord
  2
Continuous
 70
0
  3
Solid line
 72
65
 73
0
 40
0.0
  0
LTYPE
  5
31
100
AcDbSymbolTableRecord
100
AcDbLinetypeTableRecord
  2
ACAD_ISO07W100
 70
0
  3
ISO dot . . . . . . . . . . . . . . . . . . . . 
 72
65
 73
2
 40
3.0
 49
0.1
 74
0
 49
-2.8999999999999999
 74
0
  0
LTYPE
  5
32
100
AcDbSymbolTableRecord
100
AcDbLinetypeTableRecord
  2
DASHEDX2
 70
0
  3
Dashed (2x) ____  ____  ____  ____  ____  ___
 72
65
 73
2
 40
38.0999999999999943
 49
25.3999999999999986
 74
0
 49
-12.6999999999999993
 74
0
  0
LTYPE
  5
33
100
AcDbSymbolTableRecord
100
AcDbLinetypeTableRecord
  2
BORDER2
 70
0
  3
Border (.5x) __.__.__.__.__.__.__.__.__.__.__.
 72
65
 73
6
 40
22.2250000000000014
 49
6.3499999999999996
 74
0
 49
-3.1749999999999998
 74
0
 49
6.3499999999999996
 74
0
 49
-3.125
 74
0
 49
0.1
 74
0
 49
-3.125
 74
0
  0
LTYPE
  5
34
100
AcDbSymbolTableRecord
100
AcDbLinetypeTableRecord
  2
ACAD_ISO14W100
 70
0
  3
ISO dash triple-dot __ . . . __ . . . __ . . . _
 72
65
 73
8
 40
24.0000000000000036
 49
12.0
 74
0
 49
-2.9500000000000002
 74
0
 49
0.1
 74
0
 49
-2.9000000000000004
 74
0
 49
0.1
 74
0
 49
-2.9000000000000004
 74
0
 49
0.1
 74
0
 49
-2.9500000000000002
 74
0
  0
LTYPE
  5
35
100
AcDbSymbolTableRecord
100
AcDbLinetypeTableRecord
  2
CENTERX2
 70
0
  3
Center (2x) ________  __  ________  __  _____
 72
65
 73
4
 40
101.6000000000000085
 49
63.5
 74
0
 49
-12.6999999999999993
 74
0
 49
12.6999999999999993
 74
0
 49
-12.6999999999999993
 74
0
  0
LTYPE
  5
36
100
AcDbSymbolTableRecord
100
AcDbLinetypeTableRecord
  2
DIVIDE2
 70
0
  3
Divide (.5x) __..__..__..__..__..__..__..__.._
 72
65
 73
6
 40
15.8749999999999982
 49
6.3499999999999996
 74
0
 49
-3.125
 74
0
 49
0.1
 74
0
 49
-3.0750000000000002
 74
0
 49
0.1
 74
0
 49
-3.125
 74
0
  0
LTYPE
  5
37
100
AcDbSymbolTableRecord
100
AcDbLinetypeTableRecord
  2
ACAD_ISO06W100
 70
0
  3
ISO long-dash triple-dot ____ ... ____ ... ____
 72
65
 73
8
 40
36.0000000000000071
 49
24.0
 74
0
 49
-2.9500000000000002
 74
0
 49
0.1
 74
0
 49
-2.9000000000000004
 74
0
 49
0.1
 74
0
 49
-2.9000000000000004
 74
0
 49
0.1
 74
0
 49
-2.9500000000000002
 74
0
  0
LTYPE
  5
38
100
AcDbSymbolTableRecord
100
AcDbLinetypeTableRecord
  2
HIDDEN2
 70
0
  3
Hidden (.5x) _ _ _ _ _ _ _ _ _ _ _ _ _ _ _ _ _ 
 72
65
 73
2
 40
4.7624999999999993
 49
3.1749999999999998
 74
0
 49
-1.5874999999999999
 74
0
  0
LTYPE
  5
39
100
AcDbSymbolTableRecord
100
AcDbLinetypeTableRecord
  2
ACAD_ISO13W100
 70
0
  3
ISO double-dash double-dot __ __ . . __ __ . . _
 72
65
 73
8
 40
36.0000000000000071
 49
12.0
 74
0
 49
-3.0
 74
0
 49
12.0
 74
0
 49
-2.9500000000000002
 74
0
 49
0.1
 74
0
 49
-2.9000000000000004
 74
0
 49
0.1
 74
0
 49
-2.9500000000000002
 74
0
  0
LTYPE
  5
3A
100
AcDbSymbolTableRecord
100
AcDbLinetypeTableRecord
  2
ACAD_ISO05W100
 70
0
  3
ISO long-dash double-dot ____ .. ____ .. ____ . 
 72
65
 73
6
 40
33.0000000000000071
 49
24.0
 74
0
 49
-2.9500000000000002
 74
0
 49
0.1
 74
0
 49
-2.9000000000000004
 74
0
 49
0.1
 74
0
 49
-2.9500000000000002
 74
0
  0
LTYPE
  5
3B
100
AcDbSymbolTableRecord
100
AcDbLinetypeTableRecord
  2
DASHDOTX2
 70
0
  3
Dash dot (2x) ____  .  ____  .  ____  .  ___
 72
65
 73
4
 40
50.7999999999999972
 49
25.3999999999999986
 74
0
 49
-12.6499999999999986
 74
0
 49
0.1
 74
0
 49
-12.6499999999999986
 74
0
  0
LTYPE
  5
3C
100
AcDbSymbolTableRecord
100
AcDbLinetypeTableRecord
  2
DOT
 70
0
  3
Dot . . . . . . . . . . . . . . . . . . . . . . . .
 72
65
 73
2
 40
6.3499999999999996
 49
0.1
 74
0
 49
-6.25
 74
0
  0
LTYPE
  5
3D
100
AcDbSymbolTableRecord
100
AcDbLinetypeTableRecord
  2
DOTX2
 70
0
  3
Dot (2x) .  .  .  .  .  .  .  .  .  .  .  .  .  .
 72
65
 73
2
 40
12.6999999999999993
 49
0.1
 74
0
 49
-12.5999999999999996
 74
0
  0
LTYPE
  5
3E
100
AcDbSymbolTableRecord
100
AcDbLinetypeTableRecord
  2
DOT2
 70
0
  3
Dot (.5x) ........................................
 72
65
 73
2
 40
3.1749999999999998
 49
0.1
 74
0
 49
-3.0749999999999997
 74
0
  0
LTYPE
  5
3F
100
AcDbSymbolTableRecord
100
AcDbLinetypeTableRecord
  2
DASHDOT2
 70
0
  3
Dash dot (.5x) _._._._._._._._._._._._._._._.
 72
65
 73
4
 40
12.6999999999999993
 49
6.3499999999999996
 74
0
 49
-3.125
 74
0
 49
0.1
 74
0
 49
-3.125
 74
0
  0
LTYPE
  5
40
100
AcDbSymbolTableRecord
100
AcDbLinetypeTableRecord
  2
ACAD_ISO12W100
 70
0
  3
ISO dash double-dot __ . . __ . . __ . . __ . . 
 72
65
 73
6
 40
21.0
 49
12.0
 74
0
 49
-2.9500000000000002
 74
0
 49
0.1
 74
0
 49
-2.9000000000000004
 74
0
 49
0.1
 74
0
 49
-2.9500000000000002
 74
0
  0
LTYPE
  5
41
100
AcDbSymbolTableRecord
100
AcDbLinetypeTableRecord
  2
ACAD_ISO04W100
 70
0
  3
ISO long-dash dot ____ . ____ . ____ . ____ . _
 72
65
 73
4
 40
30.0
 49
24.0
 74
0
 49
-2.9500000000000002
 74
0
 49
0.1
 74
0
 49
-2.9500000000000002
 74
0
  0
LTYPE
  5
14
100
AcDbSymbolTableRecord
100
AcDbLinetypeTableRecord
  2
BYBLOCK
 70
0
  3

 72
65
 73
0
 40
0.0
  0
LTYPE
  5
42
100
AcDbSymbolTableRecord
100
AcDbLinetypeTableRecord
  2
PHANTOMX2
 70
0
  3
Phantom (2x) ____________    ____    ____   _
 72
65
 73
6
 40
127.0000000000000142
 49
63.5
 74
0
 49
-12.6999999999999993
 74
0
 49
12.6999999999999993
 74
0
 49
-12.6999999999999993
 74
0
 49
12.6999999999999993
 74
0
 49
-12.6999999999999993
 74
0
  0
LTYPE
  5
43
100
AcDbSymbolTableRecord
100
AcDbLinetypeTableRecord
  2
ACAD_ISO11W100
 70
0
  3
ISO double-dash dot __ __ . __ __ . __ __ . __ _
 72
65
 73
6
 40
33.0
 49
12.0
 74
0
 49
-3.0
 74
0
 49
12.0
 74
0
 49
-2.9500000000000002
 74
0
 49
0.1
 74
0
 49
-2.9500000000000002
 74
0
  0
LTYPE
  5
44
100
AcDbSymbolTableRecord
100
AcDbLinetypeTableRecord
  2
ACAD_ISO03W100
 70
0
  3
ISO dash space __    __    __    __    __    __
 72
65
 73
2
 40
30.0
 49
12.0
 74
0
 49
-18.0
 74
0
  0
LTYPE
  5
45
100
AcDbSymbolTableRecord
100
AcDbLinetypeTableRecord
  2
PHANTOM
 70
0
  3
Phantom ______  __  __  ______  __  __  ______ 
 72
65
 73
6
 40
63.5000000000000071
 49
31.75
 74
0
 49
-6.3499999999999996
 74
0
 49
6.3499999999999996
 74
0
 49
-6.3499999999999996
 74
0
 49
6.3499999999999996
 74
0
 49
-6.3499999999999996
 74
0
  0
LTYPE
  5
46
100
AcDbSymbolTableRecord
100
AcDbLinetypeTableRecord
  2
CENTER
 70
0
  3
Center ____ _ ____ _ ____ _ ____ _ ____ _ ____
 72
65
 73
4
 40
50.8000000000000043
 49
31.75
 74
0
 49
-6.3499999999999996
 74
0
 49
6.3499999999999996
 74
0
 49
-6.3499999999999996
 74
0
  0
LTYPE
  5
47
100
AcDbSymbolTableRecord
100
AcDbLinetypeTableRecord
  2
DIVIDE
 70
0
  3
Divide ____ . . ____ . . ____ . . ____ . . ____
 72
65
 73
6
 40
31.7500000000000036
 49
12.6999999999999993
 74
0
 49
-6.2999999999999998
 74
0
 49
0.1
 74
0
 49
-6.25
 74
0
 49
0.1
 74
0
 49
-6.2999999999999998
 74
0
  0
LTYPE
  5
48
100
AcDbSymbolTableRecord
100
AcDbLinetypeTableRecord
  2
DASHED
 70
0
  3
Dashed __ __ __ __ __ __ __ __ __ __ __ __ __ _
 72
65
 73
2
 40
19.0499999999999972
 49
12.6999999999999993
 74
0
 49
-6.3499999999999996
 74
0
  0
LTYPE
  5
49
100
AcDbSymbolTableRecord
100
AcDbLinetypeTableRecord
  2
ACAD_ISO10W100
 70
0
  3
ISO dash dot __ . __ . __ . __ . __ . __ . __ . 
 72
65
 73
4
 40
18.0
 49
12.0
 74
0
 49
-2.9500000000000002
 74
0
 49
0.1
 74
0
 49
-2.9500000000000002
 74
0
  0
LTYPE
  5
4A
100
AcDbSymbolTableRecord
100
AcDbLinetypeTableRecord
  2
ACAD_ISO02W100
 70
0
  3
ISO dash __ __ __ __ __ __ __ __ __ __ __ __ __
 72
65
 73
2
 40
15.0
 49
12.0
 74
0
 49
-3.0
 74
0
  0
LTYPE
  5
4B
100
AcDbSymbolTableRecord
100
AcDbLinetypeTableRecord
  2
DASHED2
 70
0
  3
Dashed (.5x) _ _ _ _ _ _ _ _ _ _ _ _ _ _ _ _ _ 
 72
65
 73
2
 40
9.5249999999999986
 49
6.3499999999999996
 74
0
 49
-3.1749999999999998
 74
0
  0
LTYPE
  5
15
100
AcDbSymbolTableRecord
100
AcDbLinetypeTableRecord
  2
BYLAYER
 70
0
  3

 72
65
 73
0
 40
0.0
  0
LTYPE
  5
4C
100
AcDbSymbolTableRecord
100
AcDbLinetypeTableRecord
  2
DIVIDEX2
 70
0
  3
Divide (2x) ________  .  .  ________  .  .  _
 72
65
 73
6
 40
63.5
 49
25.3999999999999986
 74
0
 49
-12.6499999999999986
 74
0
 49
0.1
 74
0
 49
-12.5999999999999979
 74
0
 49
0.1
 74
0
 49
-12.6499999999999986
 74
0
  0
LTYPE
  5
4D
100
AcDbSymbolTableRecord
100
AcDbLinetypeTableRecord
  2
BORDER
 70
0
  3
Border __ __ . __ __ . __ __ . __ __ . __ __ .
 72
65
 73
6
 40
44.4499999999999957
 49
12.6999999999999993
 74
0
 49
-6.3499999999999996
 74
0
 49
12.6999999999999993
 74
0
 49
-6.2999999999999998
 74
0
 49
0.1
 74
0
 49
-6.2999999999999998
 74
0
  0
LTYPE
  5
4E
100
AcDbSymbolTableRecord
100
AcDbLinetypeTableRecord
  2
CENTER2
 70
0
  3
Center (.5x) ___ _ ___ _ ___ _ ___ _ ___ _ ___
 72
65
 73
4
 40
28.5750000000000028
 49
19.0500000000000007
 74
0
 49
-3.1749999999999998
 74
0
 49
3.1749999999999998
 74
0
 49
-3.1749999999999998
 74
0
  0
LTYPE
  5
4F
100
AcDbSymbolTableRecord
100
AcDbLinetypeTableRecord
  2
BORDERX2
 70
0
  3
Border (2x) ____  ____  .  ____  ____  .  ___
 72
65
 73
6
 40
88.8999999999999773
 49
25.3999999999999986
 74
0
 49
-12.6999999999999993
 74
0
 49
25.3999999999999986
 74
0
 49
-12.6499999999999986
 74
0
 49
0.1
 74
0
 49
-12.6499999999999986
 74
0
  0
LTYPE
  5
50
100
AcDbSymbolTableRecord
100
AcDbLinetypeTableRecord
  2
ACAD_ISO09W100
 70
0
  3
ISO long-dash double-short-dash ____ __ __ ____
 72
65
 73
6
 40
45.0
 49
24.0
 74
0
 49
-3.0
 74
0
 49
6.0
 74
0
 49
-3.0
 74
0
 49
6.0
 74
0
 49
-3.0
 74
0
  0
LTYPE
  5
51
100
AcDbSymbolTableRecord
100
AcDbLinetypeTableRecord
  2
DASHDOT
 70
0
  3
Dash dot __ . __ . __ . __ . __ . __ . __ . __
 72
65
 73
4
 40
25.4000000000000021
 49
12.6999999999999993
 74
0
 49
-6.2999999999999998
 74
0
 49
0.1
 74
0
 49
-6.2999999999999998
 74
0
  0
LTYPE
  5
52
100
AcDbSymbolTableRecord
100
AcDbLinetypeTableRecord
  2
PHANTOM2
 70
0
  3
Phantom (.5x) ___ _ _ ___ _ _ ___ _ _ ___ _ _
 72
65
 73
6
 40
31.7500000000000036
 49
15.875
 74
0
 49
-3.1749999999999998
 74
0
 49
3.1749999999999998
 74
0
 49
-3.1749999999999998
 74
0
 49
3.1749999999999998
 74
0
 49
-3.1749999999999998
 74
0
  0
LTYPE
  5
53
100
AcDbSymbolTableRecord
100
AcDbLinetypeTableRecord
  2
HIDDEN
 70
0
  3
Hidden __ __ __ __ __ __ __ __ __ __ __ __ __ __
 72
65
 73
2
 40
9.5249999999999986
 49
6.3499999999999996
 74
0
 49
-3.1749999999999998
 74
0
  0
LTYPE
  5
54
100
AcDbSymbolTableRecord
100
AcDbLinetypeTableRecord
  2
ACAD_ISO08W100
 70
0
  3
ISO long-dash short-dash ____ __ ____ __ ____ _
 72
65
 73
4
 40
36.0
 49
24.0
 74
0
 49
-3.0
 74
0
 49
6.0
 74
0
 49
-3.0
 74
0
  0
LTYPE
  5
55
100
AcDbSymbolTableRecord
100
AcDbLinetypeTableRecord
  2
HIDDENX2
 70
0
  3
Hidden (2x) ____ ____ ____ ____ ____ ____ ____ 
 72
65
 73
2
 40
19.0499999999999972
 49
12.6999999999999993
 74
0
 49
-6.3499999999999996
 74
0
  0
LTYPE
  5
56
100
AcDbSymbolTableRecord
100
AcDbLinetypeTableRecord
  2
ACAD_ISO15W100
 70
0
  3
ISO double-dash triple-dot __ __ . . . __ __ . .
 72
65
 73
10
 40
39.0000000000000071
 49
12.0
 74
0
 49
-3.0
 74
0
 49
12.0
 74
0
 49
-2.9500000000000002
 74
0
 49
0.1
 74
0
 49
-2.9000000000000004
 74
0
 49
0.1
 74
0
 49
-2.9000000000000004
 74
0
 49
0.1
 74
0
 49
-2.9500000000000002
 74
0
  0
ENDTAB
  0
TABLE
  2
LAYER
  5
2
100
AcDbSymbolTable
 70
14
  0
LAYER
  5
57
100
AcDbSymbolTableRecord
100
AcDbLayerTableRecord
  2
Plate_Left
 70
1
 62
7
420
0
  6
Continuous
370
0
390
F
  0
LAYER
  5
58
100
AcDbSymbolTableRecord
100
AcDbLayerTableRecord
  2
Plate_Right
 70
1
 62
7
420
0
  6
Continuous
370
25
390
F
  0
LAYER
  5
59
100
AcDbSymbolTableRecord
100
AcDbLayerTableRecord
  2
Layout_Left
 70
1
 62
7
420
0
  6
Continuous
370
25
390
F
  0
LAYER
  5
5A
100
AcDbSymbolTableRecord
100
AcDbLayerTableRecord
  2
Support
 70
1
 62
7
420
0
  6
Continuous
370
25
390
F
  0
LAYER
  5
5B
100
AcDbSymbolTableRecord
100
AcDbLayerTableRecord
  2
Board
 70
1
 62
7
420
0
  6
Continuous
370
25
390
F
  0
LAYER
  5
5C
100
AcDbSymbolTableRecord
100
AcDbLayerTableRecord
  2
SheetBoundary
 70
0
 62
3
420
65280
  6
Continuous
370
25
390
F
  0
LAYER
  5
5D
100
AcDbSymbolTableRecord
100
AcDbLayerTableRecord
  2
Layout_Right
 70
1
 62
7
420
0
  6
Continuous
370
25
390
F
  0
LAYER
  5
5E
100
AcDbSymbolTableRecord
100
AcDbLayerTableRecord
  2
Base_Right
 70
1
 62
7
420
0
  6
Continuous
370
25
390
F
  0
LAYER
  5
5F
100
AcDbSymbolTableRecord
100
AcDbLayerTableRecord
  2
TopCover
 70
0
 62
7
420
0
  6
Continuous
370
25
390
F
  0
LAYER
  5
60
100
AcDbSymbolTableRecord
100
AcDbLayerTableRecord
  2
Base_Left
 70
1
 62
7
420
0
  6
Continuous
370
25
390
F
  0
LAYER
  5
61
100
AcDbSymbolTableRecord
100
AcDbLayerTableRecord
  2
Outline
 70
0
 62
7
420
0
  6
Continuous
370
25
390
F
  0
LAYER
  5
62
100
AcDbSymbolTableRecord
100
AcDbLayerTableRecord
  2
Well_Left
 70
1
 62
7
420
0
  6
Continuous
370
0
390
F
  0
LAYER
  5
63
100
AcDbSymbolTableRecord
100
AcDbLayerTableRecord
  2
Well_Right
 70
1
 62
7
420
0
  6
Continuous
370
25
390
F
  0
LAYER
  5
10
100
AcDbSymbolTableRecord
100
AcDbLayerTableRecord
  2
0
 70
0
 62
7
420
16777215
  6
Continuous
370
0
390
F
  0
ENDTAB
  0
TABLE
  2
STYLE
  5
3
100
AcDbSymbolTable
 70
86
  0
STYLE
  5
64
100
AcDbSymbolTableRecord
100
AcDbTextStyleTableRecord
  2
Standard
 70
0
 40
0.0
 41
1.0
 50
0.0
 71
0
 42
2.5
  3

  4

1001
ACAD
1000
txt
1071
0
  0
STYLE
  5
65
100
AcDbSymbolTableRecord
100
AcDbTextStyleTableRecord
  2
textstyle0
 70
0
 40
0.0
 41
1.0
 50
0.0
 71
0
 42
4.0
  3

  4

1001
ACAD
1000
Arial
1071
0
  0
STYLE
  5
66
100
AcDbSymbolTableRecord
100
AcDbTextStyleTableRecord
  2
textstyle1
 70
0
 40
0.0
 41
1.0
 50
0.0
 71
0
 42
4.0
  3

  4

1001
ACAD
1000
Arial
1071
0
  0
STYLE
  5
67
100
AcDbSymbolTableRecord
100
AcDbTextStyleTableRecord
  2
textstyle2
 70
0
 40
0.0
 41
1.0
 50
0.0
 71
0
 42
4.0
  3

  4

1001
ACAD
1000
Arial
1071
0
  0
STYLE
  5
68
100
AcDbSymbolTableRecord
100
AcDbTextStyleTableRecord
  2
textstyle3
 70
0
 40
0.0
 41
1.0
 50
0.0
 71
0
 42
4.0
  3

  4

1001
ACAD
1000
Arial
1071
0
  0
STYLE
  5
69
100
AcDbSymbolTableRecord
100
AcDbTextStyleTableRecord
  2
textstyle4
 70
0
 40
0.0
 41
1.0
 50
0.0
 71
0
 42
4.0
  3

  4

1001
ACAD
1000
Arial
1071
0
  0
STYLE
  5
6A
100
AcDbSymbolTableRecord
100
AcDbTextStyleTableRecord
  2
textstyle5
 70
0
 40
0.0
 41
1.0
 50
0.0
 71
0
 42
4.0
  3

  4

1001
ACAD
1000
Arial
1071
0
  0
STYLE
  5
6B
100
AcDbSymbolTableRecord
100
AcDbTextStyleTableRecord
  2
textstyle6
 70
0
 40
0.0
 41
1.0
 50
0.0
 71
0
 42
4.0
  3

  4

1001
ACAD
1000
Arial
1071
0
  0
STYLE
  5
6C
100
AcDbSymbolTableRecord
100
AcDbTextStyleTableRecord
  2
textstyle7
 70
0
 40
0.0
 41
1.0
 50
0.0
 71
0
 42
4.0
  3

  4

1001
ACAD
1000
Arial
1071
0
  0
STYLE
  5
6D
100
AcDbSymbolTableRecord
100
AcDbTextStyleTableRecord
  2
textstyle8
 70
0
 40
0.0
 41
1.0
 50
0.0
 71
0
 42
4.0
  3

  4

1001
ACAD
1000
Arial
1071
0
  0
STYLE
  5
6E
100
AcDbSymbolTableRecord
100
AcDbTextStyleTableRecord
  2
textstyle9
 70
0
 40
0.0
 41
1.0
 50
0.0
 71
0
 42
4.0
  3

  4

1001
ACAD
1000
Arial
1071
0
  0
STYLE
  5
6F
100
AcDbSymbolTableRecord
100
AcDbTextStyleTableRecord
  2
textstyle10
 70
0
 40
0.0
 41
1.0
 50
0.0
 71
0
 42
4.0
  3

  4

1001
ACAD
1000
Arial
1071
0
  0
STYLE
  5
70
100
AcDbSymbolTableRecord
100
AcDbTextStyleTableRecord
  2
textstyle11
 70
0
 40
0.0
 41
1.0
 50
0.0
 71
0
 42
4.0
  3

  4

1001
ACAD
1000
Arial
1071
0
  0
STYLE
  5
71
100
AcDbSymbolTableRecord
100
AcDbTextStyleTableRecord
  2
textstyle12
 70
0
 40
0.0
 41
1.0
 50
0.0
 71
0
 42
4.0
  3

  4

1001
ACAD
1000
Arial
1071
0
  0
STYLE
  5
72
100
AcDbSymbolTableRecord
100
AcDbTextStyleTableRecord
  2
textstyle13
 70
0
 40
0.0
 41
1.0
 50
0.0
 71
0
 42
4.0
  3

  4

1001
ACAD
1000
Arial
1071
0
  0
STYLE
  5
73
100
AcDbSymbolTableRecord
100
AcDbTextStyleTableRecord
  2
textstyle14
 70
0
 40
0.0
 41
1.0
 50
0.0
 71
0
 42
4.0
  3

  4

1001
ACAD
1000
Arial
1071
0
  0
STYLE
  5
74
100
AcDbSymbolTableRecord
100
AcDbTextStyleTableRecord
  2
textstyle15
 70
0
 40
0.0
 41
1.0
 50
0.0
 71
0
 42
4.0
  3

  4

1001
ACAD
1000
Arial
1071
0
  0
STYLE
  5
75
100
AcDbSymbolTableRecord
100
AcDbTextStyleTableRecord
  2
textstyle16
 70
0
 40
0.0
 41
1.0
 50
0.0
 71
0
 42
4.0
  3

  4

1001
ACAD
1000
Arial
1071
0
  0
STYLE
  5
76
100
AcDbSymbolTableRecord
100
AcDbTextStyleTableRecord
  2
textstyle17
 70
0
 40
0.0
 41
1.0
 50
0.0
 71
0
 42
4.0
  3

  4

1001
ACAD
1000
Arial
1071
0
  0
STYLE
  5
77
100
AcDbSymbolTableRecord
100
AcDbTextStyleTableRecord
  2
textstyle18
 70
0
 40
0.0
 41
1.0
 50
0.0
 71
0
 42
4.0
  3

  4

1001
ACAD
1000
Arial
1071
0
  0
STYLE
  5
78
100
AcDbSymbolTableRecord
100
AcDbTextStyleTableRecord
  2
textstyle19
 70
0
 40
0.0
 41
1.0
 50
0.0
 71
0
 42
4.0
  3

  4

1001
ACAD
1000
Arial
1071
0
  0
STYLE
  5
79
100
AcDbSymbolTableRecord
100
AcDbTextStyleTableRecord
  2
textstyle20
 70
0
 40
0.0
 41
1.0
 50
0.0
 71
0
 42
4.0
  3

  4

1001
ACAD
1000
Arial
1071
0
  0
STYLE
  5
7A
100
AcDbSymbolTableRecord
100
AcDbTextStyleTableRecord
  2
textstyle21
 70
0
 40
0.0
 41
1.0
 50
0.0
 71
0
 42
4.0
  3

  4

1001
ACAD
1000
Arial
1071
0
  0
STYLE
  5
7B
100
AcDbSymbolTableRecord
100
AcDbTextStyleTableRecord
  2
textstyle22
 70
0
 40
0.0
 41
1.0
 50
0.0
 71
0
 42
4.0
  3

  4

1001
ACAD
1000
Arial
1071
0
  0
STYLE
  5
7C
100
AcDbSymbolTableRecord
100
AcDbTextStyleTableRecord
  2
textstyle23
 70
0
 40
0.0
 41
1.0
 50
0.0
 71
0
 42
4.0
  3

  4

1001
ACAD
1000
Arial
1071
0
  0
STYLE
  5
7D
100
AcDbSymbolTableRecord
100
AcDbTextStyleTableRecord
  2
textstyle24
 70
0
 40
0.0
 41
1.0
 50
0.0
 71
0
 42
4.0
  3

  4

1001
ACAD
1000
Arial
1071
0
  0
STYLE
  5
7E
100
AcDbSymbolTableRecord
100
AcDbTextStyleTableRecord
  2
textstyle25
 70
0
 40
0.0
 41
1.0
 50
0.0
 71
0
 42
4.0
  3

  4

1001
ACAD
1000
Arial
1071
0
  0
STYLE
  5
7F
100
AcDbSymbolTableRecord
100
AcDbTextStyleTableRecord
  2
textstyle26
 70
0
 40
0.0
 41
1.0
 50
0.0
 71
0
 42
4.0
  3

  4

1001
ACAD
1000
Arial
1071
0
  0
STYLE
  5
80
100
AcDbSymbolTableRecord
100
AcDbTextStyleTableRecord
  2
textstyle27
 70
0
 40
0.0
 41
1.0
 50
0.0
 71
0
 42
4.0
  3

  4

1001
ACAD
1000
Arial
1071
0
  0
STYLE
  5
81
100
AcDbSymbolTableRecord
100
AcDbTextStyleTableRecord
  2
textstyle28
 70
0
 40
0.0
 41
1.0
 50
0.0
 71
0
 42
4.0
  3

  4

1001
ACAD
1000
Arial
1071
0
  0
STYLE
  5
82
100
AcDbSymbolTableRecord
100
AcDbTextStyleTableRecord
  2
textstyle29
 70
0
 40
0.0
 41
1.0
 50
0.0
 71
0
 42
4.0
  3

  4

1001
ACAD
1000
Arial
1071
0
  0
STYLE
  5
83
100
AcDbSymbolTableRecord
100
AcDbTextStyleTableRecord
  2
textstyle30
 70
0
 40
0.0
 41
1.0
 50
0.0
 71
0
 42
4.0
  3

  4

1001
ACAD
1000
Arial
1071
0
  0
STYLE
  5
84
100
AcDbSymbolTableRecord
100
AcDbTextStyleTableRecord
  2
textstyle31
 70
0
 40
0.0
 41
1.0
 50
0.0
 71
0
 42
4.0
  3

  4

1001
ACAD
1000
Arial
1071
0
  0
STYLE
  5
85
100
AcDbSymbolTableRecord
100
AcDbTextStyleTableRecord
  2
textstyle32
 70
0
 40
0.0
 41
1.0
 50
0.0
 71
0
 42
4.0
  3

  4

1001
ACAD
1000
Arial
1071
0
  0
STYLE
  5
86
100
AcDbSymbolTableRecord
100
AcDbTextStyleTableRecord
  2
textstyle33
 70
0
 40
0.0
 41
1.0
 50
0.0
 71
0
 42
4.0
  3

  4

1001
ACAD
1000
Arial
1071
0
  0
STYLE
  5
87
100
AcDbSymbolTableRecord
100
AcDbTextStyleTableRecord
  2
textstyle34
 70
0
 40
0.0
 41
1.0
 50
0.0
 71
0
 42
4.0
  3

  4

1001
ACAD
1000
Arial
1071
0
  0
STYLE
  5
88
100
AcDbSymbolTableRecord
100
AcDbTextStyleTableRecord
  2
textstyle35
 70
0
 40
0.0
 41
1.0
 50
0.0
 71
0
 42
4.0
  3

  4

1001
ACAD
1000
Arial
1071
0
  0
STYLE
  5
89
100
AcDbSymbolTableRecord
100
AcDbTextStyleTableRecord
  2
textstyle36
 70
0
 40
0.0
 41
1.0
 50
0.0
 71
0
 42
4.0
  3

  4

1001
ACAD
1000
Arial
1071
0
  0
STYLE
  5
8A
100
AcDbSymbolTableRecord
100
AcDbTextStyleTableRecord
  2
textstyle37
 70
0
 40
0.0
 41
1.0
 50
0.0
 71
0
 42
4.0
  3

  4

1001
ACAD
1000
Arial
1071
0
  0
STYLE
  5
8B
100
AcDbSymbolTableRecord
100
AcDbTextStyleTableRecord
  2
textstyle38
 70
0
 40
0.0
 41
1.0
 50
0.0
 71
0
 42
4.0
  3

  4

1001
ACAD
1000
Arial
1071
0
  0
STYLE
  5
8C
100
AcDbSymbolTableRecord
100
AcDbTextStyleTableRecord
  2
textstyle39
 70
0
 40
0.0
 41
1.0
 50
0.0
 71
0
 42
4.0
  3

  4

1001
ACAD
1000
Arial
1071
0
  0
STYLE
  5
8D
100
AcDbSymbolTableRecord
100
AcDbTextStyleTableRecord
  2
textstyle40
 70
0
 40
0.0
 41
1.0
 50
0.0
 71
0
 42
4.0
  3

  4

1001
ACAD
1000
Arial
1071
0
  0
STYLE
  5
8E
100
AcDbSymbolTableRecord
100
AcDbTextStyleTableRecord
  2
textstyle41
 70
0
 40
0.0
 41
1.0
 50
0.0
 71
0
 42
4.0
  3

  4

1001
ACAD
1000
Arial
1071
0
  0
STYLE
  5
8F
100
AcDbSymbolTableRecord
100
AcDbTextStyleTableRecord
  2
textstyle42
 70
0
 40
0.0
 41
1.0
 50
0.0
 71
0
 42
4.0
  3

  4

1001
ACAD
1000
Arial
1071
0
  0
STYLE
  5
90
100
AcDbSymbolTableRecord
100
AcDbTextStyleTableRecord
  2
textstyle43
 70
0
 40
0.0
 41
1.0
 50
0.0
 71
0
 42
4.0
  3

  4

1001
ACAD
1000
Arial
1071
0
  0
STYLE
  5
91
100
AcDbSymbolTableRecord
100
AcDbTextStyleTableRecord
  2
textstyle44
 70
0
 40
0.0
 41
1.0
 50
0.0
 71
0
 42
4.0
  3

  4

1001
ACAD
1000
Arial
1071
0
  0
STYLE
  5
92
100
AcDbSymbolTableRecord
100
AcDbTextStyleTableRecord
  2
textstyle45
 70
0
 40
0.0
 41
1.0
 50
0.0
 71
0
 42
4.0
  3

  4

1001
ACAD
1000
Arial
1071
0
  0
STYLE
  5
93
100
AcDbSymbolTableRecord
100
AcDbTextStyleTableRecord
  2
textstyle46
 70
0
 40
0.0
 41
1.0
 50
0.0
 71
0
 42
4.0
  3

  4

1001
ACAD
1000
Arial
1071
0
  0
STYLE
  5
94
100
AcDbSymbolTableRecord
100
AcDbTextStyleTableRecord
  2
textstyle47
 70
0
 40
0.0
 41
1.0
 50
0.0
 71
0
 42
4.0
  3

  4

1001
ACAD
1000
Arial
1071
0
  0
STYLE
  5
95
100
AcDbSymbolTableRecord
100
AcDbTextStyleTableRecord
  2
textstyle48
 70
0
 40
0.0
 41
1.0
 50
0.0
 71
0
 42
4.0
  3

  4

1001
ACAD
1000
Arial
1071
0
  0
STYLE
  5
96
100
AcDbSymbolTableRecord
100
AcDbTextStyleTableRecord
  2
textstyle49
 70
0
 40
0.0
 41
1.0
 50
0.0
 71
0
 42
4.0
  3

  4

1001
ACAD
1000
Arial
1071
0
  0
STYLE
  5
97
100
AcDbSymbolTableRecord
100
AcDbTextStyleTableRecord
  2
textstyle50
 70
0
 40
0.0
 41
1.0
 50
0.0
 71
0
 42
4.0
  3

  4

1001
ACAD
1000
Arial
1071
0
  0
STYLE
  5
98
100
AcDbSymbolTableRecord
100
AcDbTextStyleTableRecord
  2
textstyle51
 70
0
 40
0.0
 41
1.0
 50
0.0
 71
0
 42
4.0
  3

  4

1001
ACAD
1000
Arial
1071
0
  0
STYLE
  5
99
100
AcDbSymbolTableRecord
100
AcDbTextStyleTableRecord
  2
textstyle52
 70
0
 40
0.0
 41
1.0
 50
0.0
 71
0
 42
4.0
  3

  4

1001
ACAD
1000
Arial
1071
0
  0
STYLE
  5
9A
100
AcDbSymbolTableRecord
100
AcDbTextStyleTableRecord
  2
textstyle53
 70
0
 40
0.0
 41
1.0
 50
0.0
 71
0
 42
4.0
  3

  4

1001
ACAD
1000
Arial
1071
0
  0
STYLE
  5
9B
100
AcDbSymbolTableRecord
100
AcDbTextStyleTableRecord
  2
textstyle54
 70
0
 40
0.0
 41
1.0
 50
0.0
 71
0
 42
4.0
  3

  4

1001
ACAD
1000
Arial
1071
0
  0
STYLE
  5
9C
100
AcDbSymbolTableRecord
100
AcDbTextStyleTableRecord
  2
textstyle55
 70
0
 40
0.0
 41
1.0
 50
0.0
 71
0
 42
4.0
  3

  4

1001
ACAD
1000
Arial
1071
0
  0
STYLE
  5
9D
100
AcDbSymbolTableRecord
100
AcDbTextStyleTableRecord
  2
textstyle56
 70
0
 40
0.0
 41
1.0
 50
0.0
 71
0
 42
4.0
  3

  4

1001
ACAD
1000
Arial
1071
0
  0
STYLE
  5
9E
100
AcDbSymbolTableRecord
100
AcDbTextStyleTableRecord
  2
textstyle57
 70
0
 40
0.0
 41
1.0
 50
0.0
 71
0
 42
4.0
  3

  4

1001
ACAD
1000
Arial
1071
0
  0
STYLE
  5
9F
100
AcDbSymbolTableRecord
100
AcDbTextStyleTableRecord
  2
textstyle58
 70
0
 40
0.0
 41
1.0
 50
0.0
 71
0
 42
4.0
  3

  4

1001
ACAD
1000
Arial
1071
0
  0
STYLE
  5
A0
100
AcDbSymbolTableRecord
100
AcDbTextStyleTableRecord
  2
textstyle59
 70
0
 40
0.0
 41
1.0
 50
0.0
 71
0
 42
4.0
  3

  4

1001
ACAD
1000
Arial
1071
0
  0
STYLE
  5
A1
100
AcDbSymbolTableRecord
100
AcDbTextStyleTableRecord
  2
textstyle60
 70
0
 40
0.0
 41
1.0
 50
0.0
 71
0
 42
4.0
  3

  4

1001
ACAD
1000
Arial
1071
0
  0
STYLE
  5
A2
100
AcDbSymbolTableRecord
100
AcDbTextStyleTableRecord
  2
textstyle61
 70
0
 40
0.0
 41
1.0
 50
0.0
 71
0
 42
4.0
  3

  4

1001
ACAD
1000
Arial
1071
0
  0
STYLE
  5
A3
100
AcDbSymbolTableRecord
100
AcDbTextStyleTableRecord
  2
textstyle62
 70
0
 40
0.0
 41
1.0
 50
0.0
 71
0
 42
1.0
  3

  4

1001
ACAD
1000
Arial
1071
0
  0
STYLE
  5
A4
100
AcDbSymbolTableRecord
100
AcDbTextStyleTableRecord
  2
textstyle63
 70
0
 40
0.0
 41
1.0
 50
0.0
 71
0
 42
1.0
  3

  4

1001
ACAD
1000
Arial
1071
0
  0
STYLE
  5
A5
100
AcDbSymbolTableRecord
100
AcDbTextStyleTableRecord
  2
textstyle64
 70
0
 40
0.0
 41
1.0
 50
0.0
 71
0
 42
4.0
  3

  4

1001
ACAD
1000
Arial
1071
0
  0
STYLE
  5
A6
100
AcDbSymbolTableRecord
100
AcDbTextStyleTableRecord
  2
textstyle65
 70
0
 40
0.0
 41
1.0
 50
0.0
 71
0
 42
1.0
  3

  4

1001
ACAD
1000
Arial
1071
0
  0
STYLE
  5
A7
100
AcDbSymbolTableRecord
100
AcDbTextStyleTableRecord
  2
textstyle66
 70
0
 40
0.0
 41
1.0
 50
0.0
 71
0
 42
4.0
  3

  4

1001
ACAD
1000
Arial
1071
0
  0
STYLE
  5
A8
100
AcDbSymbolTableRecord
100
AcDbTextStyleTableRecord
  2
textstyle67
 70
0
 40
0.0
 41
1.0
 50
0.0
 71
0
 42
1.0
  3

  4

1001
ACAD
1000
Arial
1071
0
  0
STYLE
  5
A9
100
AcDbSymbolTableRecord
100
AcDbTextStyleTableRecord
  2
textstyle68
 70
0
 40
0.0
 41
1.0
 50
0.0
 71
0
 42
4.0
  3

  4

1001
ACAD
1000
Arial
1071
0
  0
STYLE
  5
AA
100
AcDbSymbolTableRecord
100
AcDbTextStyleTableRecord
  2
textstyle69
 70
0
 40
0.0
 41
1.0
 50
0.0
 71
0
 42
4.0
  3

  4

1001
ACAD
1000
Arial
1071
0
  0
STYLE
  5
AB
100
AcDbSymbolTableRecord
100
AcDbTextStyleTableRecord
  2
textstyle70
 70
0
 40
0.0
 41
1.0
 50
0.0
 71
0
 42
4.0
  3

  4

1001
ACAD
1000
Arial
1071
0
  0
STYLE
  5
AC
100
AcDbSymbolTableRecord
100
AcDbTextStyleTableRecord
  2
textstyle71
 70
0
 40
0.0
 41
1.0
 50
0.0
 71
0
 42
4.0
  3

  4

1001
ACAD
1000
Arial
1071
0
  0
STYLE
  5
AD
100
AcDbSymbolTableRecord
100
AcDbTextStyleTableRecord
  2
textstyle72
 70
0
 40
0.0
 41
1.0
 50
0.0
 71
0
 42
4.0
  3

  4

1001
ACAD
1000
Arial
1071
0
  0
STYLE
  5
AE
100
AcDbSymbolTableRecord
100
AcDbTextStyleTableRecord
  2
textstyle73
 70
0
 40
0.0
 41
1.0
 50
0.0
 71
0
 42
4.0
  3

  4

1001
ACAD
1000
Arial
1071
0
  0
STYLE
  5
AF
100
AcDbSymbolTableRecord
100
AcDbTextStyleTableRecord
  2
textstyle74
 70
0
 40
0.0
 41
1.0
 50
0.0
 71
0
 42
4.0
  3

  4

1001
ACAD
1000
Arial
1071
0
  0
STYLE
  5
B0
100
AcDbSymbolTableRecord
100
AcDbTextStyleTableRecord
  2
textstyle75
 70
0
 40
0.0
 41
1.0
 50
0.0
 71
0
 42
4.0
  3

  4

1001
ACAD
1000
Arial
1071
0
  0
STYLE
  5
B1
100
AcDbSymbolTableRecord
100
AcDbTextStyleTableRecord
  2
textstyle76
 70
0
 40
0.0
 41
1.0
 50
0.0
 71
0
 42
1.0
  3

  4

1001
ACAD
1000
Arial
1071
0
  0
STYLE
  5
B2
100
AcDbSymbolTableRecord
100
AcDbTextStyleTableRecord
  2
textstyle77
 70
0
 40
0.0
 41
1.0
 50
0.0
 71
0
 42
1.0
  3

  4

1001
ACAD
1000
Arial
1071
0
  0
STYLE
  5
B3
100
AcDbSymbolTableRecord
100
AcDbTextStyleTableRecord
  2
textstyle78
 70
0
 40
0.0
 41
1.0
 50
0.0
 71
0
 42
4.0
  3

  4

1001
ACAD
1000
Arial
1071
0
  0
STYLE
  5
B4
100
AcDbSymbolTableRecord
100
AcDbTextStyleTableRecord
  2
textstyle79
 70
0
 40
0.0
 41
1.0
 50
0.0
 71
0
 42
4.0
  3

  4

1001
ACAD
1000
Arial
1071
0
  0
STYLE
  5
B5
100
AcDbSymbolTableRecord
100
AcDbTextStyleTableRecord
  2
textstyle80
 70
0
 40
0.0
 41
1.0
 50
0.0
 71
0
 42
1.0
  3

  4

1001
ACAD
1000
Arial
1071
0
  0
STYLE
  5
B6
100
AcDbSymbolTableRecord
100
AcDbTextStyleTableRecord
  2
textstyle81
 70
0
 40
0.0
 41
1.0
 50
0.0
 71
0
 42
1.0
  3

  4

1001
ACAD
1000
Arial
1071
0
  0
STYLE
  5
B7
100
AcDbSymbolTableRecord
100
AcDbTextStyleTableRecord
  2
textstyle82
 70
0
 40
0.0
 41
1.0
 50
0.0
 71
0
 42
4.0
  3

  4

1001
ACAD
1000
Arial
1071
0
  0
STYLE
  5
B8
100
AcDbSymbolTableRecord
100
AcDbTextStyleTableRecord
  2
textstyle83
 70
0
 40
0.0
 41
1.0
 50
0.0
 71
0
 42
4.0
  3

  4

1001
ACAD
1000
Arial
1071
0
  0
STYLE
  5
B9
100
AcDbSymbolTableRecord
100
AcDbTextStyleTableRecord
  2
textstyle84
 70
0
 40
0.0
 41
1.0
 50
0.0
 71
0
 42
4.0
  3

  4

1001
ACAD
1000
Arial
1071
0
  0
ENDTAB
  0
TABLE
  2
VIEW
  5
6
100
AcDbSymbolTable
 70
0
  0
ENDTAB
  0
TABLE
  2
UCS
  5
7
100
AcDbSymbolTable
 70
0
  0
ENDTAB
  0
TABLE
  2
APPID
  5
9
100
AcDbSymbolTable
 70
1
  0
APPID
  5
12
100
AcDbSymbolTableRecord
100
AcDbRegAppTableRecord
  2
ACAD
 70
0
  0
APPID
  5
BA
100
AcDbSymbolTableRecord
100
AcDbRegAppTableRecord
  2
QCAD
 70
0
  0
ENDTAB
  0
TABLE
  2
DIMSTYLE
  5
A
100
AcDbSymbolTable
 70
1
100
AcDbDimStyleTable
 71
0
  0
DIMSTYLE
105
27
100
AcDbSymbolTableRecord
100
AcDbDimStyleTableRecord
  2
Standard
 41
1.5
 42
0.375
 43
3.75
 44
0.75
 70
0
 73
0
 74
0
 77
1
 78
8
140
1.5
141
2.5
143
0.03937007874016
147
0.375
171
3
172
1
271
2
272
2
274
3
278
44
283
0
284
8
340
64
  0
ENDTAB
  0
TABLE
  2
BLOCK_RECORD
  5
1
100
AcDbSymbolTable
 70
1
  0
BLOCK_RECORD
  5
1F
100
AcDbSymbolTableRecord
100
AcDbBlockTableRecord
  2
*Model_Space
340
22
  0
BLOCK_RECORD
  5
1B
100
AcDbSymbolTableRecord
100
AcDbBlockTableRecord
  2
*Paper_Space
340
1E
  0
BLOCK_RECORD
  5
23
100
AcDbSymbolTableRecord
100
AcDbBlockTableRecord
  2
*Paper_Space0
340
26
  0
BLOCK_RECORD
  5
BB
100
AcDbSymbolTableRecord
100
AcDbBlockTableRecord
  2
Key_1.0u_Plate
340
0
  0
BLOCK_RECORD
  5
BC
100
AcDbSymbolTableRecord
100
AcDbBlockTableRecord
  2
ZZZ-Key_1.0u_Base
340
0
  0
BLOCK_RECORD
  5
BD
100
AcDbSymbolTableRecord
100
AcDbBlockTableRecord
  2
Key_Enter_Base
340
0
  0
BLOCK_RECORD
  5
BE
100
AcDbSymbolTableRecord
100
AcDbBlockTableRecord
  2
Key_1.0u_Base
340
0
  0
BLOCK_RECORD
  5
BF
100
AcDbSymbolTableRecord
100
AcDbBlockTableRecord
  2
Z-Switch-Plate
340
0
  0
BLOCK_RECORD
  5
C0
100
AcDbSymbolTableRecord
100
AcDbBlockTableRecord
  2
Key_2.0u_Layout
340
0
  0
BLOCK_RECORD
  5
C1
100
AcDbSymbolTableRecord
100
AcDbBlockTableRecord
  2
Key_1.25u_Plate
340
0
  0
BLOCK_RECORD
  5
C2
100
AcDbSymbolTableRecord
100
AcDbBlockTableRecord
  2
Key_Support_D
340
0
  0
BLOCK_RECORD
  5
C3
100
AcDbSymbolTableRecord
100
AcDbBlockTableRecord
  2
Key_Support
340
0
  0
BLOCK_RECORD
  5
C4
100
AcDbSymbolTableRecord
100
AcDbBlockTableRecord
  2
Key_1.0u_Layout
340
0
  0
BLOCK_RECORD
  5
C5
100
AcDbSymbolTableRecord
100
AcDbBlockTableRecord
  2
Key_Enter_Layout
340
0
  0
BLOCK_RECORD
  5
C6
100
AcDbSymbolTableRecord
100
AcDbBlockTableRecord
  2
Key_1.5u_Layout
340
0
  0
BLOCK_RECORD
  5
C7
100
AcDbSymbolTableRecord
100
AcDbBlockTableRecord
  2
Key_1.5u_Well
340
0
  0
BLOCK_RECORD
  5
C8
100
AcDbSymbolTableRecord
100
AcDbBlockTableRecord
  2
Key_1.25u_Well
340
0
  0
BLOCK_RECORD
  5
C9
100
AcDbSymbolTableRecord
100
AcDbBlockTableRecord
  2
ZZZ-StabilizerPlate
340
0
  0
BLOCK_RECORD
  5
CA
100
AcDbSymbolTableRecord
100
AcDbBlockTableRecord
  2
Key_Support_R
340
0
  0
BLOCK_RECORD
  5
CB
100
AcDbSymbolTableRecord
100
AcDbBlockTableRecord
  2
Key_Enter_Plate
340
0
  0
BLOCK_RECORD
  5
CC
100
AcDbSymbolTableRecord
100
AcDbBlockTableRecord
  2
Key_1.25u_Layout
340
0
  0
BLOCK_RECORD
  5
CD
100
AcDbSymbolTableRecord
100
AcDbBlockTableRecord
  2
Z-Switch-Well
340
0
  0
BLOCK_RECORD
  5
CE
100
AcDbSymbolTableRecord
100
AcDbBlockTableRecord
  2
Key_2.0u_Well
340
0
  0
BLOCK_RECORD
  5
CF
100
AcDbSymbolTableRecord
100
AcDbBlockTableRecord
  2
Z-Key-2u+-Well
340
0
  0
BLOCK_RECORD
  5
D0
100
AcDbSymbolTableRecord
100
AcDbBlockTableRecord
  2
Key_1.5u_Base
340
0
  0
BLOCK_RECORD
  5
D1
100
AcDbSymbolTableRecord
100
AcDbBlockTableRecord
  2
Key_1.25u_Base
340
0
  0
BLOCK_RECORD
  5
D2
100
AcDbSymbolTableRecord
100
AcDbBlockTableRecord
  2
Key_Support_DR
340
0
  0
BLOCK_RECORD
  5
D3
100
AcDbSymbolTableRecord
100
AcDbBlockTableRecord
  2
Z-Key-2u+-Plate
340
0
  0
BLOCK_RECORD
  5
D4
100
AcDbSymbolTableRecord
100
AcDbBlockTableRecord
  2
ZZZ-Key_1.0u_Plate
340
0
  0
BLOCK_RECORD
  5
D5
100
AcDbSymbolTableRecord
100
AcDbBlockTableRecord
  2
Key_2.0u_Plate
340
0
  0
BLOCK_RECORD
  5
D6
100
AcDbSymbolTableRecord
100
AcDbBlockTableRecord
  2
Z-Stabilizer-Well
340
0
  0
BLOCK_RECORD
  5
D7
100
AcDbSymbolTableRecord
100
AcDbBlockTableRecord
  2
Z-Stabilizer-Plate
340
0
  0
BLOCK_RECORD
  5
D8
100
AcDbSymbolTableRecord
100
AcDbBlockTableRecord
  2
ZZZ-Key_1.0u_Well
340
0
  0
BLOCK_RECORD
  5
D9
100
AcDbSymbolTableRecord
100
AcDbBlockTableRecord
  2
Z-Switch-Base
340
0
  0
BLOCK_RECORD
  5
DA
100
AcDbSymbolTableRecord
100
AcDbBlockTableRecord
  2
Key_Enter_Well
340
0
  0
BLOCK_RECORD
  5
DB
100
AcDbSymbolTableRecord
100
AcDbBlockTableRecord
  2
Key_2.0u_Base
340
0
  0
BLOCK_RECORD
  5
DC
100
AcDbSymbolTableRecord
100
AcDbBlockTableRecord
  2
Key_1.0u_Well
340
0
  0
BLOCK_RECORD
  5
DD
100
AcDbSymbolTableRecord
100
AcDbBlockTableRecord
  2
Key_1.5u_Plate
340
0
  0
ENDTAB
  0
ENDSEC
  0
SECTION
  2
BLOCKS
  0
BLOCK
  5
20
100
AcDbEntity
  8
0
100
AcDbBlockBegin
  2
*Model_Space
 70
0
 10
0.0
 20
0.0
 30
0.0
  3
*Model_Space
  1

  0
ENDBLK
  5
21
100
AcDbEntity
  8
0
100
AcDbBlockEnd
  0
BLOCK
  5
1C
100
AcDbEntity
 67
1
  8
0
100
AcDbBlockBegin
  2
*Paper_Space
 70
0
 10
0.0
 20
0.0
 30
0.0
  3
*Paper_Space
  1

  0
ENDBLK
  5
1D
100
AcDbEntity
 67
1
  8
0
100
AcDbBlockEnd
  0
BLOCK
  5
24
100
AcDbEntity
  8
0
100
AcDbBlockBegin
  2
*Paper_Space0
 70
0
 10
0.0
 20
0.0
 30
0.0
  3
*Paper_Space0
  1

  0
ENDBLK
  5
25
100
AcDbEntity
  8
0
100
AcDbBlockEnd
  0
BLOCK
  5
DE
100
AcDbEntity
  8
0
100
AcDbBlockBegin
  2
Key_1.0u_Plate
 70
0
 10
0.0
 20
0.0
 30
0.0
  3
Key_1.0u_Plate
  1

  0
INSERT
  5
DF
100
AcDbEntity
  8
0
 62
256
370
-1
 48
1.0
  6
BYLAYER
100
AcDbBlockReference
  2
Z-Switch-Plate
 10
9.5250000000000004
 20
9.5250000000000004
 30
0.0
  0
ENDBLK
  5
E0
100
AcDbEntity
  8
0
100
AcDbBlockEnd
  0
BLOCK
  5
E1
100
AcDbEntity
  8
0
100
AcDbBlockBegin
  2
ZZZ-Key_1.0u_Base
 70
0
 10
0.0
 20
0.0
 30
0.0
  3
ZZZ-Key_1.0u_Base
  1

  0
CIRCLE
  5
E2
100
AcDbEntity
  8
0
 62
256
370
-1
 48
1.0
  6
BYLAYER
100
AcDbCircle
 10
9.5250000000000004
 20
9.5250000000000004
 30
0.0
 40
2.0
  0
CIRCLE
  5
E3
100
AcDbEntity
  8
0
 62
256
370
-1
 48
1.0
  6
BYLAYER
100
AcDbCircle
 10
13.3350000000000026
 20
12.0649999999999977
 30
0.0
 40
1.0
  0
CIRCLE
  5
E4
100
AcDbEntity
  8
0
 62
256
370
-1
 48
1.0
  6
BYLAYER
100
AcDbCircle
 10
6.9849999999999977
 20
14.6049999999999986
 30
0.0
 40
1.0
  0
ENDBLK
  5
E5
100
AcDbEntity
  8
0
100
AcDbBlockEnd
  0
BLOCK
  5
E6
100
AcDbEntity
  8
0
100
AcDbBlockBegin
  2
Key_Enter_Base
 70
0
 10
0.0
 20
0.0
 30
0.0
  3
Key_Enter_Base
  1

  0
INSERT
  5
E7
100
AcDbEntity
  8
0
 62
256
370
-1
 48
1.0
  6
BYLAYER
100
AcDbBlockReference
  2
Z-Switch-Base
 10
11.9062500000000338
 20
19.0500000000000114
 30
0.0
 50
90.0
  0
ENDBLK
  5
E8
100
AcDbEntity
  8
0
100
AcDbBlockEnd
  0
BLOCK
  5
E9
100
AcDbEntity
  8
0
100
AcDbBlockBegin
  2
Key_1.0u_Base
 70
0
 10
0.0
 20
0.0
 30
0.0
  3
Key_1.0u_Base
  1

  0
INSERT
  5
EA
100
AcDbEntity
  8
0
 62
256
370
-1
 48
1.0
  6
BYLAYER
100
AcDbBlockReference
  2
Z-Switch-Base
 10
9.5250000000000004
 20
9.5250000000000004
 30
0.0
  0
ENDBLK
  5
EB
100
AcDbEntity
  8
0
100
AcDbBlockEnd
  0
BLOCK
  5
EC
100
AcDbEntity
  8
0
100
AcDbBlockBegin
  2
Z-Switch-Plate
 70
0
 10
0.0
 20
0.0
 30
0.0
  3
Z-Switch-Plate
  1

  0
LWPOLYLINE
  5
ED
100
AcDbEntity
  8
0
 62
256
370
-1
 48
1.0
  6
BYLAYER
100
AcDbPolyline
 90
4
 70
129
 10
6.8999999999999968
 20
6.8999999999999968
 10
-6.9000000000000004
 20
6.8999999999999968
 10
-6.9000000000000004
 20
-6.9000000000000004
 10
6.8999999999999968
 20
-6.9000000000000004
  0
ENDBLK
  5
EE
100
AcDbEntity
  8
0
100
AcDbBlockEnd
  0
BLOCK
  5
EF
100
AcDbEntity
  8
0
100
AcDbBlockBegin
  2
Key_2.0u_Layout
 70
0
 10
0.0
 20
0.0
 30
0.0
  3
Key_2.0u_Layout
  1

  0
LWPOLYLINE
  5
F0
100
AcDbEntity
  8
0
 62
256
370
-1
 48
1.0
  6
BYLAYER
100
AcDbPolyline
 90
5
 70
0
 10
0.0
 20
0.0
 10
38.1000000000000014
 20
0.0000000000000071
 10
38.1000000000000014
 20
19.0500000000000043
 10
0.0
 20
19.0499999999999901
 10
0.0
 20
0.0
  0
ENDBLK
  5
F1
100
AcDbEntity
  8
0
100
AcDbBlockEnd
  0
BLOCK
  5
F2
100
AcDbEntity
  8
0
100
AcDbBlockBegin
  2
Key_1.25u_Plate
 70
0
 10
0.0
 20
0.0
 30
0.0
  3
Key_1.25u_Plate
  1

  0
INSERT
  5
F3
100
AcDbEntity
  8
0
 62
256
370
-1
 48
1.0
  6
BYLAYER
100
AcDbBlockReference
  2
Z-Switch-Plate
 10
11.9062500000000018
 20
9.5250000000000004
 30
0.0
  0
ENDBLK
  5
F4
100
AcDbEntity
  8
0
100
AcDbBlockEnd
  0
BLOCK
  5
F5
100
AcDbEntity
  8
0
100
AcDbBlockBegin
  2
Key_Support_D
 70
0
 10
0.0
 20
0.0
 30
0.0
  3
Key_Support_D
  1

  0
LINE
  5
F6
100
AcDbEntity
  8
0
 62
256
370
-1
 48
1.0
  6
BYLAYER
100
AcDbLine
 10
2.0000000000000142
 20
12.9135281374238495
 30
0.0
 11
2.0000000000000142
 21
1.9999999999999964
 31
0.0
  0
LINE
  5
F7
100
AcDbEntity
  8
0
 62
256
370
-1
 48
1.0
  6
BYLAYER
100
AcDbLine
 10
2.0000000000000284
 20
1.9999999999999964
 30
0.0
 11
3.4500000000000313
 21
1.9999999999999964
 31
0.0
  0
LINE
  5
F8
100
AcDbEntity
  8
0
 62
256
370
-1
 48
1.0
  6
BYLAYER
100
AcDbLine
 10
3.4500000000000171
 20
1.9999999999999929
 30
0.0
 11
3.4500000000000171
 21
-2.0000000000000071
 31
0.0
  0
LINE
  5
F9
100
AcDbEntity
  8
0
 62
256
370
-1
 48
1.0
  6
BYLAYER
100
AcDbLine
 10
-10.5249999999999915
 20
-2.0000000000000071
 30
0.0
 11
-10.5249999999999915
 21
1.9999999999999929
 31
0.0
  0
LINE
  5
FA
100
AcDbEntity
  8
0
 62
256
370
-1
 48
1.0
  6
BYLAYER
100
AcDbLine
 10
-10.5249999999999915
 20
1.9999999999999964
 30
0.0
 11
-2.0
 21
1.9999999999999964
 31
0.0
  0
LINE
  5
FB
100
AcDbEntity
  8
0
 62
256
370
-1
 48
1.0
  6
BYLAYER
100
AcDbLine
 10
-1.9999999999999858
 20
1.9999999999999964
 30
0.0
 11
-1.9999999999999858
 21
12.9135281374238495
 31
0.0
  0
LINE
  5
FC
100
AcDbEntity
  8
0
 62
256
370
-1
 48
1.0
  6
BYLAYER
100
AcDbLine
 10
-1.9999999999999858
 20
12.9135281374238495
 30
0.0
 11
2.0000000000000142
 21
12.9135281374238495
 31
0.0
  0
ENDBLK
  5
FD
100
AcDbEntity
  8
0
100
AcDbBlockEnd
  0
BLOCK
  5
FE
100
AcDbEntity
  8
0
100
AcDbBlockBegin
  2
Key_Support
 70
0
 10
0.0
 20
0.0
 30
0.0
  3
Key_Support
  1

  0
LINE
  5
FF
100
AcDbEntity
  8
0
 62
256
370
-1
 48
1.0
  6
BYLAYER
100
AcDbLine
 10
2.0000000000000142
 20
12.9135281374238495
 30
0.0
 11
2.0000000000000142
 21
1.9999999999999964
 31
0.0
  0
LINE
  5
100
100
AcDbEntity
  8
0
 62
256
370
-1
 48
1.0
  6
BYLAYER
100
AcDbLine
 10
2.0000000000000284
 20
1.9999999999999964
 30
0.0
 11
3.4500000000000313
 21
1.9999999999999964
 31
0.0
  0
LINE
  5
101
100
AcDbEntity
  8
0
 62
256
370
-1
 48
1.0
  6
BYLAYER
100
AcDbLine
 10
3.4500000000000171
 20
1.9999999999999929
 30
0.0
 11
3.4500000000000171
 21
-2.0000000000000071
 31
0.0
  0
LINE
  5
102
100
AcDbEntity
  8
0
 62
256
370
-1
 48
1.0
  6
BYLAYER
100
AcDbLine
 10
3.4500000000000171
 20
-2.0000000000000071
 30
0.0
 11
2.0000000000000142
 21
-2.0000000000000071
 31
0.0
  0
LINE
  5
103
100
AcDbEntity
  8
0
 62
256
370
-1
 48
1.0
  6
BYLAYER
100
AcDbLine
 10
2.0000000000000142
 20
-2.0000000000000071
 30
0.0
 11
2.0000000000000142
 21
-3.2450015958408969
 31
0.0
  0
LINE
  5
104
100
AcDbEntity
  8
0
 62
256
370
-1
 48
1.0
  6
BYLAYER
100
AcDbLine
 10
2.0000000000000142
 20
-3.2450015958408969
 30
0.0
 11
-1.9999999999999858
 21
-3.2450015958408969
 31
0.0
  0
LINE
  5
105
100
AcDbEntity
  8
0
 62
256
370
-1
 48
1.0
  6
BYLAYER
100
AcDbLine
 10
-1.9999999999999858
 20
-3.2450015958408969
 30
0.0
 11
-1.9999999999999858
 21
-2.0000000000000071
 31
0.0
  0
LINE
  5
106
100
AcDbEntity
  8
0
 62
256
370
-1
 48
1.0
  6
BYLAYER
100
AcDbLine
 10
-2.0
 20
-2.0000000000000071
 30
0.0
 11
-10.5249999999999915
 21
-2.0000000000000071
 31
0.0
  0
LINE
  5
107
100
AcDbEntity
  8
0
 62
256
370
-1
 48
1.0
  6
BYLAYER
100
AcDbLine
 10
-10.5249999999999915
 20
-2.0000000000000071
 30
0.0
 11
-10.5249999999999915
 21
1.9999999999999929
 31
0.0
  0
LINE
  5
108
100
AcDbEntity
  8
0
 62
256
370
-1
 48
1.0
  6
BYLAYER
100
AcDbLine
 10
-10.5249999999999915
 20
1.9999999999999964
 30
0.0
 11
-2.0
 21
1.9999999999999964
 31
0.0
  0
LINE
  5
109
100
AcDbEntity
  8
0
 62
256
370
-1
 48
1.0
  6
BYLAYER
100
AcDbLine
 10
-1.9999999999999858
 20
1.9999999999999964
 30
0.0
 11
-1.9999999999999858
 21
12.9135281374238495
 31
0.0
  0
LINE
  5
10A
100
AcDbEntity
  8
0
 62
256
370
-1
 48
1.0
  6
BYLAYER
100
AcDbLine
 10
-1.9999999999999858
 20
12.9135281374238495
 30
0.0
 11
2.0000000000000142
 21
12.9135281374238495
 31
0.0
  0
ENDBLK
  5
10B
100
AcDbEntity
  8
0
100
AcDbBlockEnd
  0
BLOCK
  5
10C
100
AcDbEntity
  8
0
100
AcDbBlockBegin
  2
Key_1.0u_Layout
 70
0
 10
0.0
 20
0.0
 30
0.0
  3
Key_1.0u_Layout
  1

  0
LWPOLYLINE
  5
10D
100
AcDbEntity
  8
0
 62
256
370
-1
 48
1.0
  6
BYLAYER
100
AcDbPolyline
 90
4
 70
129
 10
0.0
 20
0.0
 10
19.0500000000000007
 20
0.0
 10
19.0500000000000007
 20
19.0500000000000007
 10
0.0
 20
19.0500000000000007
  0
ENDBLK
  5
10E
100
AcDbEntity
  8
0
100
AcDbBlockEnd
  0
BLOCK
  5
10F
100
AcDbEntity
  8
0
100
AcDbBlockBegin
  2
Key_Enter_Layout
 70
0
 10
0.0
 20
0.0
 30
0.0
  3
Key_Enter_Layout
  1

  0
LWPOLYLINE
  5
110
100
AcDbEntity
  8
Layout_Right
 62
256
370
-1
 48
1.0
  6
BYLAYER
100
AcDbPolyline
 90
7
 70
0
 10
-4.7624999999999886
 20
38.0999999999999659
 10
23.8125000000000568
 20
38.1000000000000227
 10
23.8124999999999432
 20
0.0
 10
0.0
 20
0.0
 10
0.0
 20
19.0499999999999972
 10
-4.7624999999999886
 20
19.0500000000000256
 10
-4.7624999999999318
 20
38.0999999999999659
  0
ENDBLK
  5
111
100
AcDbEntity
  8
0
100
AcDbBlockEnd
  0
BLOCK
  5
112
100
AcDbEntity
  8
0
100
AcDbBlockBegin
  2
Key_1.5u_Layout
 70
0
 10
0.0
 20
0.0
 30
0.0
  3
Key_1.5u_Layout
  1

  0
LWPOLYLINE
  5
113
100
AcDbEntity
  8
0
 62
256
370
-1
 48
1.0
  6
BYLAYER
100
AcDbPolyline
 90
5
 70
0
 10
-0.0
 20
-0.0000000000000071
 10
28.5750000000000064
 20
0.0
 10
28.5750000000000064
 20
19.0499999999999972
 10
0.0
 20
19.0499999999999829
 10
0.0
 20
0.0
  0
ENDBLK
  5
114
100
AcDbEntity
  8
0
100
AcDbBlockEnd
  0
BLOCK
  5
115
100
AcDbEntity
  8
0
100
AcDbBlockBegin
  2
Key_1.5u_Well
 70
0
 10
0.0
 20
0.0
 30
0.0
  3
Key_1.5u_Well
  1

  0
INSERT
  5
116
100
AcDbEntity
  8
0
 62
256
370
-1
 48
1.0
  6
BYLAYER
100
AcDbBlockReference
  2
Z-Switch-Well
 10
14.2875000000000032
 20
9.524999999999995
 30
0.0
  0
ENDBLK
  5
117
100
AcDbEntity
  8
0
100
AcDbBlockEnd
  0
BLOCK
  5
118
100
AcDbEntity
  8
0
100
AcDbBlockBegin
  2
Key_1.25u_Well
 70
0
 10
0.0
 20
0.0
 30
0.0
  3
Key_1.25u_Well
  1

  0
INSERT
  5
119
100
AcDbEntity
  8
0
 62
256
370
-1
 48
1.0
  6
BYLAYER
100
AcDbBlockReference
  2
Z-Switch-Well
 10
11.9062500000000018
 20
9.5250000000000004
 30
0.0
  0
ENDBLK
  5
11A
100
AcDbEntity
  8
0
100
AcDbBlockEnd
  0
BLOCK
  5
11B
100
AcDbEntity
  8
0
100
AcDbBlockBegin
  2
ZZZ-StabilizerPlate
 70
0
 10
0.0
 20
0.0
 30
0.0
  3
ZZZ-StabilizerPlate
  1

  0
LINE
  5
11C
100
AcDbEntity
  8
0
 62
256
370
-1
 48
1.0
  6
BYLAYER
100
AcDbLine
 10
-3.3849999999999998
 20
-6.4600000000000009
 30
0.0
 11
3.3849999999999998
 21
-6.4600000000000009
 31
0.0
  0
LINE
  5
11D
100
AcDbEntity
  8
0
 62
256
370
-1
 48
1.0
  6
BYLAYER
100
AcDbLine
 10
3.3849999999999998
 20
5.6000000000000014
 30
0.0
 11
-3.3849999999999998
 21
5.6000000000000014
 31
0.0
  0
LINE
  5
11E
100
AcDbEntity
  8
0
 62
256
370
-1
 48
1.0
  6
BYLAYER
100
AcDbLine
 10
-3.3849999999999998
 20
5.6000000000000014
 30
0.0
 11
-3.3849999999999998
 21
2.0
 31
0.0
  0
LINE
  5
11F
100
AcDbEntity
  8
0
 62
256
370
-1
 48
1.0
  6
BYLAYER
100
AcDbLine
 10
-3.3849999999999998
 20
-0.0000000000000071
 30
0.0
 11
-3.3849999999999998
 21
-6.4600000000000009
 31
0.0
  0
LINE
  5
120
100
AcDbEntity
  8
0
 62
256
370
-1
 48
1.0
  6
BYLAYER
100
AcDbLine
 10
3.3849999999999998
 20
-6.4600000000000009
 30
0.0
 11
3.3849999999999998
 21
0.0
 31
0.0
  0
LINE
  5
121
100
AcDbEntity
  8
0
 62
256
370
-1
 48
1.0
  6
BYLAYER
100
AcDbLine
 10
3.3849999999999998
 20
2.0
 30
0.0
 11
3.3849999999999998
 21
5.6000000000000014
 31
0.0
  0
LINE
  5
122
100
AcDbEntity
  8
0
 62
256
370
-1
 48
1.0
  6
BYLAYER
100
AcDbLine
 10
3.9300000000000006
 20
0.0
 30
0.0
 11
3.9300000000000006
 21
2.0
 31
0.0
  0
LINE
  5
123
100
AcDbEntity
  8
0
 62
256
370
-1
 48
1.0
  6
BYLAYER
100
AcDbLine
 10
-3.9299999999999997
 20
2.0
 30
0.0
 11
-3.9299999999999997
 21
0.0
 31
0.0
  0
LINE
  5
124
100
AcDbEntity
  8
0
 62
256
370
-1
 48
1.0
  6
BYLAYER
100
AcDbLine
 10
-3.9299999999999997
 20
0.0
 30
0.0
 11
-3.3849999999999998
 21
0.0
 31
0.0
  0
LINE
  5
125
100
AcDbEntity
  8
0
 62
256
370
-1
 48
1.0
  6
BYLAYER
100
AcDbLine
 10
3.3850000000000007
 20
0.0
 30
0.0
 11
3.9300000000000006
 21
0.0
 31
0.0
  0
LINE
  5
126
100
AcDbEntity
  8
0
 62
256
370
-1
 48
1.0
  6
BYLAYER
100
AcDbLine
 10
3.9300000000000006
 20
2.0
 30
0.0
 11
3.3849999999999998
 21
2.0
 31
0.0
  0
LINE
  5
127
100
AcDbEntity
  8
0
 62
256
370
-1
 48
1.0
  6
BYLAYER
100
AcDbLine
 10
-3.3850000000000007
 20
2.0
 30
0.0
 11
-3.9299999999999997
 21
2.0
 31
0.0
  0
ENDBLK
  5
128
100
AcDbEntity
  8
0
100
AcDbBlockEnd
  0
BLOCK
  5
129
100
AcDbEntity
  8
0
100
AcDbBlockBegin
  2
Key_Support_R
 70
0
 10
0.0
 20
0.0
 30
0.0
  3
Key_Support_R
  1

  0
LINE
  5
12A
100
AcDbEntity
  8
0
 62
256
370
-1
 48
1.0
  6
BYLAYER
100
AcDbLine
 10
2.0000000000000142
 20
-3.2450015958408969
 30
0.0
 11
-1.9999999999999858
 21
-3.2450015958408969
 31
0.0
  0
LINE
  5
12B
100
AcDbEntity
  8
0
 62
256
370
-1
 48
1.0
  6
BYLAYER
100
AcDbLine
 10
-1.9999999999999858
 20
-3.2450015958408969
 30
0.0
 11
-1.9999999999999858
 21
-2.0000000000000071
 31
0.0
  0
LINE
  5
12C
100
AcDbEntity
  8
0
 62
256
370
-1
 48
1.0
  6
BYLAYER
100
AcDbLine
 10
-2.0
 20
-2.0000000000000071
 30
0.0
 11
-10.5249999999999915
 21
-2.0000000000000071
 31
0.0
  0
LINE
  5
12D
100
AcDbEntity
  8
0
 62
256
370
-1
 48
1.0
  6
BYLAYER
100
AcDbLine
 10
-10.5249999999999915
 20
-2.0000000000000071
 30
0.0
 11
-10.5249999999999915
 21
1.9999999999999929
 31
0.0
  0
LINE
  5
12E
100
AcDbEntity
  8
0
 62
256
370
-1
 48
1.0
  6
BYLAYER
100
AcDbLine
 10
-10.5249999999999915
 20
1.9999999999999964
 30
0.0
 11
-2.0
 21
1.9999999999999964
 31
0.0
  0
LINE
  5
12F
100
AcDbEntity
  8
0
 62
256
370
-1
 48
1.0
  6
BYLAYER
100
AcDbLine
 10
-1.9999999999999858
 20
1.9999999999999964
 30
0.0
 11
-1.9999999999999858
 21
12.9135281374238495
 31
0.0
  0
LINE
  5
130
100
AcDbEntity
  8
0
 62
256
370
-1
 48
1.0
  6
BYLAYER
100
AcDbLine
 10
-1.9999999999999858
 20
12.9135281374238495
 30
0.0
 11
2.0000000000000142
 21
12.9135281374238495
 31
0.0
  0
ENDBLK
  5
131
100
AcDbEntity
  8
0
100
AcDbBlockEnd
  0
BLOCK
  5
132
100
AcDbEntity
  8
0
100
AcDbBlockBegin
  2
Key_Enter_Plate
 70
0
 10
0.0
 20
0.0
 30
0.0
  3
Key_Enter_Plate
  1

  0
INSERT
  5
133
100
AcDbEntity
  8
0
 62
256
370
-1
 48
1.0
  6
BYLAYER
100
AcDbBlockReference
  2
Z-Key-2u+-Plate
 10
11.9062500000000284
 20
19.0500000000000078
 30
0.0
 50
90.0
  0
ENDBLK
  5
134
100
AcDbEntity
  8
0
100
AcDbBlockEnd
  0
BLOCK
  5
135
100
AcDbEntity
  8
0
100
AcDbBlockBegin
  2
Key_1.25u_Layout
 70
0
 10
0.0
 20
0.0
 30
0.0
  3
Key_1.25u_Layout
  1

  0
LWPOLYLINE
  5
136
100
AcDbEntity
  8
0
 62
256
370
-1
 48
1.0
  6
BYLAYER
100
AcDbPolyline
 90
4
 70
129
 10
0.0
 20
0.0
 10
23.8125
 20
0.0
 10
23.8125
 20
19.0500000000000007
 10
0.0
 20
19.0500000000000007
  0
ENDBLK
  5
137
100
AcDbEntity
  8
0
100
AcDbBlockEnd
  0
BLOCK
  5
138
100
AcDbEntity
  8
0
100
AcDbBlockBegin
  2
Z-Switch-Well
 70
0
 10
0.0
 20
0.0
 30
0.0
  3
Z-Switch-Well
  1

  0
LWPOLYLINE
  5
139
100
AcDbEntity
  8
0
 62
256
370
-1
 48
1.0
  6
BYLAYER
100
AcDbPolyline
 90
4
 70
129
 10
-6.9000000000000004
 20
-7.4000000000000004
 10
6.8999999999999968
 20
-7.4000000000000004
 10
6.8999999999999968
 20
7.3999999999999968
 10
-6.9000000000000004
 20
7.3999999999999968
  0
ENDBLK
  5
13A
100
AcDbEntity
  8
0
100
AcDbBlockEnd
  0
BLOCK
  5
13B
100
AcDbEntity
  8
0
100
AcDbBlockBegin
  2
Key_2.0u_Well
 70
0
 10
0.0
 20
0.0
 30
0.0
  3
Key_2.0u_Well
  1

  0
INSERT
  5
13C
100
AcDbEntity
  8
0
 62
256
370
-1
 48
1.0
  6
BYLAYER
100
AcDbBlockReference
  2
Z-Key-2u+-Well
 10
19.0500000000000007
 20
9.5250000000000021
 30
0.0
  0
ENDBLK
  5
13D
100
AcDbEntity
  8
0
100
AcDbBlockEnd
  0
BLOCK
  5
13E
100
AcDbEntity
  8
0
100
AcDbBlockBegin
  2
Z-Key-2u+-Well
 70
0
 10
0.0
 20
0.0
 30
0.0
  3
Z-Key-2u+-Well
  1

  0
LWPOLYLINE
  5
13F
100
AcDbEntity
  8
0
 62
256
370
-1
 48
1.0
  6
BYLAYER
100
AcDbPolyline
 90
10
 70
128
 10
-15.7300000000000004
 20
6.0999999999999943
 10
-6.9000000000000004
 20
6.0999999999999943
 10
-6.9000000000000004
 20
7.3999999999999968
 10
6.8999999999999968
 20
7.3999999999999968
 10
6.8999999999999968
 20
6.0999999999999943
 10
15.7300000000000004
 20
6.0999999999999943
 10
15.7300000000000004
 20
-10.0
 10
-15.7300000000000004
 20
-10.0
 10
-15.7300000000000004
 20
6.0999999999999943
 10
-15.7300000000000004
 20
6.0999999999999943
  0
ENDBLK
  5
140
100
AcDbEntity
  8
0
100
AcDbBlockEnd
  0
BLOCK
  5
141
100
AcDbEntity
  8
0
100
AcDbBlockBegin
  2
Key_1.5u_Base
 70
0
 10
0.0
 20
0.0
 30
0.0
  3
Key_1.5u_Base
  1

  0
INSERT
  5
142
100
AcDbEntity
  8
0
 62
256
370
-1
 48
1.0
  6
BYLAYER
100
AcDbBlockReference
  2
Z-Switch-Base
 10
14.2875000000000032
 20
9.524999999999995
 30
0.0
  0
ENDBLK
  5
143
100
AcDbEntity
  8
0
100
AcDbBlockEnd
  0
BLOCK
  5
144
100
AcDbEntity
  8
0
100
AcDbBlockBegin
  2
Key_1.25u_Base
 70
0
 10
0.0
 20
0.0
 30
0.0
  3
Key_1.25u_Base
  1

  0
INSERT
  5
145
100
AcDbEntity
  8
0
 62
256
370
-1
 48
1.0
  6
BYLAYER
100
AcDbBlockReference
  2
Z-Switch-Base
 10
11.9062500000000018
 20
9.5250000000000004
 30
0.0
  0
ENDBLK
  5
146
100
AcDbEntity
  8
0
100
AcDbBlockEnd
  0
BLOCK
  5
147
100
AcDbEntity
  8
0
100
AcDbBlockBegin
  2
Key_Support_DR
 70
0
 10
0.0
 20
0.0
 30
0.0
  3
Key_Support_DR
  1

  0
LINE
  5
148
100
AcDbEntity
  8
0
 62
256
370
-1
 48
1.0
  6
BYLAYER
100
AcDbLine
 10
-10.5249999999999915
 20
-2.0000000000000071
 30
0.0
 11
-10.5249999999999915
 21
1.9999999999999929
 31
0.0
  0
LINE
  5
149
100
AcDbEntity
  8
0
 62
256
370
-1
 48
1.0
  6
BYLAYER
100
AcDbLine
 10
-10.5249999999999915
 20
1.9999999999999964
 30
0.0
 11
-2.0
 21
1.9999999999999964
 31
0.0
  0
LINE
  5
14A
100
AcDbEntity
  8
0
 62
256
370
-1
 48
1.0
  6
BYLAYER
100
AcDbLine
 10
-1.9999999999999858
 20
1.9999999999999964
 30
0.0
 11
-1.9999999999999858
 21
12.9135281374238495
 31
0.0
  0
LINE
  5
14B
100
AcDbEntity
  8
0
 62
256
370
-1
 48
1.0
  6
BYLAYER
100
AcDbLine
 10
-1.9999999999999858
 20
12.9135281374238495
 30
0.0
 11
2.0000000000000142
 21
12.9135281374238495
 31
0.0
  0
ENDBLK
  5
14C
100
AcDbEntity
  8
0
100
AcDbBlockEnd
  0
BLOCK
  5
14D
100
AcDbEntity
  8
0
100
AcDbBlockBegin
  2
Z-Key-2u+-Plate
 70
0
 10
0.0
 20
0.0
 30
0.0
  3
Z-Key-2u+-Plate
  1

  0
INSERT
  5
14E
100
AcDbEntity
  8
0
 62
256
370
-1
 48
1.0
  6
BYLAYER
100
AcDbMInsertBlock
  2
Z-Stabilizer-Plate
 10
-11.8000000000000007
 20
0.0
 30
0.0
 70
2
 71
1
 44
23.6000000000000014
 45
0.0
  0
INSERT
  5
14F
100
AcDbEntity
  8
0
 62
256
370
-1
 48
1.0
  6
BYLAYER
100
AcDbBlockReference
  2
Z-Switch-Plate
 10
0.0
 20
0.0
 30
0.0
  0
ENDBLK
  5
150
100
AcDbEntity
  8
0
100
AcDbBlockEnd
  0
BLOCK
  5
151
100
AcDbEntity
  8
0
100
AcDbBlockBegin
  2
ZZZ-Key_1.0u_Plate
 70
0
 10
0.0
 20
0.0
 30
0.0
  3
ZZZ-Key_1.0u_Plate
  1

  0
LWPOLYLINE
  5
152
100
AcDbEntity
  8
0
 62
256
370
-1
 48
1.0
  6
BYLAYER
100
AcDbPolyline
 90
4
 70
129
 10
16.524999999999995
 20
16.524999999999995
 10
2.524999999999995
 20
16.524999999999995
 10
2.524999999999995
 20
2.524999999999995
 10
16.524999999999995
 20
2.524999999999995
  0
ENDBLK
  5
153
100
AcDbEntity
  8
0
100
AcDbBlockEnd
  0
BLOCK
  5
154
100
AcDbEntity
  8
0
100
AcDbBlockBegin
  2
Key_2.0u_Plate
 70
0
 10
0.0
 20
0.0
 30
0.0
  3
Key_2.0u_Plate
  1

  0
INSERT
  5
155
100
AcDbEntity
  8
0
 62
256
370
-1
 48
1.0
  6
BYLAYER
100
AcDbBlockReference
  2
Z-Key-2u+-Plate
 10
19.0500000000000007
 20
9.5250000000000021
 30
0.0
  0
ENDBLK
  5
156
100
AcDbEntity
  8
0
100
AcDbBlockEnd
  0
BLOCK
  5
157
100
AcDbEntity
  8
0
100
AcDbBlockBegin
  2
Z-Stabilizer-Well
 70
0
 10
0.0
 20
0.0
 30
0.0
  3
Z-Stabilizer-Well
  1

  0
LWPOLYLINE
  5
158
100
AcDbEntity
  8
0
 62
256
370
-1
 48
1.0
  6
BYLAYER
100
AcDbPolyline
 90
4
 70
129
 10
-3.9299999999999997
 20
-10.0
 10
3.9299999999999997
 20
-10.0
 10
3.9299999999999997
 20
6.0999999999999943
 10
-3.9299999999999997
 20
6.0999999999999943
  0
ENDBLK
  5
159
100
AcDbEntity
  8
0
100
AcDbBlockEnd
  0
BLOCK
  5
15A
100
AcDbEntity
  8
0
100
AcDbBlockBegin
  2
Z-Stabilizer-Plate
 70
0
 10
0.0
 20
0.0
 30
0.0
  3
Z-Stabilizer-Plate
  1

  0
LINE
  5
15B
100
AcDbEntity
  8
0
 62
256
370
-1
 48
1.0
  6
BYLAYER
100
AcDbLine
 10
3.2849999999999966
 20
5.5
 30
0.0
 11
-3.2849999999999966
 21
5.5
 31
0.0
  0
LINE
  5
15C
100
AcDbEntity
  8
0
 62
256
370
-1
 48
1.0
  6
BYLAYER
100
AcDbLine
 10
3.2849999999999966
 20
2.0
 30
0.0
 11
3.2849999999999966
 21
5.5
 31
0.0
  0
LINE
  5
15D
100
AcDbEntity
  8
0
 62
256
370
-1
 48
1.0
  6
BYLAYER
100
AcDbLine
 10
3.9300000000000068
 20
2.0
 30
0.0
 11
3.2849999999999966
 21
2.0
 31
0.0
  0
LINE
  5
15E
100
AcDbEntity
  8
0
 62
256
370
-1
 48
1.0
  6
BYLAYER
100
AcDbLine
 10
3.9300000000000068
 20
0.0
 30
0.0
 11
3.9300000000000068
 21
2.0
 31
0.0
  0
LINE
  5
15F
100
AcDbEntity
  8
0
 62
256
370
-1
 48
1.0
  6
BYLAYER
100
AcDbLine
 10
3.2849999999999966
 20
0.0
 30
0.0
 11
3.9300000000000068
 21
0.0
 31
0.0
  0
LINE
  5
160
100
AcDbEntity
  8
0
 62
256
370
-1
 48
1.0
  6
BYLAYER
100
AcDbLine
 10
3.2849999999999966
 20
-6.3599999999999994
 30
0.0
 11
3.2849999999999966
 21
0.0
 31
0.0
  0
LINE
  5
161
100
AcDbEntity
  8
0
 62
256
370
-1
 48
1.0
  6
BYLAYER
100
AcDbLine
 10
1.0
 20
-6.3599999999999994
 30
0.0
 11
3.2849999999999966
 21
-6.3599999999999985
 31
0.0
  0
ARC
  5
162
100
AcDbEntity
  8
0
 62
256
370
-1
 48
1.0
  6
BYLAYER
100
AcDbCircle
 10
0.0
 20
-6.3599999999999994
 30
0.0
 40
1.0
100
AcDbArc
 50
180.0
 51
0.0
  0
LINE
  5
163
100
AcDbEntity
  8
0
 62
256
370
-1
 48
1.0
  6
BYLAYER
100
AcDbLine
 10
-3.2849999999999961
 20
-6.3599999999999994
 30
0.0
 11
-1.0000000000000004
 21
-6.3599999999999994
 31
0.0
  0
LINE
  5
164
100
AcDbEntity
  8
0
 62
256
370
-1
 48
1.0
  6
BYLAYER
100
AcDbLine
 10
-3.2849999999999966
 20
-0.0000000000000071
 30
0.0
 11
-3.2849999999999966
 21
-6.3599999999999994
 31
0.0
  0
LINE
  5
165
100
AcDbEntity
  8
0
 62
256
370
-1
 48
1.0
  6
BYLAYER
100
AcDbLine
 10
-3.9300000000000068
 20
0.0
 30
0.0
 11
-3.2849999999999966
 21
0.0
 31
0.0
  0
LINE
  5
166
100
AcDbEntity
  8
0
 62
256
370
-1
 48
1.0
  6
BYLAYER
100
AcDbLine
 10
-3.9300000000000068
 20
2.0
 30
0.0
 11
-3.9300000000000068
 21
0.0
 31
0.0
  0
LINE
  5
167
100
AcDbEntity
  8
0
 62
256
370
-1
 48
1.0
  6
BYLAYER
100
AcDbLine
 10
-3.2849999999999966
 20
2.0
 30
0.0
 11
-3.9300000000000068
 21
2.0
 31
0.0
  0
LINE
  5
168
100
AcDbEntity
  8
0
 62
256
370
-1
 48
1.0
  6
BYLAYER
100
AcDbLine
 10
-3.2849999999999966
 20
5.5
 30
0.0
 11
-3.2849999999999966
 21
2.0
 31
0.0
  0
ENDBLK
  5
169
100
AcDbEntity
  8
0
100
AcDbBlockEnd
  0
BLOCK
  5
16A
100
AcDbEntity
  8
0
100
AcDbBlockBegin
  2
ZZZ-Key_1.0u_Well
 70
0
 10
0.0
 20
0.0
 30
0.0
  3
ZZZ-Key_1.0u_Well
  1

  0
LWPOLYLINE
  5
16B
100
AcDbEntity
  8
0
 62
256
370
-1
 48
1.0
  6
BYLAYER
100
AcDbPolyline
 90
4
 70
129
 10
2.524999999999995
 20
2.024999999999995
 10
16.524999999999995
 20
2.024999999999995
 10
16.524999999999995
 20
17.024999999999995
 10
2.524999999999995
 20
17.024999999999995
  0
ENDBLK
  5
16C
100
AcDbEntity
  8
0
100
AcDbBlockEnd
  0
BLOCK
  5
16D
100
AcDbEntity
  8
0
100
AcDbBlockBegin
  2
Z-Switch-Base
 70
0
 10
0.0
 20
0.0
 30
0.0
  3
Z-Switch-Base
  1

  0
CIRCLE
  5
16E
100
AcDbEntity
  8
0
 62
256
370
-1
 48
1.0
  6
BYLAYER
100
AcDbCircle
 10
0.0000000000000053
 20
-0.0000000000000018
 30
0.0
 40
1.8999999999999999
  0
LINE
  5
16F
100
AcDbEntity
  8
0
 62
256
370
-1
 48
1.0
  6
BYLAYER
100
AcDbLine
 10
0.0554833995939004
 20
3.8799999999999941
 30
0.0
 11
2.5399999999999956
 21
3.879999999999995
 31
0.0
  0
ARC
  5
170
100
AcDbEntity
  8
0
 62
256
370
-1
 48
1.0
  6
BYLAYER
100
AcDbCircle
 10
2.5390214787200316
 20
5.0799992020795495
 30
0.0
 40
1.199999601039712
100
AcDbArc
 50
270.0467209702991909
 51
90.0467209702992051
  0
LINE
  5
171
100
AcDbEntity
  8
0
 62
256
370
-1
 48
1.0
  6
BYLAYER
100
AcDbLine
 10
-0.5343164220846967
 20
6.2749877824413476
 30
0.0
 11
2.53804295744006
 21
6.279998404159107
 31
0.0
  0
ARC
  5
172
100
AcDbEntity
  8
0
 62
256
370
-1
 48
1.0
  6
BYLAYER
100
AcDbCircle
 10
-0.5294238156848451
 20
3.2749917720435686
 30
0.0
 40
3.0
100
AcDbArc
 50
90.0934419405985096
 51
134.9999999999996021
  0
LINE
  5
173
100
AcDbEntity
  8
0
 62
256
370
-1
 48
1.0
  6
BYLAYER
100
AcDbLine
 10
-2.650744159244466
 20
5.3963121156032132
 30
0.0
 11
-4.6585281374238541
 21
3.388528137423843
 31
0.0
  0
ARC
  5
174
100
AcDbEntity
  8
0
 62
256
370
-1
 48
1.0
  6
BYLAYER
100
AcDbCircle
 10
-3.8099999999999956
 20
2.539999999999996
 30
0.0
 40
1.1999999999999951
100
AcDbArc
 50
134.9999999999996305
 51
314.9999999999996589
  0
LINE
  5
175
100
AcDbEntity
  8
0
 62
256
370
-1
 48
1.0
  6
BYLAYER
100
AcDbLine
 10
-1.3587301627791766
 20
3.2942135623730859
 30
0.0
 11
-2.9614718625761403
 21
1.6914718625761429
 31
0.0
  0
ARC
  5
176
100
AcDbEntity
  8
0
 62
256
370
-1
 48
1.0
  6
BYLAYER
100
AcDbCircle
 10
0.0554833995939018
 20
1.8799999999999937
 30
0.0
 40
2.0
100
AcDbArc
 50
90.0
 51
134.9999999999997442
  0
ENDBLK
  5
177
100
AcDbEntity
  8
0
100
AcDbBlockEnd
  0
BLOCK
  5
178
100
AcDbEntity
  8
0
100
AcDbBlockBegin
  2
Key_Enter_Well
 70
0
 10
0.0
 20
0.0
 30
0.0
  3
Key_Enter_Well
  1

  0
INSERT
  5
179
100
AcDbEntity
  8
0
 62
256
370
-1
 48
1.0
  6
BYLAYER
100
AcDbBlockReference
  2
Z-Key-2u+-Well
 10
11.9062500000000284
 20
19.0500000000000078
 30
0.0
 50
90.0
  0
ENDBLK
  5
17A
100
AcDbEntity
  8
0
100
AcDbBlockEnd
  0
BLOCK
  5
17B
100
AcDbEntity
  8
0
100
AcDbBlockBegin
  2
Key_2.0u_Base
 70
0
 10
0.0
 20
0.0
 30
0.0
  3
Key_2.0u_Base
  1

  0
INSERT
  5
17C
100
AcDbEntity
  8
0
 62
256
370
-1
 48
1.0
  6
BYLAYER
100
AcDbBlockReference
  2
Z-Switch-Base
 10
19.0500000000000007
 20
9.5250000000000021
 30
0.0
  0
ENDBLK
  5
17D
100
AcDbEntity
  8
0
100
AcDbBlockEnd
  0
BLOCK
  5
17E
100
AcDbEntity
  8
0
100
AcDbBlockBegin
  2
Key_1.0u_Well
 70
0
 10
0.0
 20
0.0
 30
0.0
  3
Key_1.0u_Well
  1

  0
INSERT
  5
17F
100
AcDbEntity
  8
0
 62
256
370
-1
 48
1.0
  6
BYLAYER
100
AcDbBlockReference
  2
Z-Switch-Well
 10
9.5250000000000004
 20
9.5250000000000004
 30
0.0
  0
ENDBLK
  5
180
100
AcDbEntity
  8
0
100
AcDbBlockEnd
  0
BLOCK
  5
181
100
AcDbEntity
  8
0
100
AcDbBlockBegin
  2
Key_1.5u_Plate
 70
0
 10
0.0
 20
0.0
 30
0.0
  3
Key_1.5u_Plate
  1

  0
INSERT
  5
182
100
AcDbEntity
  8
0
 62
256
370
-1
 48
1.0
  6
BYLAYER
100
AcDbBlockReference
  2
Z-Switch-Plate
 10
14.2875000000000032
 20
9.524999999999995
 30
0.0
  0
ENDBLK
  5
183
100
AcDbEntity
  8
0
100
AcDbBlockEnd
  0
ENDSEC
  0
SECTION
  2
ENTITIES
  0
INSERT
  5
184
100
AcDbEntity
  8
Layout_Left
 62
256
370
-1
 48
1.0
  6
BYLAYER
100
AcDbMInsertBlock
  2
Key_1.5u_Layout
 10
65.5399729675945082
 20
53.0087058236416411
 30
0.0
 50
20.0
 70
1
 71
3
 44
0.0
 45
19.0500000000000007
  0
INSERT
  5
185
100
AcDbEntity
  8
Layout_Left
 62
256
370
-1
 48
1.0
  6
BYLAYER
100
AcDbMInsertBlock
  2
Key_1.0u_Layout
 10
92.3916896065517506
 20
62.7819314191727074
 30
0.0
 50
20.0
 70
5
 71
5
 44
19.0500000000000007
 45
19.0500000000000007
  0
INSERT
  5
186
100
AcDbEntity
  8
Layout_Left
 62
256
370
-1
 48
1.0
  6
BYLAYER
100
AcDbMInsertBlock
  2
Key_1.0u_Layout
 10
54.9440939895183575
 20
109.9698809667328874
 30
0.0
 50
20.0
 70
1
 71
2
 44
0.0
 45
19.0500000000000007
  0
MTEXT
  5
187
100
AcDbEntity
  8
Layout_Left
 62
256
370
-1
 48
1.0
  6
BYLAYER
100
AcDbMText
 10
98.0845199543606441
 20
74.9902454973354651
 30
0.0
 40
4.0
 41
0.0
 71
5
 72
1
  1
z
  7
textstyle54
 50
19.9999999999999822
 73
2
 44
1.0
  0
MTEXT
  5
188
100
AcDbEntity
  8
Layout_Left
 62
256
370
-1
 48
1.0
  6
BYLAYER
100
AcDbMText
 10
75.7080894218963465
 20
66.8458908343926055
 30
0.0
 40
4.0
 41
0.0
 71
5
 72
1
  1
Shift
  7
textstyle55
 50
19.9999999999999822
 73
2
 44
1.0
  0
MTEXT
  5
189
100
AcDbEntity
  8
Layout_Right
 62
256
370
-1
 48
1.0
  6
BYLAYER
100
AcDbMText
 10
336.3260556490310478
 20
188.832033590190548
 30
0.0
 40
4.0
 41
0.0
 71
5
 72
1
  1
Shift
  7
textstyle61
 50
29.9999999999999929
 73
2
 44
1.0
  0
INSERT
  5
18A
100
AcDbEntity
  8
Layout_Left
 62
256
370
-1
 48
1.0
  6
BYLAYER
100
AcDbMInsertBlock
  2
Key_2.0u_Layout
 10
212.8025915570645168
 20
51.2221791120673302
 30
0.0
 50
80.0
 70
1
 71
2
 44
0.0
 45
19.0500000000000007
  0
INSERT
  5
18B
100
AcDbEntity
  8
Layout_Left
 62
256
370
-1
 48
1.0
  6
BYLAYER
100
AcDbMInsertBlock
  2
Key_1.0u_Layout
 10
81.0060289109342762
 20
38.3653032628470427
 30
0.0
 50
20.0
 70
4
 71
1
 44
19.0500000000000007
 45
19.0500000000000007
  0
MTEXT
  5
18C
100
AcDbEntity
  8
Layout_Left
 62
256
370
-1
 48
1.0
  6
BYLAYER
100
AcDbMText
 10
140.402292536657086
 20
70.1200685320726507
 30
0.0
 40
4.0
 41
0.0
 71
5
 72
1
  1
Fn
  7
textstyle60
 50
19.9999999999999822
 73
2
 44
1.0
  0
MTEXT
  5
18D
100
AcDbEntity
  8
Layout_Left
 62
256
370
-1
 48
1.0
  6
BYLAYER
100
AcDbMText
 10
104.6000036847144372
 20
57.0891010713641904
 30
0.0
 40
4.0
 41
0.0
 71
5
 72
1
  1
Opt
  7
textstyle58
 50
19.9999999999999822
 73
2
 44
1.0
  0
MTEXT
  5
18E
100
AcDbEntity
  8
Layout_Left
 62
256
370
-1
 48
1.0
  6
BYLAYER
100
AcDbMText
 10
122.5011481106861027
 20
63.6045848017179196
 30
0.0
 40
4.0
 41
0.0
 71
5
 72
1
  1
Cmd
  7
textstyle59
 50
19.9999999999999822
 73
2
 44
1.0
  0
MTEXT
  5
18F
100
AcDbEntity
  8
Layout_Right
 62
256
370
-1
 48
1.0
  6
BYLAYER
100
AcDbMText
 10
304.6065957937973394
 20
148.5217496480974262
 30
0.0
 40
4.0
 41
0.0
 71
5
 72
1
  1
Cmd
  7
textstyle56
 50
29.9999999999999929
 73
2
 44
1.0
  0
MTEXT
  5
190
100
AcDbEntity
  8
Layout_Right
 62
256
370
-1
 48
1.0
  6
BYLAYER
100
AcDbMText
 10
321.1043797358905181
 20
158.0467496480980572
 30
0.0
 40
4.0
 41
0.0
 71
5
 72
1
  1
Opt
  7
textstyle57
 50
29.9999999999999929
 73
2
 44
1.0
  0
MTEXT
  5
191
100
AcDbEntity
  8
Layout_Right
 62
256
370
-1
 48
1.0
  6
BYLAYER
100
AcDbMText
 10
337.6021636779847199
 20
167.5717496480965565
 30
0.0
 40
4.0
 41
0.0
 71
5
 72
1
  1
Ctrl
  7
textstyle68
 50
29.9999999999999929
 73
2
 44
1.0
  0
MTEXT
  5
192
100
AcDbEntity
  8
Layout_Left
 62
256
370
-1
 48
1.0
  6
BYLAYER
100
AcDbMText
 10
86.698859258743056
 20
50.5736173410096086
 30
0.0
 40
4.0
 41
0.0
 71
5
 72
1
  1
Ctrl
  7
textstyle69
 50
19.9999999999999822
 73
2
 44
1.0
  0
MTEXT
  5
193
100
AcDbEntity
  8
Layout_Left
 62
256
370
-1
 48
1.0
  6
BYLAYER
100
AcDbMText
 10
62.6771219611881563
 20
102.6481796863360501
 30
0.0
 40
4.0
 41
0.0
 71
5
 72
1
  1
Tab
  7
textstyle66
 50
19.9999999999999822
 73
2
 44
1.0
  0
MTEXT
  5
194
100
AcDbEntity
  8
Layout_Left
 62
256
370
-1
 48
1.0
  6
BYLAYER
100
AcDbMText
 10
72.0225850329446615
 20
146.5948232012216863
 30
0.0
 40
1.0
 41
0.0
 71
5
 72
1
  1
\H4;F1
  7
textstyle67
 50
19.9999999999999822
 73
2
 44
1.0
  0
MTEXT
  5
195
100
AcDbEntity
  8
Layout_Left
 62
256
370
-1
 48
1.0
  6
BYLAYER
100
AcDbMText
 10
89.9237294589161706
 20
153.1103069315755647
 30
0.0
 40
4.0
 41
0.0
 71
5
 72
1
  1
F2
  7
textstyle64
 50
19.9999999999999822
 73
2
 44
1.0
  0
MTEXT
  5
196
100
AcDbEntity
  8
Layout_Left
 62
256
370
-1
 48
1.0
  6
BYLAYER
100
AcDbMText
 10
107.8248738848877508
 20
159.6257906619296136
 30
0.0
 40
1.0
 41
0.0
 71
5
 72
1
  1
\H4;F3
  7
textstyle65
 50
19.9999999999999822
 73
2
 44
1.0
  0
MTEXT
  5
197
100
AcDbEntity
  8
Layout_Left
 62
256
370
-1
 48
1.0
  6
BYLAYER
100
AcDbMText
 10
125.7260183108592457
 20
166.1412743922835489
 30
0.0
 40
1.0
 41
0.0
 71
5
 72
1
  1
\H4;F4
  7
textstyle62
 50
19.9999999999999822
 73
2
 44
1.0
  0
MTEXT
  5
198
100
AcDbEntity
  8
Layout_Left
 62
256
370
-1
 48
1.0
  6
BYLAYER
100
AcDbMText
 10
54.121440606973124
 20
140.0793394708675805
 30
0.0
 40
1.0
 41
0.0
 71
5
 72
1
  1
\H4;Esc
  7
textstyle63
 50
19.9999999999999822
 73
2
 44
1.0
  0
MTEXT
  5
199
100
AcDbEntity
  8
Layout_Left
 62
256
370
-1
 48
1.0
  6
BYLAYER
100
AcDbMText
 10
60.6369243373270592
 20
122.1781950448965688
 30
0.0
 40
1.0
 41
0.0
 71
5
 72
1
  1
\H4;~
  7
textstyle76
 50
19.9999999999999822
 73
2
 44
1.0
  0
MTEXT
  5
19A
100
AcDbEntity
  8
Layout_Left
 62
256
370
-1
 48
1.0
  6
BYLAYER
100
AcDbMText
 10
78.5380687632986678
 20
128.693678775249964
 30
0.0
 40
1.0
 41
0.0
 71
5
 72
1
  1
\H4;1
  7
textstyle77
 50
19.9999999999999822
 73
2
 44
1.0
  0
MTEXT
  5
19B
100
AcDbEntity
  8
Layout_Right
 62
256
370
-1
 48
1.0
  6
BYLAYER
100
AcDbMText
 10
364.434983834363095
 20
202.059419520863031
 30
0.0
 40
4.0
 41
0.0
 71
5
 72
1
  1
\U+2b06\U+fe0e
  7
textstyle74
 50
25.0
 73
2
 44
1.0
  0
MTEXT
  5
19C
100
AcDbEntity
  8
Layout_Left
 62
256
370
-1
 48
1.0
  6
BYLAYER
100
AcDbMText
 10
43.0319670671213572
 20
52.1867314481789251
 30
0.0
 40
4.0
 41
0.0
 71
5
 72
1
  1
\U+2b06\U+fe0e
  7
textstyle75
 50
25.0
 73
2
 44
1.0
  0
MTEXT
  5
19D
100
AcDbEntity
  8
Layout_Right
 62
256
370
-1
 48
1.0
  6
BYLAYER
100
AcDbMText
 10
372.48586172052336
 20
184.7942561778147024
 30
0.0
 40
4.0
 41
0.0
 71
5
 72
1
  1
\U+2b07\U+fe0e
  7
textstyle72
 50
25.0
 73
2
 44
1.0
  0
MTEXT
  5
19E
100
AcDbEntity
  8
Layout_Left
 62
256
370
-1
 48
1.0
  6
BYLAYER
100
AcDbMText
 10
51.0828449532817714
 20
34.9215681051303335
 30
0.0
 40
4.0
 41
0.0
 71
5
 72
1
  1
\U+2b07\U+fe0e
  7
textstyle73
 50
25.0
 73
2
 44
1.0
  0
MTEXT
  5
19F
100
AcDbEntity
  8
Layout_Right
 62
256
370
-1
 48
1.0
  6
BYLAYER
100
AcDbMText
 10
355.1848225265628116
 20
176.8203143022150812
 30
0.0
 40
4.0
 41
0.0
 71
5
 72
1
  1
\U+2b05\U+fe0e
  7
textstyle70
 50
25.0
 73
2
 44
1.0
  0
MTEXT
  5
1A0
100
AcDbEntity
  8
Layout_Left
 62
256
370
-1
 48
1.0
  6
BYLAYER
100
AcDbMText
 10
33.7818057593213439
 20
26.9476262295308366
 30
0.0
 40
4.0
 41
0.0
 71
5
 72
1
  1
\U+2b05\U+fe0e
  7
textstyle71
 50
25.0
 73
2
 44
1.0
  0
MTEXT
  5
1A1
100
AcDbEntity
  8
Layout_Right
 62
256
370
-1
 48
1.0
  6
BYLAYER
100
AcDbMText
 10
389.7151492126591279
 20
192.9220700745359522
 30
0.0
 40
4.0
 41
0.0
 71
5
 72
1
  1
\U+27a1\U+fe0e
  7
textstyle83
 50
25.0
 73
2
 44
1.0
  0
MTEXT
  5
1A2
100
AcDbEntity
  8
Layout_Left
 62
256
370
-1
 48
1.0
  6
BYLAYER
100
AcDbMText
 10
68.3121324454178591
 20
43.0493820018512494
 30
0.0
 40
4.0
 41
0.0
 71
5
 72
1
  1
\U+27a1\U+fe0e
  7
textstyle84
 50
25.0
 73
2
 44
1.0
  0
MTEXT
  5
1A3
100
AcDbEntity
  8
Layout_Left
 62
256
370
-1
 48
1.0
  6
BYLAYER
100
AcDbMText
 10
69.1926056915420986
 20
84.7470352603645836
 30
0.0
 40
1.0
 41
0.0
 71
5
 72
1
  1
\H4;Enter
  7
textstyle81
 50
19.9999999999999822
 73
2
 44
1.0
  0
MTEXT
  5
1A4
100
AcDbEntity
  8
Layout_Left
 62
256
370
-1
 48
1.0
  6
BYLAYER
100
AcDbMText
 10
145.272469501921222
 20
112.4378411143689362
 30
0.0
 40
4.0
 41
0.0
 71
5
 72
1
  1
f
  7
textstyle82
 50
19.9999999999999822
 73
2
 44
1.0
  0
MTEXT
  5
1A5
100
AcDbEntity
  8
Layout_Left
 62
256
370
-1
 48
1.0
  6
BYLAYER
100
AcDbMText
 10
187.9697077993002665
 20
74.9447634837779901
 30
0.0
 40
4.0
 41
0.0
 71
5
 72
1
  1
Space
  7
textstyle79
 50
80.0
 73
2
 44
1.0
  0
MTEXT
  5
1A6
100
AcDbEntity
  8
Layout_Left
 62
256
370
-1
 48
1.0
  6
BYLAYER
100
AcDbMText
 10
206.7302954941784208
 20
71.6367656992272117
 30
0.0
 40
1.0
 41
0.0
 71
5
 72
1
  1
\H4;Delete
  7
textstyle80
 50
80.0
 73
2
 44
1.0
  0
INSERT
  5
1A7
100
AcDbEntity
  8
Layout_Right
 62
256
370
-1
 48
1.0
  6
BYLAYER
100
AcDbMInsertBlock
  2
Key_1.0u_Layout
 10
242.1018519964695486
 20
123.4331416191442372
 30
0.0
 50
30.0
 70
5
 71
5
 44
19.0500000000000007
 45
19.0500000000000007
  0
MTEXT
  5
1A8
100
AcDbEntity
  8
Layout_Left
 62
256
370
-1
 48
1.0
  6
BYLAYER
100
AcDbMText
 10
169.6890976582468227
 20
101.0521804187512913
 30
0.0
 40
4.0
 41
0.0
 71
5
 72
1
  1
b
  7
textstyle78
 50
19.9999999999999822
 73
2
 44
1.0
  0
MTEXT
  5
1A9
100
AcDbEntity
  8
Layout_Right
 62
256
370
-1
 48
1.0
  6
BYLAYER
100
AcDbMText
 10
245.5882439675158651
 20
136.4445335901913552
 30
0.0
 40
4.0
 41
0.0
 71
5
 72
1
  1
n
  7
textstyle7
 50
29.9999999999999929
 73
2
 44
1.0
  0
MTEXT
  5
1AA
100
AcDbEntity
  8
Layout_Right
 62
256
370
-1
 48
1.0
  6
BYLAYER
100
AcDbMText
 10
262.0860279096123691
 20
145.9695335901880071
 30
0.0
 40
4.0
 41
0.0
 71
5
 72
1
  1
m
  7
textstyle8
 50
29.9999999999999929
 73
2
 44
1.0
  0
MTEXT
  5
1AB
100
AcDbEntity
  8
Layout_Right
 62
256
370
-1
 48
1.0
  6
BYLAYER
100
AcDbMText
 10
278.583811851703274
 20
155.4945335901910539
 30
0.0
 40
4.0
 41
0.0
 71
5
 72
1
  1
<
  7
textstyle5
 50
29.9999999999999929
 73
2
 44
1.0
  0
MTEXT
  5
1AC
100
AcDbEntity
  8
Layout_Right
 62
256
370
-1
 48
1.0
  6
BYLAYER
100
AcDbMText
 10
295.0815957937970211
 20
165.0195335901906617
 30
0.0
 40
4.0
 41
0.0
 71
5
 72
1
  1
>
  7
textstyle6
 50
29.9999999999999929
 73
2
 44
1.0
  0
MTEXT
  5
1AD
100
AcDbEntity
  8
Layout_Right
 62
256
370
-1
 48
1.0
  6
BYLAYER
100
AcDbMText
 10
311.5793797358905408
 20
174.5445335901908663
 30
0.0
 40
4.0
 41
0.0
 71
5
 72
1
  1
?
  7
textstyle3
 50
29.9999999999999929
 73
2
 44
1.0
  0
MTEXT
  5
1AE
100
AcDbEntity
  8
Layout_Left
 62
256
370
-1
 48
1.0
  6
BYLAYER
100
AcDbMText
 10
143.6271627368308827
 20
172.6567581226376262
 30
0.0
 40
4.0
 41
0.0
 71
5
 72
1
  1
F5
  7
textstyle4
 50
19.9999999999999822
 73
2
 44
1.0
  0
MTEXT
  5
1AF
100
AcDbEntity
  8
Layout_Right
 62
256
370
-1
 48
1.0
  6
BYLAYER
100
AcDbMText
 10
207.4882439675165813
 20
202.4356693585648088
 30
0.0
 40
4.0
 41
0.0
 71
5
 72
1
  1
F6
  7
textstyle1
 50
29.9999999999999929
 73
2
 44
1.0
  0
MTEXT
  5
1B0
100
AcDbEntity
  8
Layout_Right
 62
256
370
-1
 48
1.0
  6
BYLAYER
100
AcDbMText
 10
223.9860279096101578
 20
211.9606693585648429
 30
0.0
 40
4.0
 41
0.0
 71
5
 72
1
  1
F7
  7
textstyle2
 50
29.9999999999999929
 73
2
 44
1.0
  0
MTEXT
  5
1B1
100
AcDbEntity
  8
Layout_Right
 62
256
370
-1
 48
1.0
  6
BYLAYER
100
AcDbMText
 10
240.4838118517037913
 20
221.4856693585647633
 30
0.0
 40
4.0
 41
0.0
 71
5
 72
1
  1
F8
  7
textstyle15
 50
29.9999999999999929
 73
2
 44
1.0
  0
MTEXT
  5
1B2
100
AcDbEntity
  8
Layout_Right
 62
256
370
-1
 48
1.0
  6
BYLAYER
100
AcDbMText
 10
256.9815957937974531
 20
231.0106693585647974
 30
0.0
 40
4.0
 41
0.0
 71
5
 72
1
  1
F9
  7
textstyle16
 50
29.9999999999999929
 73
2
 44
1.0
  0
MTEXT
  5
1B3
100
AcDbEntity
  8
Layout_Right
 62
256
370
-1
 48
1.0
  6
BYLAYER
100
AcDbMText
 10
273.4793797358906318
 20
240.5356693585649737
 30
0.0
 40
4.0
 41
0.0
 71
5
 72
1
  1
F10
  7
textstyle13
 50
29.9999999999999929
 73
2
 44
1.0
  0
MTEXT
  5
1B4
100
AcDbEntity
  8
Layout_Right
 62
256
370
-1
 48
1.0
  6
BYLAYER
100
AcDbMText
 10
289.9771636779841515
 20
250.060669358565093
 30
0.0
 40
4.0
 41
0.0
 71
5
 72
1
  1
F11
  7
textstyle14
 50
29.9999999999999929
 73
2
 44
1.0
  0
MTEXT
  5
1B5
100
AcDbEntity
  8
Layout_Right
 62
256
370
-1
 48
1.0
  6
BYLAYER
100
AcDbMText
 10
306.4749476200777849
 20
259.5856693585650987
 30
0.0
 40
4.0
 41
0.0
 71
5
 72
1
  1
F12
  7
textstyle11
 50
29.9999999999999929
 73
2
 44
1.0
  0
MTEXT
  5
1B6
100
AcDbEntity
  8
Layout_Left
 62
256
370
-1
 48
1.0
  6
BYLAYER
100
AcDbMText
 10
150.1426464671848464
 20
154.7556136966659892
 30
0.0
 40
4.0
 41
0.0
 71
5
 72
1
  1
5
  7
textstyle12
 50
19.9999999999999822
 73
2
 44
1.0
  0
MTEXT
  5
1B7
100
AcDbEntity
  8
Layout_Right
 62
256
370
-1
 48
1.0
  6
BYLAYER
100
AcDbMText
 10
217.0132439675165585
 20
185.9378854164711754
 30
0.0
 40
4.0
 41
0.0
 71
5
 72
1
  1
6
  7
textstyle9
 50
29.9999999999999929
 73
2
 44
1.0
  0
MTEXT
  5
1B8
100
AcDbEntity
  8
Layout_Right
 62
256
370
-1
 48
1.0
  6
BYLAYER
100
AcDbMText
 10
233.5110279096101067
 20
195.46288541647138
 30
0.0
 40
4.0
 41
0.0
 71
5
 72
1
  1
7
  7
textstyle10
 50
29.9999999999999929
 73
2
 44
1.0
  0
MTEXT
  5
1B9
100
AcDbEntity
  8
Layout_Right
 62
256
370
-1
 48
1.0
  6
BYLAYER
100
AcDbMText
 10
250.0088118517035127
 20
204.9878854164715563
 30
0.0
 40
4.0
 41
0.0
 71
5
 72
1
  1
8
  7
textstyle23
 50
29.9999999999999929
 73
2
 44
1.0
  0
MTEXT
  5
1BA
100
AcDbEntity
  8
Layout_Right
 62
256
370
-1
 48
1.0
  6
BYLAYER
100
AcDbMText
 10
266.5065957937972598
 20
214.5128854164712777
 30
0.0
 40
4.0
 41
0.0
 71
5
 72
1
  1
9
  7
textstyle24
 50
29.9999999999999929
 73
2
 44
1.0
  0
MTEXT
  5
1BB
100
AcDbEntity
  8
Layout_Right
 62
256
370
-1
 48
1.0
  6
BYLAYER
100
AcDbMText
 10
283.0043797358906659
 20
224.0378854164713687
 30
0.0
 40
4.0
 41
0.0
 71
5
 72
1
  1
0
  7
textstyle21
 50
29.9999999999999929
 73
2
 44
1.0
  0
MTEXT
  5
1BC
100
AcDbEntity
  8
Layout_Right
 62
256
370
-1
 48
1.0
  6
BYLAYER
100
AcDbMText
 10
299.5021636779849246
 20
233.5628854164705217
 30
0.0
 40
4.0
 41
0.0
 71
5
 72
1
  1
-
  7
textstyle22
 50
29.9999999999999929
 73
2
 44
1.0
  0
MTEXT
  5
1BD
100
AcDbEntity
  8
Layout_Right
 62
256
370
-1
 48
1.0
  6
BYLAYER
100
AcDbMText
 10
315.9999476200776485
 20
243.0878854164714369
 30
0.0
 40
4.0
 41
0.0
 71
5
 72
1
  1
+
  7
textstyle19
 50
29.9999999999999929
 73
2
 44
1.0
  0
MTEXT
  5
1BE
100
AcDbEntity
  8
Layout_Right
 62
256
370
-1
 48
1.0
  6
BYLAYER
100
AcDbMText
 10
252.5610279096101465
 20
162.4673175322840848
 30
0.0
 40
4.0
 41
0.0
 71
5
 72
1
  1
j
  7
textstyle20
 50
29.9999999999999929
 73
2
 44
1.0
  0
MTEXT
  5
1BF
100
AcDbEntity
  8
Layout_Right
 62
256
370
-1
 48
1.0
  6
BYLAYER
100
AcDbMText
 10
285.5565957937975554
 20
181.5173175322839825
 30
0.0
 40
4.0
 41
0.0
 71
5
 72
1
  1
l
  7
textstyle17
 50
29.9999999999999929
 73
2
 44
1.0
  0
MTEXT
  5
1C0
100
AcDbEntity
  8
Layout_Right
 62
256
370
-1
 48
1.0
  6
BYLAYER
100
AcDbMText
 10
302.054379735887494
 20
191.0423175322875124
 30
0.0
 40
4.0
 41
0.0
 71
5
 72
1
  1
:
  7
textstyle18
 50
29.9999999999999929
 73
2
 44
1.0
  0
MTEXT
  5
1C1
100
AcDbEntity
  8
Layout_Right
 62
256
370
-1
 48
1.0
  6
BYLAYER
100
AcDbMText
 10
318.5521636779839696
 20
200.5673175322845339
 30
0.0
 40
4.0
 41
0.0
 71
5
 72
1
  1
"
  7
textstyle28
 50
29.9999999999999929
 73
2
 44
1.0
  0
MTEXT
  5
1C2
100
AcDbEntity
  8
Layout_Right
 62
256
370
-1
 48
1.0
  6
BYLAYER
100
AcDbMText
 10
226.5382439675166495
 20
169.4401014743776841
 30
0.0
 40
4.0
 41
0.0
 71
5
 72
1
  1
y
  7
textstyle29
 50
29.9999999999999929
 73
2
 44
1.0
  0
MTEXT
  5
1C3
100
AcDbEntity
  8
Layout_Right
 62
256
370
-1
 48
1.0
  6
BYLAYER
100
AcDbMText
 10
292.5293797358908137
 20
207.5401014743777353
 30
0.0
 40
4.0
 41
0.0
 71
5
 72
1
  1
p
  7
textstyle26
 50
29.9999999999999929
 73
2
 44
1.0
  0
MTEXT
  5
1C4
100
AcDbEntity
  8
Layout_Right
 62
256
370
-1
 48
1.0
  6
BYLAYER
100
AcDbMText
 10
309.0271636779834239
 20
217.0651014743785368
 30
0.0
 40
4.0
 41
0.0
 71
5
 72
1
  1
\{
  7
textstyle27
 50
29.9999999999999929
 73
2
 44
1.0
  0
MTEXT
  5
1C5
100
AcDbEntity
  8
Layout_Right
 62
256
370
-1
 48
1.0
  6
BYLAYER
100
AcDbMText
 10
325.5249476200783079
 20
226.5901014743774056
 30
0.0
 40
4.0
 41
0.0
 71
5
 72
1
  1
\}
  7
textstyle25
 50
29.9999999999999929
 73
2
 44
1.0
  0
INSERT
  5
1C6
100
AcDbEntity
  8
Layout_Right
 62
256
370
-1
 48
1.0
  6
BYLAYER
100
AcDbMInsertBlock
  2
Key_1.0u_Layout
 10
284.6224198806567642
 20
125.985357677050672
 30
0.0
 50
30.0
 70
4
 71
1
 44
19.0500000000000007
 45
19.0500000000000007
  0
INSERT
  5
1C7
100
AcDbEntity
  8
Layout_Right
 62
256
370
-1
 48
1.0
  6
BYLAYER
100
AcDbMInsertBlock
  2
Key_1.0u_Layout
 10
350.6135556490312979
 20
164.0853576770499842
 30
0.0
 50
25.0
 70
3
 71
1
 44
19.0500000000000007
 45
19.0500000000000007
  0
INSERT
  5
1C8
100
AcDbEntity
  8
Layout_Left
 62
256
370
-1
 48
1.0
  6
BYLAYER
100
AcDbMInsertBlock
  2
Key_1.0u_Layout
 10
29.2105388817894536
 20
14.2126696043662335
 30
0.0
 50
25.0
 70
3
 71
1
 44
19.0500000000000007
 45
19.0500000000000007
  0
INSERT
  5
1C9
100
AcDbEntity
  8
Layout_Right
 62
256
370
-1
 48
1.0
  6
BYLAYER
100
AcDbBlockReference
  2
Key_1.0u_Layout
 10
359.8278411059190489
 20
189.4013989062589474
 30
0.0
 50
25.0
  0
INSERT
  5
1CA
100
AcDbEntity
  8
Layout_Left
 62
256
370
-1
 48
1.0
  6
BYLAYER
100
AcDbBlockReference
  2
Key_1.0u_Layout
 10
38.4248243386775172
 20
39.5287108335744719
 30
0.0
 50
25.0
  0
INSERT
  5
1CB
100
AcDbEntity
  8
Layout_Right
 62
256
370
-1
 48
1.0
  6
BYLAYER
100
AcDbMInsertBlock
  2
Key_1.0u_Layout
 10
322.0385556490314798
 20
213.5787095033307708
 30
0.0
 50
30.0
 70
1
 71
3
 44
19.0500000000000007
 45
19.0500000000000007
  0
INSERT
  5
1CC
100
AcDbEntity
  8
Layout_Right
 62
256
370
-1
 48
1.0
  6
BYLAYER
100
AcDbMInsertBlock
  2
Key_1.0u_Layout
 10
315.0657717069375963
 20
187.5559255612375011
 30
0.0
 50
30.0
 70
1
 71
4
 44
19.0500000000000007
 45
19.0500000000000007
  0
INSERT
  5
1CD
100
AcDbEntity
  8
Layout_Right
 62
256
370
-1
 48
1.0
  6
BYLAYER
100
AcDbBlockReference
  2
Key_1.0u_Layout
 10
331.5635556490310023
 20
197.0809255612377626
 30
0.0
 50
30.0
  0
INSERT
  5
1CE
100
AcDbEntity
  8
Layout_Right
 62
256
370
-1
 48
1.0
  6
BYLAYER
100
AcDbBlockReference
  2
Key_Enter_Layout
 10
351.7769632197585565
 20
206.6665622493076455
 30
0.0
 50
25.0
  0
MTEXT
  5
1CF
100
AcDbEntity
  8
Layout_Right
 62
256
370
-1
 48
1.0
  6
BYLAYER
100
AcDbMText
 10
335.0499476200762956
 20
210.0923175322858185
 30
0.0
 40
4.0
 41
0.0
 71
5
 72
1
  1
|
  7
textstyle30
 50
29.9999999999999929
 73
2
 44
1.0
  0
MTEXT
  5
1D0
100
AcDbEntity
  8
Layout_Right
 62
256
370
-1
 48
1.0
  6
BYLAYER
100
AcDbMText
 10
353.4377397140627295
 20
228.4603444033205335
 30
0.0
 40
4.0
 41
0.0
 71
5
 72
1
  1
Enter
  7
textstyle31
 50
25.0
 73
2
 44
1.0
  0
INSERT
  5
1D1
100
AcDbEntity
  8
Layout_Right
 62
256
370
-1
 48
1.0
  6
BYLAYER
100
AcDbBlockReference
  2
Key_2.0u_Layout
 10
324.5907717069375735
 20
171.0581416191438962
 30
0.0
 50
30.0
  0
MTEXT
  5
1D2
100
AcDbEntity
  8
Layout_Right
 62
256
370
-1
 48
1.0
  6
BYLAYER
100
AcDbMText
 10
288.1088118517053545
 20
138.9967496480936404
 30
0.0
 40
4.0
 41
0.0
 71
5
 72
1
  1
Fn
  7
textstyle37
 50
29.9999999999999929
 73
2
 44
1.0
  0
INSERT
  5
1D3
100
AcDbEntity
  8
Layout_Right
 62
256
370
-1
 48
1.0
  6
BYLAYER
100
AcDbMInsertBlock
  2
Key_2.0u_Layout
 10
223.0518519964697646
 20
90.4375737349564872
 30
0.0
 50
-29.9999999999999822
 70
1
 71
2
 44
0.0
 45
19.0500000000000007
  0
MTEXT
  5
1D4
100
AcDbEntity
  8
Layout_Right
 62
256
370
-1
 48
1.0
  6
BYLAYER
100
AcDbMText
 10
253.8371359385631365
 20
105.6592496480969459
 30
0.0
 40
4.0
 41
0.0
 71
5
 72
1
  1
Space
  7
textstyle36
 50
330.0
 73
2
 44
1.0
  0
MTEXT
  5
1D5
100
AcDbEntity
  8
Layout_Right
 62
256
370
-1
 48
1.0
  6
BYLAYER
100
AcDbMText
 10
244.3121359385635571
 20
89.1614657060030709
 30
0.0
 40
4.0
 41
0.0
 71
5
 72
1
  1
Delete
  7
textstyle34
 50
330.0
 73
2
 44
1.0
  0
MTEXT
  5
1D6
100
AcDbEntity
  8
Layout_Left
 62
256
370
-1
 48
1.0
  6
BYLAYER
100
AcDbMText
 10
102.954696919624098
 20
117.3080180796328733
 30
0.0
 40
4.0
 41
0.0
 71
5
 72
1
  1
w
  7
textstyle35
 50
19.9999999999999822
 73
2
 44
1.0
  0
MTEXT
  5
1D7
100
AcDbEntity
  8
Layout_Left
 62
256
370
-1
 48
1.0
  6
BYLAYER
100
AcDbMText
 10
85.0535524936526031
 20
110.7925343492783696
 30
0.0
 40
4.0
 41
0.0
 71
5
 72
1
  1
q
  7
textstyle32
 50
19.9999999999999822
 73
2
 44
1.0
  0
MTEXT
  5
1D8
100
AcDbEntity
  8
Layout_Left
 62
256
370
-1
 48
1.0
  6
BYLAYER
100
AcDbMText
 10
120.8558413455958203
 20
123.8235018099853022
 30
0.0
 40
4.0
 41
0.0
 71
5
 72
1
  1
e
  7
textstyle33
 50
19.9999999999999822
 73
2
 44
1.0
  0
MTEXT
  5
1D9
100
AcDbEntity
  8
Layout_Left
 62
256
370
-1
 48
1.0
  6
BYLAYER
100
AcDbMText
 10
138.7569857715672867
 20
130.3389855403405306
 30
0.0
 40
4.0
 41
0.0
 71
5
 72
1
  1
r
  7
textstyle44
 50
19.9999999999999822
 73
2
 44
1.0
  0
MTEXT
  5
1DA
100
AcDbEntity
  8
Layout_Left
 62
256
370
-1
 48
1.0
  6
BYLAYER
100
AcDbMText
 10
156.6581301975388385
 20
136.8544692706944375
 30
0.0
 40
4.0
 41
0.0
 71
5
 72
1
  1
t
  7
textstyle45
 50
19.9999999999999822
 73
2
 44
1.0
  0
MTEXT
  5
1DB
100
AcDbEntity
  8
Layout_Left
 62
256
370
-1
 48
1.0
  6
BYLAYER
100
AcDbMText
 10
91.5690362240065951
 20
92.8913899233069458
 30
0.0
 40
4.0
 41
0.0
 71
5
 72
1
  1
a
  7
textstyle42
 50
19.9999999999999822
 73
2
 44
1.0
  0
MTEXT
  5
1DC
100
AcDbEntity
  8
Layout_Left
 62
256
370
-1
 48
1.0
  6
BYLAYER
100
AcDbMText
 10
109.4701806499782037
 20
99.406873653660881
 30
0.0
 40
4.0
 41
0.0
 71
5
 72
1
  1
s
  7
textstyle43
 50
19.9999999999999822
 73
2
 44
1.0
  0
MTEXT
  5
1DD
100
AcDbEntity
  8
Layout_Left
 62
256
370
-1
 48
1.0
  6
BYLAYER
100
AcDbMText
 10
127.3713250759497271
 20
105.9223573840148731
 30
0.0
 40
4.0
 41
0.0
 71
5
 72
1
  1
d
  7
textstyle40
 50
19.9999999999999822
 73
2
 44
1.0
  0
MTEXT
  5
1DE
100
AcDbEntity
  8
Layout_Left
 62
256
370
-1
 48
1.0
  6
BYLAYER
100
AcDbMText
 10
163.1736139278927737
 20
118.9533248447229283
 30
0.0
 40
4.0
 41
0.0
 71
5
 72
1
  1
g
  7
textstyle41
 50
19.9999999999999822
 73
2
 44
1.0
  0
MTEXT
  5
1DF
100
AcDbEntity
  8
Layout_Left
 62
256
370
-1
 48
1.0
  6
BYLAYER
100
AcDbMText
 10
115.9856643803321674
 20
81.5057292276893719
 30
0.0
 40
4.0
 41
0.0
 71
5
 72
1
  1
x
  7
textstyle38
 50
19.9999999999999822
 73
2
 44
1.0
  0
MTEXT
  5
1E0
100
AcDbEntity
  8
Layout_Left
 62
256
370
-1
 48
1.0
  6
BYLAYER
100
AcDbMText
 10
133.8868088063036623
 20
88.0212129580433071
 30
0.0
 40
4.0
 41
0.0
 71
5
 72
1
  1
c
  7
textstyle39
 50
19.9999999999999822
 73
2
 44
1.0
  0
MTEXT
  5
1E1
100
AcDbEntity
  8
Layout_Left
 62
256
370
-1
 48
1.0
  6
BYLAYER
100
AcDbMText
 10
151.7879532322751572
 20
94.5366966883974271
 30
0.0
 40
4.0
 41
0.0
 71
5
 72
1
  1
v
  7
textstyle52
 50
19.9999999999999822
 73
2
 44
1.0
  0
MTEXT
  5
1E2
100
AcDbEntity
  8
Layout_Left
 62
256
370
-1
 48
1.0
  6
BYLAYER
100
AcDbMText
 10
96.4392131892701059
 20
135.2091625056041551
 30
0.0
 40
4.0
 41
0.0
 71
5
 72
1
  1
2
  7
textstyle53
 50
19.9999999999999822
 73
2
 44
1.0
  0
MTEXT
  5
1E3
100
AcDbEntity
  8
Layout_Left
 62
256
370
-1
 48
1.0
  6
BYLAYER
100
AcDbMText
 10
114.3403576152417429
 20
141.7246462359580335
 30
0.0
 40
4.0
 41
0.0
 71
5
 72
1
  1
3
  7
textstyle50
 50
19.9999999999999822
 73
2
 44
1.0
  0
MTEXT
  5
1E4
100
AcDbEntity
  8
Layout_Left
 62
256
370
-1
 48
1.0
  6
BYLAYER
100
AcDbMText
 10
132.2415020412132662
 20
148.240129966312054
 30
0.0
 40
4.0
 41
0.0
 71
5
 72
1
  1
4
  7
textstyle51
 50
19.9999999999999822
 73
2
 44
1.0
  0
MTEXT
  5
1E5
100
AcDbEntity
  8
Layout_Right
 62
256
370
-1
 48
1.0
  6
BYLAYER
100
AcDbMText
 10
236.0632439675163994
 20
152.9423175322841075
 30
0.0
 40
4.0
 41
0.0
 71
5
 72
1
  1
h
  7
textstyle48
 50
29.9999999999999929
 73
2
 44
1.0
  0
MTEXT
  5
1E6
100
AcDbEntity
  8
Layout_Right
 62
256
370
-1
 48
1.0
  6
BYLAYER
100
AcDbMText
 10
269.0588118517043199
 20
171.992317532283721
 30
0.0
 40
4.0
 41
0.0
 71
5
 72
1
  1
k
  7
textstyle49
 50
29.9999999999999929
 73
2
 44
1.0
  0
MTEXT
  5
1E7
100
AcDbEntity
  8
Layout_Right
 62
256
370
-1
 48
1.0
  6
BYLAYER
100
AcDbMText
 10
243.0360279096103397
 20
178.9651014743775761
 30
0.0
 40
4.0
 41
0.0
 71
5
 72
1
  1
u
  7
textstyle46
 50
29.9999999999999929
 73
2
 44
1.0
  0
MTEXT
  5
1E8
100
AcDbEntity
  8
Layout_Right
 62
256
370
-1
 48
1.0
  6
BYLAYER
100
AcDbMText
 10
259.5338118517036605
 20
188.4901014743776955
 30
0.0
 40
4.0
 41
0.0
 71
5
 72
1
  1
i
  7
textstyle47
 50
29.9999999999999929
 73
2
 44
1.0
  0
MTEXT
  5
1E9
100
AcDbEntity
  8
Layout_Right
 62
256
370
-1
 48
1.0
  6
BYLAYER
100
AcDbMText
 10
276.0315957937974076
 20
198.0151014743776159
 30
0.0
 40
4.0
 41
0.0
 71
5
 72
1
  1
o
  7
textstyle0
 50
29.9999999999999929
 73
2
 44
1.0
  0
INSERT
  5
1EA
100
AcDbEntity
  8
Layout_Left
 62
256
370
-1
 48
1.0
  6
BYLAYER
100
AcDbBlockReference
  2
Key_1.0u_Layout
 10
156.5208284724168095
 20
61.146172465732576
 30
0.0
 50
-9.9999999999999982
  0
INSERT
  5
1EB
100
AcDbEntity
  8
Layout_Right
 62
256
370
-1
 48
1.0
  6
BYLAYER
100
AcDbBlockReference
  2
Key_1.0u_Layout
 10
275.0974198806569575
 20
104.3831416191433732
 30
0.0
 50
60.0
  0
LWPOLYLINE
  5
1EC
100
AcDbEntity
  8
SheetBoundary
 62
256
370
-1
 48
1.0
  6
BYLAYER
100
AcDbPolyline
 90
4
 70
129
 10
0.0
 20
0.0
 10
420.0
 20
0.0
 10
420.0
 20
297.0
 10
0.0
 20
297.0
  0
LWPOLYLINE
  5
1ED
100
AcDbEntity
  8
TopCover
 62
256
370
-1
 48
1.0
  6
BYLAYER
100
AcDbPolyline
 90
21
 70
1
 10
212.8025915570645168
 20
51.2221791120673728
 10
156.5208284724168095
 20
61.146172465732576
 10
159.8288262569719507
 20
79.9067601606151072
 10
178.589413951854425
 20
76.5987623760601082
 10
181.8974117364095662
 20
95.3593500709425825
 10
146.0951228844665195
 20
82.3283826102345131
 10
152.6106066148203979
 20
64.4272381842630466
 10
81.006028910934134
 20
38.3653032628472417
 10
29.2105388817894536
 20
14.2126696043662335
 10
21.1596609956291601
 20
31.4778329474144627
 10
38.4248243386774035
 20
39.5287108335747135
 10
30.3739464525173375
 20
56.7938741766224453
 10
47.6391097955650409
 20
64.8447520627836127
 10
55.6899876817256754
 20
47.5795887197348648
 10
65.8001003601250147
 20
52.2940116864824276
 10
45.9935217765324396
 20
106.712139101556744
 10
54.9440939895183575
 20
109.9698809667328874
 10
41.9131265288102881
 20
145.7721698186763319
 10
149.3199930846396626
 20
184.8650722008003697
 10
181.8974117364095093
 20
95.3593500709426678
 10
219.4185871454692176
 20
88.7433545211270882
  0
LWPOLYLINE
  5
1EE
100
AcDbEntity
  8
Support
 62
256
370
-1
 48
1.0
  6
BYLAYER
100
AcDbPolyline
 90
21
 70
1
 10
212.8025915570645168
 20
51.2221791120673728
 10
156.5208284724168095
 20
61.146172465732576
 10
159.8288262569719507
 20
79.9067601606151072
 10
178.589413951854425
 20
76.5987623760601082
 10
181.8974117364095662
 20
95.3593500709425825
 10
146.0951228844665195
 20
82.3283826102345131
 10
152.6106066148203979
 20
64.4272381842630466
 10
81.006028910934134
 20
38.3653032628472417
 10
29.2105388817894536
 20
14.2126696043662335
 10
21.1596609956291601
 20
31.4778329474144627
 10
38.4248243386774035
 20
39.5287108335747135
 10
30.3739464525173375
 20
56.7938741766224453
 10
47.6391097955650409
 20
64.8447520627836127
 10
55.6899876817256754
 20
47.5795887197348648
 10
65.8001003601250147
 20
52.2940116864824276
 10
45.9935217765324396
 20
106.712139101556744
 10
54.9440939895183575
 20
109.9698809667328874
 10
41.9131265288102881
 20
145.7721698186763319
 10
149.3199930846396626
 20
184.8650722008003697
 10
181.8974117364095093
 20
95.3593500709426678
 10
219.4185871454692176
 20
88.7433545211270882
  0
LWPOLYLINE
  5
1EF
100
AcDbEntity
  8
TopCover
 62
256
370
-1
 48
1.0
  6
BYLAYER
100
AcDbPolyline
 90
19
 70
1
 10
256.0474198806568324
 20
71.3875737349563906
 10
284.6224198806570485
 20
120.8809255612370066
 10
268.1246359385635287
 20
130.405925561237126
 10
258.5996359385634946
 20
113.9081416191434641
 10
242.1018519964700033
 20
123.4331416191433277
 10
275.097419880656787
 20
142.483141619144277
 10
284.6224198806567642
 20
125.985357677050672
 10
350.6135556490252725
 20
164.0853576770471705
 10
402.4090456781759144
 20
188.2379913355312056
 10
394.3581677920156494
 20
205.50315467857925
 10
377.0930044489672923
 20
197.4522767924193829
 10
369.0421265628066863
 20
214.7174401354677684
 10
373.3584173985689176
 20
216.7301596070075789
 10
357.2566616262484445
 20
251.2604862931038099
 10
329.6991333008073752
 20
238.410199795127852
 10
309.9613395911247835
 20
272.5970613296116198
 10
194.4768519964695486
 20
205.9220613296121201
 10
242.1018519964689801
 20
123.4331416191438962
 10
223.0518519964697646
 20
90.4375737349564872
  0
LWPOLYLINE
  5
1F0
100
AcDbEntity
  8
Support
 62
256
370
-1
 48
1.0
  6
BYLAYER
100
AcDbPolyline
 90
19
 70
1
 10
256.0474198806568324
 20
71.3875737349563906
 10
284.6224198806570485
 20
120.8809255612370066
 10
268.1246359385635287
 20
130.405925561237126
 10
258.5996359385634946
 20
113.9081416191434641
 10
242.1018519964700033
 20
123.4331416191433277
 10
275.097419880656787
 20
142.483141619144277
 10
284.6224198806567642
 20
125.985357677050672
 10
350.6135556490252725
 20
164.0853576770471705
 10
402.4090456781759144
 20
188.2379913355312056
 10
394.3581677920156494
 20
205.50315467857925
 10
377.0930044489672923
 20
197.4522767924193829
 10
369.0421265628066863
 20
214.7174401354677684
 10
373.3584173985689176
 20
216.7301596070075789
 10
357.2566616262484445
 20
251.2604862931038099
 10
329.6991333008073752
 20
238.410199795127852
 10
309.9613395911247835
 20
272.5970613296116198
 10
194.4768519964695486
 20
205.9220613296121201
 10
242.1018519964689801
 20
123.4331416191438962
 10
223.0518519964697646
 20
90.4375737349564872
  0
INSERT
  5
1F1
100
AcDbEntity
  8
Base_Left
 62
256
370
-1
 48
1.0
  6
BYLAYER
100
AcDbMInsertBlock
  2
Key_1.0u_Base
 10
63.5958278032890121
 20
136.0883481681170792
 30
0.0
 50
-25.0
 70
4
 71
1
 44
19.0500000000000007
 45
19.0500000000000007
  0
INSERT
  5
1F2
100
AcDbEntity
  8
Base_Left
 62
256
370
-1
 48
1.0
  6
BYLAYER
100
AcDbMInsertBlock
  2
Key_1.0u_Base
 10
9.8923945253742431
 20
155.6347993591790839
 30
0.0
 50
-20.0
 70
3
 71
1
 44
19.0500000000000007
 45
19.0500000000000007
  0
INSERT
  5
1F3
100
AcDbEntity
  8
Base_Left
 62
256
370
-1
 48
1.0
  6
BYLAYER
100
AcDbBlockReference
  2
Key_1.0u_Base
 10
34.3090226816998864
 20
167.0204600547967857
 30
0.0
 50
-20.0
  0
INSERT
  5
1F4
100
AcDbEntity
  8
Base_Left
 62
256
370
-1
 48
1.0
  6
BYLAYER
100
AcDbMInsertBlock
  2
Key_1.5u_Base
 10
63.0141240179252833
 20
157.3789504542454836
 30
0.0
 50
-25.0
 70
1
 71
3
 44
0.0
 45
19.0500000000000007
  0
INSERT
  5
1F5
100
AcDbEntity
  8
Base_Left
 62
256
370
-1
 48
1.0
  6
BYLAYER
100
AcDbMInsertBlock
  2
Key_1.0u_Base
 10
88.9118690324975347
 20
145.3026336250049724
 30
0.0
 50
-25.0
 70
5
 71
5
 44
19.0500000000000007
 45
19.0500000000000007
  0
INSERT
  5
1F6
100
AcDbEntity
  8
Base_Left
 62
256
370
-1
 48
1.0
  6
BYLAYER
100
AcDbBlockReference
  2
Key_1.0u_Base
 10
133.1013617478404285
 20
98.7998284129338344
 30
0.0
 50
-55.0000000000000071
  0
INSERT
  5
1F7
100
AcDbEntity
  8
Base_Left
 62
256
370
-1
 48
1.0
  6
BYLAYER
100
AcDbMInsertBlock
  2
Key_1.0u_Base
 10
95.7993393479303137
 20
205.1490015403097686
 30
0.0
 50
-25.0
 70
1
 71
2
 44
0.0
 45
19.0500000000000007
  0
INSERT
  5
1F8
100
AcDbEntity
  8
Base_Left
 62
256
370
-1
 48
1.0
  6
BYLAYER
100
AcDbMInsertBlock
  2
Key_2.0u_Base
 10
165.8812550853026551
 20
51.9852890818178679
 30
0.0
 50
35.0
 70
1
 71
2
 44
0.0
 45
19.0500000000000007
  0
INSERT
  5
1F9
100
AcDbEntity
  8
Well_Left
 62
256
370
-1
 48
1.0
  6
BYLAYER
100
AcDbMInsertBlock
  2
Key_1.0u_Well
 10
63.5958278032890121
 20
136.0883481681170792
 30
0.0
 50
-25.0
 70
4
 71
1
 44
19.0500000000000007
 45
19.0500000000000007
  0
INSERT
  5
1FA
100
AcDbEntity
  8
Well_Left
 62
256
370
-1
 48
1.0
  6
BYLAYER
100
AcDbMInsertBlock
  2
Key_1.0u_Well
 10
9.8923945253742431
 20
155.6347993591790839
 30
0.0
 50
-20.0
 70
3
 71
1
 44
19.0500000000000007
 45
19.0500000000000007
  0
INSERT
  5
1FB
100
AcDbEntity
  8
Well_Left
 62
256
370
-1
 48
1.0
  6
BYLAYER
100
AcDbBlockReference
  2
Key_1.0u_Well
 10
34.3090226816998864
 20
167.0204600547967857
 30
0.0
 50
-20.0
  0
INSERT
  5
1FC
100
AcDbEntity
  8
Well_Left
 62
256
370
-1
 48
1.0
  6
BYLAYER
100
AcDbMInsertBlock
  2
Key_1.5u_Well
 10
63.0141240179252833
 20
157.3789504542454836
 30
0.0
 50
-25.0
 70
1
 71
3
 44
0.0
 45
19.0500000000000007
  0
INSERT
  5
1FD
100
AcDbEntity
  8
Well_Left
 62
256
370
-1
 48
1.0
  6
BYLAYER
100
AcDbMInsertBlock
  2
Key_1.0u_Well
 10
88.9118690324975347
 20
145.3026336250049724
 30
0.0
 50
-25.0
 70
5
 71
5
 44
19.0500000000000007
 45
19.0500000000000007
  0
INSERT
  5
1FE
100
AcDbEntity
  8
Well_Left
 62
256
370
-1
 48
1.0
  6
BYLAYER
100
AcDbBlockReference
  2
Key_1.0u_Well
 10
133.1013617478404285
 20
98.7998284129338344
 30
0.0
 50
-55.0000000000000071
  0
INSERT
  5
1FF
100
AcDbEntity
  8
Well_Left
 62
256
370
-1
 48
1.0
  6
BYLAYER
100
AcDbMInsertBlock
  2
Key_1.0u_Well
 10
95.7993393479303137
 20
205.1490015403097686
 30
0.0
 50
-25.0
 70
1
 71
2
 44
0.0
 45
19.0500000000000007
  0
INSERT
  5
200
100
AcDbEntity
  8
Well_Left
 62
256
370
-1
 48
1.0
  6
BYLAYER
100
AcDbMInsertBlock
  2
Key_2.0u_Well
 10
165.8812550853026551
 20
51.9852890818178679
 30
0.0
 50
35.0
 70
1
 71
2
 44
0.0
 45
19.0500000000000007
  0
INSERT
  5
201
100
AcDbEntity
  8
Plate_Right
 62
256
370
-1
 48
1.0
  6
BYLAYER
100
AcDbMInsertBlock
  2
Key_1.0u_Plate
 10
357.9261496537646963
 20
89.5472017325203211
 30
0.0
 50
-15.0
 70
1
 71
3
 44
19.0500000000000007
 45
19.0500000000000007
  0
INSERT
  5
202
100
AcDbEntity
  8
Plate_Right
 62
256
370
-1
 48
1.0
  6
BYLAYER
100
AcDbMInsertBlock
  2
Key_1.0u_Plate
 10
334.5947598537549652
 20
76.0768175509168429
 30
0.0
 50
-15.0
 70
1
 71
4
 44
19.0500000000000007
 45
19.0500000000000007
  0
INSERT
  5
203
100
AcDbEntity
  8
Plate_Right
 62
256
370
-1
 48
1.0
  6
BYLAYER
100
AcDbBlockReference
  2
Key_1.0u_Plate
 10
352.9956468445617475
 20
71.1463147417138231
 30
0.0
 50
-15.0
  0
INSERT
  5
204
100
AcDbEntity
  8
Plate_Right
 62
256
370
-1
 48
1.0
  6
BYLAYER
100
AcDbBlockReference
  2
Key_Enter_Plate
 10
374.0667531128353289
 20
63.6313458816895121
 30
0.0
 50
-20.0
  0
INSERT
  5
205
100
AcDbEntity
  8
Plate_Right
 62
256
370
-1
 48
1.0
  6
BYLAYER
100
AcDbBlockReference
  2
Key_2.0u_Plate
 10
329.6642570445519596
 20
57.6759305601100607
 30
0.0
 50
-15.0
  0
INSERT
  5
206
100
AcDbEntity
  8
Plate_Right
 62
256
370
-1
 48
1.0
  6
BYLAYER
100
AcDbMInsertBlock
  2
Key_1.0u_Plate
 10
269.5310932629287777
 20
54.0665519969127359
 30
0.0
 50
-15.0
 70
4
 71
1
 44
19.0500000000000007
 45
19.0500000000000007
  0
INSERT
  5
207
100
AcDbEntity
  8
Plate_Right
 62
256
370
-1
 48
1.0
  6
BYLAYER
100
AcDbMInsertBlock
  2
Key_1.0u_Plate
 10
343.1346412261556225
 20
34.3445407601000881
 30
0.0
 50
-20.0
 70
3
 71
1
 44
19.0500000000000007
 45
19.0500000000000007
  0
INSERT
  5
208
100
AcDbEntity
  8
Plate_Right
 62
256
370
-1
 48
1.0
  6
BYLAYER
100
AcDbBlockReference
  2
Key_1.0u_Plate
 10
367.5512693824813937
 20
45.7302014557181735
 30
0.0
 50
-20.0
  0
INSERT
  5
209
100
AcDbEntity
  8
Plate_Right
 62
256
370
-1
 48
1.0
  6
BYLAYER
100
AcDbMInsertBlock
  2
Key_1.0u_Plate
 10
237.6598220905182757
 20
82.3284446061255579
 30
0.0
 50
-15.0
 70
5
 71
5
 44
19.0500000000000007
 45
19.0500000000000007
  0
INSERT
  5
20A
100
AcDbEntity
  8
Plate_Right
 62
256
370
-1
 48
1.0
  6
BYLAYER
100
AcDbBlockReference
  2
Key_1.0u_Plate
 10
247.5208277089240596
 20
45.5266706245112971
 30
0.0
 50
15.0
  0
INSERT
  5
20B
100
AcDbEntity
  8
Plate_Right
 62
256
370
-1
 48
1.0
  6
BYLAYER
100
AcDbMInsertBlock
  2
Key_2.0u_Plate
 10
200.8580481089044838
 20
72.4674389877188503
 30
0.0
 50
-75.0
 70
1
 71
2
 44
0.0
 45
19.0500000000000007
  0
INSERT
  5
20C
100
AcDbEntity
  8
Well_Right
 62
256
370
-1
 48
1.0
  6
BYLAYER
100
AcDbMInsertBlock
  2
Key_1.0u_Well
 10
357.9261496537646963
 20
89.5472017325203211
 30
0.0
 50
-15.0
 70
1
 71
3
 44
19.0500000000000007
 45
19.0500000000000007
  0
INSERT
  5
20D
100
AcDbEntity
  8
Well_Right
 62
256
370
-1
 48
1.0
  6
BYLAYER
100
AcDbMInsertBlock
  2
Key_1.0u_Well
 10
334.5947598537549652
 20
76.0768175509168429
 30
0.0
 50
-15.0
 70
1
 71
4
 44
19.0500000000000007
 45
19.0500000000000007
  0
INSERT
  5
20E
100
AcDbEntity
  8
Well_Right
 62
256
370
-1
 48
1.0
  6
BYLAYER
100
AcDbBlockReference
  2
Key_1.0u_Well
 10
352.9956468445617475
 20
71.1463147417138231
 30
0.0
 50
-15.0
  0
INSERT
  5
20F
100
AcDbEntity
  8
Well_Right
 62
256
370
-1
 48
1.0
  6
BYLAYER
100
AcDbBlockReference
  2
Key_Enter_Well
 10
374.0667531128353289
 20
63.6313458816895121
 30
0.0
 50
-20.0
  0
INSERT
  5
210
100
AcDbEntity
  8
Well_Right
 62
256
370
-1
 48
1.0
  6
BYLAYER
100
AcDbBlockReference
  2
Key_2.0u_Well
 10
329.6642570445519596
 20
57.6759305601100607
 30
0.0
 50
-15.0
  0
INSERT
  5
211
100
AcDbEntity
  8
Well_Right
 62
256
370
-1
 48
1.0
  6
BYLAYER
100
AcDbMInsertBlock
  2
Key_1.0u_Well
 10
269.5310932629287777
 20
54.0665519969127359
 30
0.0
 50
-15.0
 70
4
 71
1
 44
19.0500000000000007
 45
19.0500000000000007
  0
INSERT
  5
212
100
AcDbEntity
  8
Well_Right
 62
256
370
-1
 48
1.0
  6
BYLAYER
100
AcDbMInsertBlock
  2
Key_1.0u_Well
 10
343.1346412261556225
 20
34.3445407601000881
 30
0.0
 50
-20.0
 70
3
 71
1
 44
19.0500000000000007
 45
19.0500000000000007
  0
INSERT
  5
213
100
AcDbEntity
  8
Well_Right
 62
256
370
-1
 48
1.0
  6
BYLAYER
100
AcDbBlockReference
  2
Key_1.0u_Well
 10
367.5512693824813937
 20
45.7302014557181735
 30
0.0
 50
-20.0
  0
INSERT
  5
214
100
AcDbEntity
  8
Well_Right
 62
256
370
-1
 48
1.0
  6
BYLAYER
100
AcDbMInsertBlock
  2
Key_1.0u_Well
 10
237.6598220905182757
 20
82.3284446061255579
 30
0.0
 50
-15.0
 70
5
 71
5
 44
19.0500000000000007
 45
19.0500000000000007
  0
INSERT
  5
215
100
AcDbEntity
  8
Well_Right
 62
256
370
-1
 48
1.0
  6
BYLAYER
100
AcDbBlockReference
  2
Key_1.0u_Well
 10
247.5208277089240596
 20
45.5266706245112971
 30
0.0
 50
15.0
  0
INSERT
  5
216
100
AcDbEntity
  8
Well_Right
 62
256
370
-1
 48
1.0
  6
BYLAYER
100
AcDbMInsertBlock
  2
Key_2.0u_Well
 10
200.8580481089044838
 20
72.4674389877188503
 30
0.0
 50
-75.0
 70
1
 71
2
 44
0.0
 45
19.0500000000000007
  0
INSERT
  5
217
100
AcDbEntity
  8
Plate_Left
 62
256
370
-1
 48
1.0
  6
BYLAYER
100
AcDbMInsertBlock
  2
Key_1.0u_Plate
 10
63.5958278032890121
 20
136.0883481681170792
 30
0.0
 50
-25.0
 70
4
 71
1
 44
19.0500000000000007
 45
19.0500000000000007
  0
INSERT
  5
218
100
AcDbEntity
  8
Plate_Left
 62
256
370
-1
 48
1.0
  6
BYLAYER
100
AcDbMInsertBlock
  2
Key_1.0u_Plate
 10
9.8923945253742431
 20
155.6347993591790839
 30
0.0
 50
-20.0
 70
3
 71
1
 44
19.0500000000000007
 45
19.0500000000000007
  0
INSERT
  5
219
100
AcDbEntity
  8
Plate_Left
 62
256
370
-1
 48
1.0
  6
BYLAYER
100
AcDbBlockReference
  2
Key_1.0u_Plate
 10
34.3090226816998864
 20
167.0204600547967857
 30
0.0
 50
-20.0
  0
INSERT
  5
21A
100
AcDbEntity
  8
Plate_Left
 62
256
370
-1
 48
1.0
  6
BYLAYER
100
AcDbMInsertBlock
  2
Key_1.5u_Plate
 10
63.0141240179252833
 20
157.3789504542454836
 30
0.0
 50
-25.0
 70
1
 71
3
 44
0.0
 45
19.0500000000000007
  0
INSERT
  5
21B
100
AcDbEntity
  8
Plate_Left
 62
256
370
-1
 48
1.0
  6
BYLAYER
100
AcDbMInsertBlock
  2
Key_1.0u_Plate
 10
88.9118690324975347
 20
145.3026336250049724
 30
0.0
 50
-25.0
 70
5
 71
5
 44
19.0500000000000007
 45
19.0500000000000007
  0
INSERT
  5
21C
100
AcDbEntity
  8
Plate_Left
 62
256
370
-1
 48
1.0
  6
BYLAYER
100
AcDbBlockReference
  2
Key_1.0u_Plate
 10
133.1013617478404285
 20
98.7998284129338344
 30
0.0
 50
-55.0000000000000071
  0
INSERT
  5
21D
100
AcDbEntity
  8
Plate_Left
 62
256
370
-1
 48
1.0
  6
BYLAYER
100
AcDbMInsertBlock
  2
Key_1.0u_Plate
 10
95.7993393479303137
 20
205.1490015403097686
 30
0.0
 50
-25.0
 70
1
 71
2
 44
0.0
 45
19.0500000000000007
  0
INSERT
  5
21E
100
AcDbEntity
  8
Plate_Left
 62
256
370
-1
 48
1.0
  6
BYLAYER
100
AcDbMInsertBlock
  2
Key_2.0u_Plate
 10
165.8812550853026551
 20
51.9852890818178679
 30
0.0
 50
35.0
 70
1
 71
2
 44
0.0
 45
19.0500000000000007
  0
INSERT
  5
21F
100
AcDbEntity
  8
Base_Right
 62
256
370
-1
 48
1.0
  6
BYLAYER
100
AcDbMInsertBlock
  2
Key_1.0u_Base
 10
357.9261496537646963
 20
89.5472017325203211
 30
0.0
 50
-15.0
 70
1
 71
3
 44
19.0500000000000007
 45
19.0500000000000007
  0
INSERT
  5
220
100
AcDbEntity
  8
Base_Right
 62
256
370
-1
 48
1.0
  6
BYLAYER
100
AcDbMInsertBlock
  2
Key_1.0u_Base
 10
334.5947598537549652
 20
76.0768175509168429
 30
0.0
 50
-15.0
 70
1
 71
4
 44
19.0500000000000007
 45
19.0500000000000007
  0
INSERT
  5
221
100
AcDbEntity
  8
Base_Right
 62
256
370
-1
 48
1.0
  6
BYLAYER
100
AcDbBlockReference
  2
Key_1.0u_Base
 10
352.9956468445617475
 20
71.1463147417138231
 30
0.0
 50
-15.0
  0
INSERT
  5
222
100
AcDbEntity
  8
Base_Right
 62
256
370
-1
 48
1.0
  6
BYLAYER
100
AcDbBlockReference
  2
Key_Enter_Base
 10
374.0667531128353289
 20
63.6313458816895121
 30
0.0
 50
-20.0
  0
INSERT
  5
223
100
AcDbEntity
  8
Base_Right
 62
256
370
-1
 48
1.0
  6
BYLAYER
100
AcDbBlockReference
  2
Key_2.0u_Base
 10
329.6642570445519596
 20
57.6759305601100607
 30
0.0
 50
-15.0
  0
INSERT
  5
224
100
AcDbEntity
  8
Base_Right
 62
256
370
-1
 48
1.0
  6
BYLAYER
100
AcDbMInsertBlock
  2
Key_1.0u_Base
 10
269.5310932629287777
 20
54.0665519969127359
 30
0.0
 50
-15.0
 70
4
 71
1
 44
19.0500000000000007
 45
19.0500000000000007
  0
INSERT
  5
225
100
AcDbEntity
  8
Base_Right
 62
256
370
-1
 48
1.0
  6
BYLAYER
100
AcDbMInsertBlock
  2
Key_1.0u_Base
 10
343.1346412261556225
 20
34.3445407601000881
 30
0.0
 50
-20.0
 70
3
 71
1
 44
19.0500000000000007
 45
19.0500000000000007
  0
INSERT
  5
226
100
AcDbEntity
  8
Base_Right
 62
256
370
-1
 48
1.0
  6
BYLAYER
100
AcDbBlockReference
  2
Key_1.0u_Base
 10
367.5512693824813937
 20
45.7302014557181735
 30
0.0
 50
-20.0
  0
INSERT
  5
227
100
AcDbEntity
  8
Base_Right
 62
256
370
-1
 48
1.0
  6
BYLAYER
100
AcDbMInsertBlock
  2
Key_1.0u_Base
 10
237.6598220905182757
 20
82.3284446061255579
 30
0.0
 50
-15.0
 70
5
 71
5
 44
19.0500000000000007
 45
19.0500000000000007
  0
INSERT
  5
228
100
AcDbEntity
  8
Base_Right
 62
256
370
-1
 48
1.0
  6
BYLAYER
100
AcDbBlockReference
  2
Key_1.0u_Base
 10
247.5208277089240596
 20
45.5266706245112971
 30
0.0
 50
15.0
  0
INSERT
  5
229
100
AcDbEntity
  8
Base_Right
 62
256
370
-1
 48
1.0
  6
BYLAYER
100
AcDbMInsertBlock
  2
Key_2.0u_Base
 10
200.8580481089044838
 20
72.4674389877188503
 30
0.0
 50
-75.0
 70
1
 71
2
 44
0.0
 45
19.0500000000000007
  0
LWPOLYLINE
  5
22A
100
AcDbEntity
  8
Outline
 62
256
370
-1
 48
1.0
  6
BYLAYER
100
AcDbPolyline
 90
39
 70
7168
 10
224.3771241196627102
 20
76.5532217591300679
 10
219.0450651601500454
 20
46.3136127935557695
 42
-0.4142135622527783
 10
215.2800833856746863
 20
43.677344174998403
 10
149.3756241477733511
 20
55.298078487641618
 42
0.1423409610867742
 10
147.5725545922372248
 20
55.1021313359735601
 10
28.6962690068069151
 20
6.0940194819326834
 42
-0.4010067133932483
 10
24.5120557208192196
 20
7.7251881768970323
 10
13.2306880048449589
 20
31.9181593166169613
 42
-0.4142135623730946
 10
14.8026789620567989
 20
36.2371689751433408
 10
26.1768416893668245
 20
41.5410281599891533
 42
0.4142135623730953
 10
27.7488326465786628
 20
45.8600378185155364
 10
22.4449734617332126
 20
57.2342005458247911
 42
-0.4142135623730794
 10
24.0169644189449087
 20
61.5532102043511031
 10
47.7890004034263711
 20
72.6382926338524868
 42
0.3888787318529746
 10
49.4694920703231418
 20
76.6953584075299517
 10
37.0215324277511328
 20
110.8958464437789928
 10
45.9721046407371148
 20
114.1535883089551504
 10
34.0527026458376341
 20
146.9018761433438272
 42
-0.4142135623730943
 10
35.9951381975834366
 20
151.0674426267064518
 10
169.5827278275956189
 20
199.6893489193993219
 42
0.0436609429085125
 10
170.0961623617871794
 20
199.9287673746541714
 10
309.7089348553162154
 20
280.53423915610324
 42
-0.4142135623730976
 10
314.1485174176156647
 20
279.3446565938038475
 10
331.0651138604592916
 20
250.0442520636598545
 42
0.3888787318529926
 10
335.2532057734159707
 20
248.7237517557907438
 10
357.6969879954506837
 20
259.1894592838886524
 42
-0.4142135623730951
 10
362.015997653977081
 20
257.6174683266768284
 10
383.4216126111435869
 20
211.7129789132699784
 42
0.4142135623730951
 10
387.7406222696699842
 20
210.1409879560581544
 10
394.7984941612179455
 20
213.4321276693637799
 42
-0.4142135623730964
 10
399.1175038197443428
 20
211.860136712151899
 10
410.3988715357186834
 20
187.6671655724318271
 42
-0.4010067133932567
 10
408.9588587937670354
 20
183.4133772094447181
 10
295.0042635803533244
 20
123.8506662920118657
 42
0.1423409610867748
 10
293.6951685839713377
 20
122.5953872796820292
 10
260.2345977071478842
 20
64.6399784707647029
 42
-0.4142135623730932
 10
255.7950151448484917
 20
63.4503959084653104
 10
229.2027493167205421
 20
78.8034477426971449
 42
0.5205670504212165
 10
224.377124119662767
 20
76.5532217591300679
  0
LWPOLYLINE
  5
22B
100
AcDbEntity
  8
Support
 62
256
370
-1
 48
1.0
  6
BYLAYER
100
AcDbPolyline
 90
39
 70
7168
 10
224.3771241196627102
 20
76.5532217591300679
 10
219.0450651601500454
 20
46.3136127935557695
 42
-0.4142135622527783
 10
215.2800833856746863
 20
43.677344174998403
 10
149.3756241477733511
 20
55.298078487641618
 42
0.1423409610867742
 10
147.5725545922372248
 20
55.1021313359735601
 10
28.6962690068069151
 20
6.0940194819326834
 42
-0.4010067133932483
 10
24.5120557208192196
 20
7.7251881768970323
 10
13.2306880048449589
 20
31.9181593166169613
 42
-0.4142135623730946
 10
14.8026789620567989
 20
36.2371689751433408
 10
26.1768416893668245
 20
41.5410281599891533
 42
0.4142135623730953
 10
27.7488326465786628
 20
45.8600378185155364
 10
22.4449734617332126
 20
57.2342005458247911
 42
-0.4142135623730794
 10
24.0169644189449087
 20
61.5532102043511031
 10
47.7890004034263711
 20
72.6382926338524868
 42
0.3888787318529746
 10
49.4694920703231418
 20
76.6953584075299517
 10
37.0215324277511328
 20
110.8958464437789928
 10
45.9721046407371148
 20
114.1535883089551504
 10
34.0527026458376341
 20
146.9018761433438272
 42
-0.4142135623730943
 10
35.9951381975834366
 20
151.0674426267064518
 10
169.5827278275956189
 20
199.6893489193993219
 42
0.0436609429085125
 10
170.0961623617871794
 20
199.9287673746541714
 10
309.7089348553162154
 20
280.53423915610324
 42
-0.4142135623730976
 10
314.1485174176156647
 20
279.3446565938038475
 10
331.0651138604592916
 20
250.0442520636598545
 42
0.3888787318529926
 10
335.2532057734159707
 20
248.7237517557907438
 10
357.6969879954506837
 20
259.1894592838886524
 42
-0.4142135623730951
 10
362.015997653977081
 20
257.6174683266768284
 10
383.4216126111435869
 20
211.7129789132699784
 42
0.4142135623730951
 10
387.7406222696699842
 20
210.1409879560581544
 10
394.7984941612179455
 20
213.4321276693637799
 42
-0.4142135623730964
 10
399.1175038197443428
 20
211.860136712151899
 10
410.3988715357186834
 20
187.6671655724318271
 42
-0.4010067133932567
 10
408.9588587937670354
 20
183.4133772094447181
 10
295.0042635803533244
 20
123.8506662920118657
 42
0.1423409610867748
 10
293.6951685839713377
 20
122.5953872796820292
 10
260.2345977071478842
 20
64.6399784707647029
 42
-0.4142135623730932
 10
255.7950151448484917
 20
63.4503959084653104
 10
229.2027493167205421
 20
78.8034477426971449
 42
0.5205670504212165
 10
224.377124119662767
 20
76.5532217591300679
  0
CIRCLE
  5
22C
100
AcDbEntity
  8
Outline
 62
256
370
-1
 48
1.0
  6
BYLAYER
100
AcDbCircle
 10
311.3339348553161585
 20
277.7196565938037907
 30
0.0
 40
1.5
  0
CIRCLE
  5
22D
100
AcDbEntity
  8
Support
 62
256
370
-1
 48
1.0
  6
BYLAYER
100
AcDbCircle
 10
311.3339348553161585
 20
277.7196565938037907
 30
0.0
 40
1.5
  0
CIRCLE
  5
22E
100
AcDbEntity
  8
Outline
 62
256
370
-1
 48
1.0
  6
BYLAYER
100
AcDbCircle
 10
359.0704973461079135
 20
256.2439589760195418
 30
0.0
 40
1.5
  0
CIRCLE
  5
22F
100
AcDbEntity
  8
Support
 62
256
370
-1
 48
1.0
  6
BYLAYER
100
AcDbCircle
 10
359.0704973461079135
 20
256.2439589760195418
 30
0.0
 40
1.5
  0
CIRCLE
  5
230
100
AcDbEntity
  8
Outline
 62
256
370
-1
 48
1.0
  6
BYLAYER
100
AcDbCircle
 10
396.172003511875289
 20
210.4866273614946692
 30
0.0
 40
1.5
  0
CIRCLE
  5
231
100
AcDbEntity
  8
Support
 62
256
370
-1
 48
1.0
  6
BYLAYER
100
AcDbCircle
 10
396.172003511875289
 20
210.4866273614946692
 30
0.0
 40
1.5
  0
CIRCLE
  5
232
100
AcDbEntity
  8
Outline
 62
256
370
-1
 48
1.0
  6
BYLAYER
100
AcDbCircle
 10
407.4533712278495727
 20
186.2936562217745973
 30
0.0
 40
1.5
  0
CIRCLE
  5
233
100
AcDbEntity
  8
Support
 62
256
370
-1
 48
1.0
  6
BYLAYER
100
AcDbCircle
 10
407.4533712278495727
 20
186.2936562217745973
 30
0.0
 40
1.5
  0
CIRCLE
  5
234
100
AcDbEntity
  8
Outline
 62
256
370
-1
 48
1.0
  6
BYLAYER
100
AcDbCircle
 10
257.4200151448484348
 20
66.2649784707647314
 30
0.0
 40
1.5
  0
CIRCLE
  5
235
100
AcDbEntity
  8
Support
 62
256
370
-1
 48
1.0
  6
BYLAYER
100
AcDbCircle
 10
257.4200151448484348
 20
66.2649784707647314
 30
0.0
 40
1.5
  0
CIRCLE
  5
236
100
AcDbEntity
  8
Outline
 62
256
370
-1
 48
1.0
  6
BYLAYER
100
AcDbCircle
 10
215.8444399630922419
 20
46.8779693722880779
 30
0.0
 40
1.5
  0
CIRCLE
  5
237
100
AcDbEntity
  8
Support
 62
256
370
-1
 48
1.0
  6
BYLAYER
100
AcDbCircle
 10
215.8444399630922419
 20
46.8779693722880779
 30
0.0
 40
1.5
  0
CIRCLE
  5
238
100
AcDbEntity
  8
Outline
 62
256
370
-1
 48
1.0
  6
BYLAYER
100
AcDbCircle
 10
27.4575560286883302
 20
9.0986975275543021
 30
0.0
 40
1.5
  0
CIRCLE
  5
239
100
AcDbEntity
  8
Support
 62
256
370
-1
 48
1.0
  6
BYLAYER
100
AcDbCircle
 10
27.4575560286883302
 20
9.0986975275543021
 30
0.0
 40
1.5
  0
CIRCLE
  5
23A
100
AcDbEntity
  8
Outline
 62
256
370
-1
 48
1.0
  6
BYLAYER
100
AcDbCircle
 10
16.1761883127140678
 20
33.2916686672742372
 30
0.0
 40
1.5
  0
CIRCLE
  5
23B
100
AcDbEntity
  8
Support
 62
256
370
-1
 48
1.0
  6
BYLAYER
100
AcDbCircle
 10
16.1761883127140678
 20
33.2916686672742372
 30
0.0
 40
1.5
  0
CIRCLE
  5
23C
100
AcDbEntity
  8
Outline
 62
256
370
-1
 48
1.0
  6
BYLAYER
100
AcDbCircle
 10
25.3904737696023233
 20
58.6077098964820706
 30
0.0
 40
1.5
  0
CIRCLE
  5
23D
100
AcDbEntity
  8
Support
 62
256
370
-1
 48
1.0
  6
BYLAYER
100
AcDbCircle
 10
25.3904737696023233
 20
58.6077098964820706
 30
0.0
 40
1.5
  0
CIRCLE
  5
23E
100
AcDbEntity
  8
Outline
 62
256
370
-1
 48
1.0
  6
BYLAYER
100
AcDbCircle
 10
37.1067036633918548
 20
148.0134416091522382
 30
0.0
 40
1.5
  0
CIRCLE
  5
23F
100
AcDbEntity
  8
Support
 62
256
370
-1
 48
1.0
  6
BYLAYER
100
AcDbCircle
 10
37.1067036633918548
 20
148.0134416091522382
 30
0.0
 40
1.5
  0
INSERT
  5
240
100
AcDbEntity
  8
Support
 62
256
370
-1
 48
1.0
  6
BYLAYER
100
AcDbMInsertBlock
  2
Key_Support
 10
92.3916896065518074
 20
62.7819314191725724
 30
0.0
 50
20.0
 70
5
 71
5
 44
19.0500000000000007
 45
19.0500000000000007
  0
INSERT
  5
241
100
AcDbEntity
  8
Support
 62
256
370
-1
 48
1.0
  6
BYLAYER
100
AcDbMInsertBlock
  2
Key_Support
 10
258.5996359385633809
 20
132.9581416191437881
 30
0.0
 50
30.0
 70
5
 71
5
 44
19.0500000000000007
 45
19.0500000000000007
  0
INSERT
  5
242
100
AcDbEntity
  8
Support
 62
256
370
-1
 48
1.0
  6
BYLAYER
100
AcDbBlockReference
  2
Key_Support
 10
322.0385556490313661
 20
213.5787095033306855
 30
0.0
  0
INSERT
  5
243
100
AcDbEntity
  8
Support
 62
256
370
-1
 48
1.0
  6
BYLAYER
100
AcDbMInsertBlock
  2
Key_Support_D
 10
98.9071733369058279
 20
44.8807869932010419
 30
0.0
 50
20.0
 70
3
 71
1
 44
19.0500000000000007
 45
19.0500000000000007
  0
INSERT
  5
244
100
AcDbEntity
  8
Support
 62
256
370
-1
 48
1.0
  6
BYLAYER
100
AcDbMInsertBlock
  2
Key_Support_D
 10
46.4757022248376899
 20
22.2635474905263635
 30
0.0
 50
25.0
 70
2
 71
1
 44
19.0500000000000007
 45
19.0500000000000007
  0
INSERT
  5
245
100
AcDbEntity
  8
Support
 62
256
370
-1
 48
1.0
  6
BYLAYER
100
AcDbMInsertBlock
  2
Key_Support_D
 10
301.1202038227503408
 20
135.5103576770506777
 30
0.0
 50
30.0
 70
3
 71
1
 44
19.0500000000000007
 45
19.0500000000000007
  0
ENDSEC
  0
SECTION
  2
OBJECTS
  0
DICTIONARY
  5
C
100
AcDbDictionary
280
0
281
1
  3
ACAD_GROUP
350
D
  3
ACAD_LAYOUT
350
1A
  3
ACAD_MLINESTYLE
350
17
  3
ACAD_PLOTSETTINGS
350
19
  3
ACAD_PLOTSTYLENAME
350
E
  3
AcDbVariableDictionary
350
246
  3
QCAD_OBJECTS
350
247
  0
DICTIONARY
  5
D
100
AcDbDictionary
280
0
281
1
  0
ACDBDICTIONARYWDFLT
  5
E
100
AcDbDictionary
281
1
  3
Normal
350
F
100
AcDbDictionaryWithDefault
340
F
  0
ACDBPLACEHOLDER
  5
F
  0
DICTIONARY
  5
17
100
AcDbDictionary
280
0
281
1
  3
Standard
350
18
  0
MLINESTYLE
  5
18
100
AcDbMlineStyle
  2
STANDARD
 70
0
  3

 62
256
 51
90.0
 52
90.0
 71
2
 49
0.5
 62
256
  6
BYLAYER
 49
-0.5
 62
256
  6
BYLAYER
  0
DICTIONARY
  5
19
100
AcDbDictionary
280
0
281
1
  0
DICTIONARY
  5
1A
100
AcDbDictionary
281
1
  3
Layout1
350
1E
  3
Layout2
350
26
  3
Model
350
22
  0
LAYOUT
  5
1E
100
AcDbPlotSettings
  1

  2
none_device
  4

  6

 40
0.0
 41
0.0
 42
0.0
 43
0.0
 44
0.0
 45
0.0
 46
0.0
 47
0.0
 48
0.0
 49
0.0
140
0.0
141
0.0
142
1.0
143
1.0
 70
688
 72
0
 73
0
 74
5
  7

 75
16
147
1.0
148
0.0
149
0.0
100
AcDbLayout
  1
Layout1
 70
1
 71
1
 10
0.0
 20
0.0
 11
420.0
 21
297.0
 12
0.0
 22
0.0
 32
0.0
 14
100000000000000000000.0
 24
100000000000000000000.0
 34
100000000000000000000.0
 15
-100000000000000000000.0
 25
-100000000000000000000.0
 35
-100000000000000000000.0
146
0.0
 13
0.0
 23
0.0
 33
0.0
 16
1.0
 26
0.0
 36
0.0
 17
0.0
 27
1.0
 37
0.0
 76
0
330
1B
  0
LAYOUT
  5
22
100
AcDbPlotSettings
  1

  2
none_device
  4

  6

 40
0.0
 41
0.0
 42
0.0
 43
0.0
 44
0.0
 45
0.0
 46
0.0
 47
0.0
 48
0.0
 49
0.0
140
0.0
141
0.0
142
1.0
143
1.0
 70
1712
 72
0
 73
0
 74
0
  7

 75
0
147
1.0
148
0.0
149
0.0
100
AcDbLayout
  1
Model
 70
1
 71
0
 10
0.0
 20
0.0
 11
12.0
 21
9.0
 12
0.0
 22
0.0
 32
0.0
 14
0.0
 24
0.0
 34
0.0
 15
0.0
 25
0.0
 35
0.0
146
0.0
 13
0.0
 23
0.0
 33
0.0
 16
1.0
 26
0.0
 36
0.0
 17
0.0
 27
1.0
 37
0.0
 76
0
330
1F
  0
LAYOUT
  5
26
100
AcDbPlotSettings
  1

  2
none_device
  4

  6

 40
0.0
 41
0.0
 42
0.0
 43
0.0
 44
0.0
 45
0.0
 46
0.0
 47
0.0
 48
0.0
 49
0.0
140
0.0
141
0.0
142
1.0
143
1.0
 70
688
 72
0
 73
0
 74
5
  7

 75
16
147
1.0
148
0.0
149
0.0
100
AcDbLayout
  1
Layout2
 70
1
 71
2
 10
0.0
 20
0.0
 11
12.0
 21
9.0
 12
0.0
 22
0.0
 32
0.0
 14
0.0
 24
0.0
 34
0.0
 15
0.0
 25
0.0
 35
0.0
146
0.0
 13
0.0
 23
0.0
 33
0.0
 16
1.0
 26
0.0
 36
0.0
 17
0.0
 27
1.0
 37
0.0
 76
0
330
23
  0
DICTIONARY
  5
246
100
AcDbDictionary
281
1
  3
DIMASSOC
350
249
  3
HIDETEXT
350
248
  0
DICTIONARYVAR
  5
248
100
DictionaryVariables
280
0
  1
2
  0
DICTIONARYVAR
  5
249
100
DictionaryVariables
280
0
  1
1
  0
DICTIONARY
  5
247
100
AcDbDictionary
281
1
  3
ColorSettings/BackgroundColor
350
24A
  3
ColorSettings/ColorMode
350
24B
  3
DimensionSettings/AngularFormat
350
24C
  3
DimensionSettings/AngularPrecision
350
24D
  3
DimensionSettings/DecimalPoint
350
24E
  3
DimensionSettings/DimensionFont
350
24F
  3
DimensionSettings/KeepProportions
350
250
  3
DimensionSettings/LinearFormat
350
251
  3
DimensionSettings/LinearPrecision
350
252
  3
Grid/DisplayGrid00
350
253
  3
Grid/DisplayGrid01
350
254
  3
Grid/DisplayGrid02
350
255
  3
Grid/DisplayGrid03
350
256
  3
Grid/GridSpacingX00
350
257
  3
Grid/GridSpacingX01
350
258
  3
Grid/GridSpacingX02
350
259
  3
Grid/GridSpacingX03
350
25A
  3
Grid/GridSpacingY00
350
25B
  3
Grid/GridSpacingY01
350
25C
  3
Grid/GridSpacingY02
350
25D
  3
Grid/GridSpacingY03
350
25E
  3
Grid/IsometricGrid00
350
25F
  3
Grid/IsometricGrid01
350
260
  3
Grid/IsometricGrid02
350
261
  3
Grid/IsometricGrid03
350
262
  3
Grid/IsometricProjection00
350
263
  3
Grid/IsometricProjection01
350
264
  3
Grid/IsometricProjection02
350
265
  3
Grid/IsometricProjection03
350
266
  3
Grid/MetaGridSpacingX00
350
267
  3
Grid/MetaGridSpacingX01
350
268
  3
Grid/MetaGridSpacingX02
350
269
  3
Grid/MetaGridSpacingX03
350
26A
  3
Grid/MetaGridSpacingY00
350
26B
  3
Grid/MetaGridSpacingY01
350
26C
  3
Grid/MetaGridSpacingY02
350
26D
  3
Grid/MetaGridSpacingY03
350
26E
  3
MultiPageSettings/Columns
350
26F
  3
MultiPageSettings/GlueMarginsBottom
350
270
  3
MultiPageSettings/GlueMarginsLeft
350
271
  3
MultiPageSettings/GlueMarginsRight
350
272
  3
MultiPageSettings/GlueMarginsTop
350
273
  3
MultiPageSettings/PrintCropMarks
350
274
  3
MultiPageSettings/Rows
350
275
  3
PageSettings/OffsetX
350
276
  3
PageSettings/OffsetY
350
277
  3
PageSettings/PageOrientation
350
278
  3
PageSettings/PaperHeight
350
279
  3
PageSettings/PaperSizeName
350
27A
  3
PageSettings/PaperWidth
350
27B
  3
PageSettings/Scale
350
27C
  3
PageSettings/ShowPaperBorders
350
27D
  3
QCADVersion
350
27E
  3
UnitSettings/PaperUnit
350
27F
  3
ViewportCenter
350
280
  3
ViewportHeight
350
281
  3
ViewportWidth
350
282
  0
XRECORD
  5
24A
330
247
100
AcDbXrecord
280
1
1000
White
  0
XRECORD
  5
24B
330
247
100
AcDbXrecord
280
1
1000
FullColor
  0
XRECORD
  5
24C
330
247
100
AcDbXrecord
280
1
 90
0
  0
XRECORD
  5
24D
330
247
100
AcDbXrecord
280
1
 90
0
  0
XRECORD
  5
24E
330
247
100
AcDbXrecord
280
1
 90
46
  0
XRECORD
  5
24F
330
247
100
AcDbXrecord
280
1
1000
Al Bayan
  0
XRECORD
  5
250
330
247
100
AcDbXrecord
280
1
290
1
  0
XRECORD
  5
251
330
247
100
AcDbXrecord
280
1
 90
2
  0
XRECORD
  5
252
330
247
100
AcDbXrecord
280
1
 90
8
  0
XRECORD
  5
253
330
247
100
AcDbXrecord
280
1
290
1
  0
XRECORD
  5
254
330
247
100
AcDbXrecord
280
1
290
1
  0
XRECORD
  5
255
330
247
100
AcDbXrecord
280
1
290
1
  0
XRECORD
  5
256
330
247
100
AcDbXrecord
280
1
290
1
  0
XRECORD
  5
257
330
247
100
AcDbXrecord
280
1
1000
0.5
  0
XRECORD
  5
258
330
247
100
AcDbXrecord
280
1
1000
auto
  0
XRECORD
  5
259
330
247
100
AcDbXrecord
280
1
1000
auto
  0
XRECORD
  5
25A
330
247
100
AcDbXrecord
280
1
1000
auto
  0
XRECORD
  5
25B
330
247
100
AcDbXrecord
280
1
1000
0.5
  0
XRECORD
  5
25C
330
247
100
AcDbXrecord
280
1
1000
auto
  0
XRECORD
  5
25D
330
247
100
AcDbXrecord
280
1
1000
auto
  0
XRECORD
  5
25E
330
247
100
AcDbXrecord
280
1
1000
auto
  0
XRECORD
  5
25F
330
247
100
AcDbXrecord
280
1
290
0
  0
XRECORD
  5
260
330
247
100
AcDbXrecord
280
1
290
0
  0
XRECORD
  5
261
330
247
100
AcDbXrecord
280
1
290
0
  0
XRECORD
  5
262
330
247
100
AcDbXrecord
280
1
290
0
  0
XRECORD
  5
263
330
247
100
AcDbXrecord
280
1
 90
65537
  0
XRECORD
  5
264
330
247
100
AcDbXrecord
280
1
 90
65537
  0
XRECORD
  5
265
330
247
100
AcDbXrecord
280
1
 90
65537
  0
XRECORD
  5
266
330
247
100
AcDbXrecord
280
1
 90
65537
  0
XRECORD
  5
267
330
247
100
AcDbXrecord
280
1
1000
auto
  0
XRECORD
  5
268
330
247
100
AcDbXrecord
280
1
1000
auto
  0
XRECORD
  5
269
330
247
100
AcDbXrecord
280
1
1000
auto
  0
XRECORD
  5
26A
330
247
100
AcDbXrecord
280
1
1000
auto
  0
XRECORD
  5
26B
330
247
100
AcDbXrecord
280
1
1000
auto
  0
XRECORD
  5
26C
330
247
100
AcDbXrecord
280
1
1000
auto
  0
XRECORD
  5
26D
330
247
100
AcDbXrecord
280
1
1000
auto
  0
XRECORD
  5
26E
330
247
100
AcDbXrecord
280
1
1000
auto
  0
XRECORD
  5
26F
330
247
100
AcDbXrecord
280
1
 90
1
  0
XRECORD
  5
270
330
247
100
AcDbXrecord
280
1
 40
10.0
  0
XRECORD
  5
271
330
247
100
AcDbXrecord
280
1
 40
10.0
  0
XRECORD
  5
272
330
247
100
AcDbXrecord
280
1
 40
10.0
  0
XRECORD
  5
273
330
247
100
AcDbXrecord
280
1
 40
10.0
  0
XRECORD
  5
274
330
247
100
AcDbXrecord
280
1
290
0
  0
XRECORD
  5
275
330
247
100
AcDbXrecord
280
1
 90
1
  0
XRECORD
  5
276
330
247
100
AcDbXrecord
280
1
 40
0.0
  0
XRECORD
  5
277
330
247
100
AcDbXrecord
280
1
 40
0.0
  0
XRECORD
  5
278
330
247
100
AcDbXrecord
280
1
1000
Landscape
  0
XRECORD
  5
279
330
247
100
AcDbXrecord
280
1
1000
420
  0
XRECORD
  5
27A
330
247
100
AcDbXrecord
280
1
1000
ISO A3
  0
XRECORD
  5
27B
330
247
100
AcDbXrecord
280
1
1000
297
  0
XRECORD
  5
27C
330
247
100
AcDbXrecord
280
1
1000
1:1
  0
XRECORD
  5
27D
330
247
100
AcDbXrecord
280
1
290
1
  0
XRECORD
  5
27E
330
247
100
AcDbXrecord
280
1
1000
3.19.1
  0
XRECORD
  5
27F
330
247
100
AcDbXrecord
280
1
 90
4
  0
XRECORD
  5
281
330
247
100
AcDbXrecord
280
1
 40
522.7637809584825845
  0
XRECORD
  5
282
330
247
100
AcDbXrecord
280
1
 40
991.9704707719981798
  0
ENDSEC
  0
EOF
