999
dxflib 3.17.0.0
  0
SECTION
  2
HEADER
  9
$ACADVER
  1
AC1015
  9
$HANDSEED
  5
FFFF
  9
$DIMADEC
 70
0
  9
$DIMASZ
 40
1.5
  9
$DIMAUNIT
 70
0
  9
$DIMAZIN
 70
2
  9
$DIMDEC
 70
8
  9
$DIMDSEP
 70
46
  9
$DIMEXE
 40
0.75
  9
$DIMEXO
 40
0.375
  9
$DIMGAP
 40
0.375
  9
$DIMLUNIT
 70
2
  9
$DIMSCALE
 40
1.0
  9
$DIMTSZ
 40
0.0
  9
$DIMTXT
 40
1.5
  9
$DIMZIN
 70
8
  9
$DWGCODEPAGE
  3
ANSI_1252
  9
$INSUNITS
 70
4
  9
$LTSCALE
 40
1.0
  9
$MAXACTVP
 70
64
  9
$MEASUREMENT
 70
1
  9
$PDMODE
 70
0
  9
$PDSIZE
 40
0.0
  0
ENDSEC
  0
SECTION
  2
TABLES
  0
TABLE
  2
VPORT
  5
8
100
AcDbSymbolTable
 70
1
  0
VPORT
  5
30
100
AcDbSymbolTableRecord
100
AcDbViewportTableRecord
  2
*Active
 70
0
 10
0.0
 20
0.0
 11
1.0
 21
1.0
 12
286.3055555555554861
 22
148.5
 13
0.0
 23
0.0
 14
10.0
 24
10.0
 15
10.0
 25
10.0
 16
0.0
 26
0.0
 36
1.0
 17
0.0
 27
0.0
 37
0.0
 40
297.0
 41
1.92798353909465
 42
50.0
 43
0.0
 44
0.0
 50
0.0
 51
0.0
 71
0
 72
100
 73
1
 74
3
 75
1
 76
1
 77
0
 78
0
281
0
 65
1
110
0.0
120
0.0
130
0.0
111
1.0
121
0.0
131
0.0
112
0.0
122
1.0
132
0.0
 79
0
146
0.0
  0
ENDTAB
  0
TABLE
  2
LTYPE
  5
5
100
AcDbSymbolTable
 70
41
  0
LTYPE
  5
16
100
AcDbSymbolTableRecord
100
AcDbLinetypeTableRecord
  2
Continuous
 70
0
  3
Solid line
 72
65
 73
0
 40
0.0
  0
LTYPE
  5
31
100
AcDbSymbolTableRecord
100
AcDbLinetypeTableRecord
  2
DASHDOTX2
 70
0
  3
Dash dot (2x) ____  .  ____  .  ____  .  ___
 72
65
 73
4
 40
50.7999999999999972
 49
25.3999999999999986
 74
0
 49
-12.6499999999999986
 74
0
 49
0.1
 74
0
 49
-12.6499999999999986
 74
0
  0
LTYPE
  5
32
100
AcDbSymbolTableRecord
100
AcDbLinetypeTableRecord
  2
ACAD_ISO11W100
 70
0
  3
ISO double-dash dot __ __ . __ __ . __ __ . __ _
 72
65
 73
6
 40
33.0
 49
12.0
 74
0
 49
-3.0
 74
0
 49
12.0
 74
0
 49
-2.9500000000000002
 74
0
 49
0.1
 74
0
 49
-2.9500000000000002
 74
0
  0
LTYPE
  5
33
100
AcDbSymbolTableRecord
100
AcDbLinetypeTableRecord
  2
DASHEDX2
 70
0
  3
Dashed (2x) ____  ____  ____  ____  ____  ___
 72
65
 73
2
 40
38.0999999999999943
 49
25.3999999999999986
 74
0
 49
-12.6999999999999993
 74
0
  0
LTYPE
  5
34
100
AcDbSymbolTableRecord
100
AcDbLinetypeTableRecord
  2
ACAD_ISO10W100
 70
0
  3
ISO dash dot __ . __ . __ . __ . __ . __ . __ . 
 72
65
 73
4
 40
18.0
 49
12.0
 74
0
 49
-2.9500000000000002
 74
0
 49
0.1
 74
0
 49
-2.9500000000000002
 74
0
  0
LTYPE
  5
35
100
AcDbSymbolTableRecord
100
AcDbLinetypeTableRecord
  2
BORDER2
 70
0
  3
Border (.5x) __.__.__.__.__.__.__.__.__.__.__.
 72
65
 73
6
 40
22.2250000000000014
 49
6.3499999999999996
 74
0
 49
-3.1749999999999998
 74
0
 49
6.3499999999999996
 74
0
 49
-3.125
 74
0
 49
0.1
 74
0
 49
-3.125
 74
0
  0
LTYPE
  5
36
100
AcDbSymbolTableRecord
100
AcDbLinetypeTableRecord
  2
PHANTOMX2
 70
0
  3
Phantom (2x) ____________    ____    ____   _
 72
65
 73
6
 40
127.0000000000000142
 49
63.5
 74
0
 49
-12.6999999999999993
 74
0
 49
12.6999999999999993
 74
0
 49
-12.6999999999999993
 74
0
 49
12.6999999999999993
 74
0
 49
-12.6999999999999993
 74
0
  0
LTYPE
  5
37
100
AcDbSymbolTableRecord
100
AcDbLinetypeTableRecord
  2
CENTERX2
 70
0
  3
Center (2x) ________  __  ________  __  _____
 72
65
 73
4
 40
101.6000000000000085
 49
63.5
 74
0
 49
-12.6999999999999993
 74
0
 49
12.6999999999999993
 74
0
 49
-12.6999999999999993
 74
0
  0
LTYPE
  5
38
100
AcDbSymbolTableRecord
100
AcDbLinetypeTableRecord
  2
DIVIDE2
 70
0
  3
Divide (.5x) __..__..__..__..__..__..__..__.._
 72
65
 73
6
 40
15.8749999999999982
 49
6.3499999999999996
 74
0
 49
-3.125
 74
0
 49
0.1
 74
0
 49
-3.0750000000000002
 74
0
 49
0.1
 74
0
 49
-3.125
 74
0
  0
LTYPE
  5
39
100
AcDbSymbolTableRecord
100
AcDbLinetypeTableRecord
  2
HIDDEN2
 70
0
  3
Hidden (.5x) _ _ _ _ _ _ _ _ _ _ _ _ _ _ _ _ _ 
 72
65
 73
2
 40
4.7624999999999993
 49
3.1749999999999998
 74
0
 49
-1.5874999999999999
 74
0
  0
LTYPE
  5
3A
100
AcDbSymbolTableRecord
100
AcDbLinetypeTableRecord
  2
BORDERX2
 70
0
  3
Border (2x) ____  ____  .  ____  ____  .  ___
 72
65
 73
6
 40
88.8999999999999773
 49
25.3999999999999986
 74
0
 49
-12.6999999999999993
 74
0
 49
25.3999999999999986
 74
0
 49
-12.6499999999999986
 74
0
 49
0.1
 74
0
 49
-12.6499999999999986
 74
0
  0
LTYPE
  5
3B
100
AcDbSymbolTableRecord
100
AcDbLinetypeTableRecord
  2
DASHDOT2
 70
0
  3
Dash dot (.5x) _._._._._._._._._._._._._._._.
 72
65
 73
4
 40
12.6999999999999993
 49
6.3499999999999996
 74
0
 49
-3.125
 74
0
 49
0.1
 74
0
 49
-3.125
 74
0
  0
LTYPE
  5
3C
100
AcDbSymbolTableRecord
100
AcDbLinetypeTableRecord
  2
CENTER
 70
0
  3
Center ____ _ ____ _ ____ _ ____ _ ____ _ ____
 72
65
 73
4
 40
50.8000000000000043
 49
31.75
 74
0
 49
-6.3499999999999996
 74
0
 49
6.3499999999999996
 74
0
 49
-6.3499999999999996
 74
0
  0
LTYPE
  5
3D
100
AcDbSymbolTableRecord
100
AcDbLinetypeTableRecord
  2
PHANTOM2
 70
0
  3
Phantom (.5x) ___ _ _ ___ _ _ ___ _ _ ___ _ _
 72
65
 73
6
 40
31.7500000000000036
 49
15.875
 74
0
 49
-3.1749999999999998
 74
0
 49
3.1749999999999998
 74
0
 49
-3.1749999999999998
 74
0
 49
3.1749999999999998
 74
0
 49
-3.1749999999999998
 74
0
  0
LTYPE
  5
3E
100
AcDbSymbolTableRecord
100
AcDbLinetypeTableRecord
  2
DIVIDE
 70
0
  3
Divide ____ . . ____ . . ____ . . ____ . . ____
 72
65
 73
6
 40
31.7500000000000036
 49
12.6999999999999993
 74
0
 49
-6.2999999999999998
 74
0
 49
0.1
 74
0
 49
-6.25
 74
0
 49
0.1
 74
0
 49
-6.2999999999999998
 74
0
  0
LTYPE
  5
3F
100
AcDbSymbolTableRecord
100
AcDbLinetypeTableRecord
  2
DASHED
 70
0
  3
Dashed __ __ __ __ __ __ __ __ __ __ __ __ __ _
 72
65
 73
2
 40
19.0499999999999972
 49
12.6999999999999993
 74
0
 49
-6.3499999999999996
 74
0
  0
LTYPE
  5
40
100
AcDbSymbolTableRecord
100
AcDbLinetypeTableRecord
  2
ACAD_ISO09W100
 70
0
  3
ISO long-dash double-short-dash ____ __ __ ____
 72
65
 73
6
 40
45.0
 49
24.0
 74
0
 49
-3.0
 74
0
 49
6.0
 74
0
 49
-3.0
 74
0
 49
6.0
 74
0
 49
-3.0
 74
0
  0
LTYPE
  5
14
100
AcDbSymbolTableRecord
100
AcDbLinetypeTableRecord
  2
BYBLOCK
 70
0
  3

 72
65
 73
0
 40
0.0
  0
LTYPE
  5
41
100
AcDbSymbolTableRecord
100
AcDbLinetypeTableRecord
  2
ACAD_ISO04W100
 70
0
  3
ISO long-dash dot ____ . ____ . ____ . ____ . _
 72
65
 73
4
 40
30.0
 49
24.0
 74
0
 49
-2.9500000000000002
 74
0
 49
0.1
 74
0
 49
-2.9500000000000002
 74
0
  0
LTYPE
  5
42
100
AcDbSymbolTableRecord
100
AcDbLinetypeTableRecord
  2
HIDDENX2
 70
0
  3
Hidden (2x) ____ ____ ____ ____ ____ ____ ____ 
 72
65
 73
2
 40
19.0499999999999972
 49
12.6999999999999993
 74
0
 49
-6.3499999999999996
 74
0
  0
LTYPE
  5
43
100
AcDbSymbolTableRecord
100
AcDbLinetypeTableRecord
  2
ACAD_ISO08W100
 70
0
  3
ISO long-dash short-dash ____ __ ____ __ ____ _
 72
65
 73
4
 40
36.0
 49
24.0
 74
0
 49
-3.0
 74
0
 49
6.0
 74
0
 49
-3.0
 74
0
  0
LTYPE
  5
44
100
AcDbSymbolTableRecord
100
AcDbLinetypeTableRecord
  2
PHANTOM
 70
0
  3
Phantom ______  __  __  ______  __  __  ______ 
 72
65
 73
6
 40
63.5000000000000071
 49
31.75
 74
0
 49
-6.3499999999999996
 74
0
 49
6.3499999999999996
 74
0
 49
-6.3499999999999996
 74
0
 49
6.3499999999999996
 74
0
 49
-6.3499999999999996
 74
0
  0
LTYPE
  5
45
100
AcDbSymbolTableRecord
100
AcDbLinetypeTableRecord
  2
ACAD_ISO03W100
 70
0
  3
ISO dash space __    __    __    __    __    __
 72
65
 73
2
 40
30.0
 49
12.0
 74
0
 49
-18.0
 74
0
  0
LTYPE
  5
46
100
AcDbSymbolTableRecord
100
AcDbLinetypeTableRecord
  2
ACAD_ISO15W100
 70
0
  3
ISO double-dash triple-dot __ __ . . . __ __ . .
 72
65
 73
10
 40
39.0000000000000071
 49
12.0
 74
0
 49
-3.0
 74
0
 49
12.0
 74
0
 49
-2.9500000000000002
 74
0
 49
0.1
 74
0
 49
-2.9000000000000004
 74
0
 49
0.1
 74
0
 49
-2.9000000000000004
 74
0
 49
0.1
 74
0
 49
-2.9500000000000002
 74
0
  0
LTYPE
  5
47
100
AcDbSymbolTableRecord
100
AcDbLinetypeTableRecord
  2
DOT2
 70
0
  3
Dot (.5x) ........................................
 72
65
 73
2
 40
3.1749999999999998
 49
0.1
 74
0
 49
-3.0749999999999997
 74
0
  0
LTYPE
  5
48
100
AcDbSymbolTableRecord
100
AcDbLinetypeTableRecord
  2
BORDER
 70
0
  3
Border __ __ . __ __ . __ __ . __ __ . __ __ .
 72
65
 73
6
 40
44.4499999999999957
 49
12.6999999999999993
 74
0
 49
-6.3499999999999996
 74
0
 49
12.6999999999999993
 74
0
 49
-6.2999999999999998
 74
0
 49
0.1
 74
0
 49
-6.2999999999999998
 74
0
  0
LTYPE
  5
49
100
AcDbSymbolTableRecord
100
AcDbLinetypeTableRecord
  2
ACAD_ISO07W100
 70
0
  3
ISO dot . . . . . . . . . . . . . . . . . . . . 
 72
65
 73
2
 40
3.0
 49
0.1
 74
0
 49
-2.8999999999999999
 74
0
  0
LTYPE
  5
4A
100
AcDbSymbolTableRecord
100
AcDbLinetypeTableRecord
  2
ACAD_ISO02W100
 70
0
  3
ISO dash __ __ __ __ __ __ __ __ __ __ __ __ __
 72
65
 73
2
 40
15.0
 49
12.0
 74
0
 49
-3.0
 74
0
  0
LTYPE
  5
4B
100
AcDbSymbolTableRecord
100
AcDbLinetypeTableRecord
  2
DOTX2
 70
0
  3
Dot (2x) .  .  .  .  .  .  .  .  .  .  .  .  .  .
 72
65
 73
2
 40
12.6999999999999993
 49
0.1
 74
0
 49
-12.5999999999999996
 74
0
  0
LTYPE
  5
4C
100
AcDbSymbolTableRecord
100
AcDbLinetypeTableRecord
  2
DASHED2
 70
0
  3
Dashed (.5x) _ _ _ _ _ _ _ _ _ _ _ _ _ _ _ _ _ 
 72
65
 73
2
 40
9.5249999999999986
 49
6.3499999999999996
 74
0
 49
-3.1749999999999998
 74
0
  0
LTYPE
  5
4D
100
AcDbSymbolTableRecord
100
AcDbLinetypeTableRecord
  2
ACAD_ISO14W100
 70
0
  3
ISO dash triple-dot __ . . . __ . . . __ . . . _
 72
65
 73
8
 40
24.0000000000000036
 49
12.0
 74
0
 49
-2.9500000000000002
 74
0
 49
0.1
 74
0
 49
-2.9000000000000004
 74
0
 49
0.1
 74
0
 49
-2.9000000000000004
 74
0
 49
0.1
 74
0
 49
-2.9500000000000002
 74
0
  0
LTYPE
  5
4E
100
AcDbSymbolTableRecord
100
AcDbLinetypeTableRecord
  2
ACAD_ISO06W100
 70
0
  3
ISO long-dash triple-dot ____ ... ____ ... ____
 72
65
 73
8
 40
36.0000000000000071
 49
24.0
 74
0
 49
-2.9500000000000002
 74
0
 49
0.1
 74
0
 49
-2.9000000000000004
 74
0
 49
0.1
 74
0
 49
-2.9000000000000004
 74
0
 49
0.1
 74
0
 49
-2.9500000000000002
 74
0
  0
LTYPE
  5
4F
100
AcDbSymbolTableRecord
100
AcDbLinetypeTableRecord
  2
DIVIDEX2
 70
0
  3
Divide (2x) ________  .  .  ________  .  .  _
 72
65
 73
6
 40
63.5
 49
25.3999999999999986
 74
0
 49
-12.6499999999999986
 74
0
 49
0.1
 74
0
 49
-12.5999999999999979
 74
0
 49
0.1
 74
0
 49
-12.6499999999999986
 74
0
  0
LTYPE
  5
50
100
AcDbSymbolTableRecord
100
AcDbLinetypeTableRecord
  2
HIDDEN
 70
0
  3
Hidden __ __ __ __ __ __ __ __ __ __ __ __ __ __
 72
65
 73
2
 40
9.5249999999999986
 49
6.3499999999999996
 74
0
 49
-3.1749999999999998
 74
0
  0
LTYPE
  5
15
100
AcDbSymbolTableRecord
100
AcDbLinetypeTableRecord
  2
BYLAYER
 70
0
  3

 72
65
 73
0
 40
0.0
  0
LTYPE
  5
51
100
AcDbSymbolTableRecord
100
AcDbLinetypeTableRecord
  2
ACAD_ISO13W100
 70
0
  3
ISO double-dash double-dot __ __ . . __ __ . . _
 72
65
 73
8
 40
36.0000000000000071
 49
12.0
 74
0
 49
-3.0
 74
0
 49
12.0
 74
0
 49
-2.9500000000000002
 74
0
 49
0.1
 74
0
 49
-2.9000000000000004
 74
0
 49
0.1
 74
0
 49
-2.9500000000000002
 74
0
  0
LTYPE
  5
52
100
AcDbSymbolTableRecord
100
AcDbLinetypeTableRecord
  2
CENTER2
 70
0
  3
Center (.5x) ___ _ ___ _ ___ _ ___ _ ___ _ ___
 72
65
 73
4
 40
28.5750000000000028
 49
19.0500000000000007
 74
0
 49
-3.1749999999999998
 74
0
 49
3.1749999999999998
 74
0
 49
-3.1749999999999998
 74
0
  0
LTYPE
  5
53
100
AcDbSymbolTableRecord
100
AcDbLinetypeTableRecord
  2
DOT
 70
0
  3
Dot . . . . . . . . . . . . . . . . . . . . . . . .
 72
65
 73
2
 40
6.3499999999999996
 49
0.1
 74
0
 49
-6.25
 74
0
  0
LTYPE
  5
54
100
AcDbSymbolTableRecord
100
AcDbLinetypeTableRecord
  2
ACAD_ISO05W100
 70
0
  3
ISO long-dash double-dot ____ .. ____ .. ____ . 
 72
65
 73
6
 40
33.0000000000000071
 49
24.0
 74
0
 49
-2.9500000000000002
 74
0
 49
0.1
 74
0
 49
-2.9000000000000004
 74
0
 49
0.1
 74
0
 49
-2.9500000000000002
 74
0
  0
LTYPE
  5
55
100
AcDbSymbolTableRecord
100
AcDbLinetypeTableRecord
  2
ACAD_ISO12W100
 70
0
  3
ISO dash double-dot __ . . __ . . __ . . __ . . 
 72
65
 73
6
 40
21.0
 49
12.0
 74
0
 49
-2.9500000000000002
 74
0
 49
0.1
 74
0
 49
-2.9000000000000004
 74
0
 49
0.1
 74
0
 49
-2.9500000000000002
 74
0
  0
LTYPE
  5
56
100
AcDbSymbolTableRecord
100
AcDbLinetypeTableRecord
  2
DASHDOT
 70
0
  3
Dash dot __ . __ . __ . __ . __ . __ . __ . __
 72
65
 73
4
 40
25.4000000000000021
 49
12.6999999999999993
 74
0
 49
-6.2999999999999998
 74
0
 49
0.1
 74
0
 49
-6.2999999999999998
 74
0
  0
ENDTAB
  0
TABLE
  2
LAYER
  5
2
100
AcDbSymbolTable
 70
10
  0
LAYER
  5
57
100
AcDbSymbolTableRecord
100
AcDbLayerTableRecord
  2
Board Template
 70
0
 62
7
420
0
  6
ACAD_ISO02W100
370
25
390
F
  0
LAYER
  5
10
100
AcDbSymbolTableRecord
100
AcDbLayerTableRecord
  2
0
 70
0
 62
7
420
16777215
  6
Continuous
370
0
390
F
  0
LAYER
  5
58
100
AcDbSymbolTableRecord
100
AcDbLayerTableRecord
  2
Base
 70
0
 62
7
420
0
  6
Continuous
370
25
390
F
  0
LAYER
  5
59
100
AcDbSymbolTableRecord
100
AcDbLayerTableRecord
  2
TopCover
 70
0
 62
7
420
0
  6
Continuous
370
25
390
F
  0
LAYER
  5
5A
100
AcDbSymbolTableRecord
100
AcDbLayerTableRecord
  2
SheetBoundary
 70
0
 62
3
420
65280
  6
Continuous
370
25
390
F
  0
LAYER
  5
5B
100
AcDbSymbolTableRecord
100
AcDbLayerTableRecord
  2
Support
 70
0
 62
7
420
0
  6
Continuous
370
25
390
F
  0
LAYER
  5
5C
100
AcDbSymbolTableRecord
100
AcDbLayerTableRecord
  2
Layout
 70
0
 62
7
420
0
  6
Continuous
370
25
390
F
  0
LAYER
  5
5D
100
AcDbSymbolTableRecord
100
AcDbLayerTableRecord
  2
Well
 70
0
 62
7
420
0
  6
Continuous
370
0
390
F
  0
LAYER
  5
5E
100
AcDbSymbolTableRecord
100
AcDbLayerTableRecord
  2
Outline Template
 70
0
 62
7
420
0
  6
Continuous
370
25
390
F
  0
LAYER
  5
5F
100
AcDbSymbolTableRecord
100
AcDbLayerTableRecord
  2
Plate
 70
0
 62
7
420
0
  6
Continuous
370
0
390
F
  0
ENDTAB
  0
TABLE
  2
STYLE
  5
3
100
AcDbSymbolTable
 70
1
  0
STYLE
  5
60
100
AcDbSymbolTableRecord
100
AcDbTextStyleTableRecord
  2
Standard
 70
0
 40
0.0
 41
1.0
 50
0.0
 71
0
 42
2.5
  3

  4

1001
ACAD
1000
txt
1071
0
  0
ENDTAB
  0
TABLE
  2
VIEW
  5
6
100
AcDbSymbolTable
 70
0
  0
ENDTAB
  0
TABLE
  2
UCS
  5
7
100
AcDbSymbolTable
 70
0
  0
ENDTAB
  0
TABLE
  2
APPID
  5
9
100
AcDbSymbolTable
 70
1
  0
APPID
  5
12
100
AcDbSymbolTableRecord
100
AcDbRegAppTableRecord
  2
ACAD
 70
0
  0
APPID
  5
61
100
AcDbSymbolTableRecord
100
AcDbRegAppTableRecord
  2
QCAD
 70
0
  0
ENDTAB
  0
TABLE
  2
DIMSTYLE
  5
A
100
AcDbSymbolTable
 70
1
100
AcDbDimStyleTable
 71
0
  0
DIMSTYLE
105
27
100
AcDbSymbolTableRecord
100
AcDbDimStyleTableRecord
  2
Standard
 41
1.5
 42
0.375
 43
3.75
 44
0.75
 70
0
 73
0
 74
0
 77
1
 78
8
140
1.5
141
2.5
143
0.03937007874016
147
0.375
171
3
172
1
271
2
272
2
274
3
278
44
283
0
284
8
340
60
  0
ENDTAB
  0
TABLE
  2
BLOCK_RECORD
  5
1
100
AcDbSymbolTable
 70
1
  0
BLOCK_RECORD
  5
1F
100
AcDbSymbolTableRecord
100
AcDbBlockTableRecord
  2
*Model_Space
340
22
  0
BLOCK_RECORD
  5
1B
100
AcDbSymbolTableRecord
100
AcDbBlockTableRecord
  2
*Paper_Space
340
1E
  0
BLOCK_RECORD
  5
23
100
AcDbSymbolTableRecord
100
AcDbBlockTableRecord
  2
*Paper_Space0
340
26
  0
BLOCK_RECORD
  5
62
100
AcDbSymbolTableRecord
100
AcDbBlockTableRecord
  2
Key_1.0u_Layout
340
0
  0
BLOCK_RECORD
  5
63
100
AcDbSymbolTableRecord
100
AcDbBlockTableRecord
  2
Key_Support_R
340
0
  0
BLOCK_RECORD
  5
64
100
AcDbSymbolTableRecord
100
AcDbBlockTableRecord
  2
Key_Enter_Well
340
0
  0
BLOCK_RECORD
  5
65
100
AcDbSymbolTableRecord
100
AcDbBlockTableRecord
  2
Key_1.25u_Well
340
0
  0
BLOCK_RECORD
  5
66
100
AcDbSymbolTableRecord
100
AcDbBlockTableRecord
  2
ZZZ-Key_1.0u_Base
340
0
  0
BLOCK_RECORD
  5
67
100
AcDbSymbolTableRecord
100
AcDbBlockTableRecord
  2
Z-Switch-Well
340
0
  0
BLOCK_RECORD
  5
68
100
AcDbSymbolTableRecord
100
AcDbBlockTableRecord
  2
Key_2.0u_Well
340
0
  0
BLOCK_RECORD
  5
69
100
AcDbSymbolTableRecord
100
AcDbBlockTableRecord
  2
Z-Stabilizer-Well
340
0
  0
BLOCK_RECORD
  5
6A
100
AcDbSymbolTableRecord
100
AcDbBlockTableRecord
  2
Key_1.0u_Base
340
0
  0
BLOCK_RECORD
  5
6B
100
AcDbSymbolTableRecord
100
AcDbBlockTableRecord
  2
ZZZ-StabilizerPlate
340
0
  0
BLOCK_RECORD
  5
6C
100
AcDbSymbolTableRecord
100
AcDbBlockTableRecord
  2
Z-Key-2u+-Well
340
0
  0
BLOCK_RECORD
  5
6D
100
AcDbSymbolTableRecord
100
AcDbBlockTableRecord
  2
Key_Enter_Base
340
0
  0
BLOCK_RECORD
  5
6E
100
AcDbSymbolTableRecord
100
AcDbBlockTableRecord
  2
Key_1.25u_Base
340
0
  0
BLOCK_RECORD
  5
6F
100
AcDbSymbolTableRecord
100
AcDbBlockTableRecord
  2
Z-Switch-Plate
340
0
  0
BLOCK_RECORD
  5
70
100
AcDbSymbolTableRecord
100
AcDbBlockTableRecord
  2
Key_2.0u_Plate
340
0
  0
BLOCK_RECORD
  5
71
100
AcDbSymbolTableRecord
100
AcDbBlockTableRecord
  2
Z-Switch-Base
340
0
  0
BLOCK_RECORD
  5
72
100
AcDbSymbolTableRecord
100
AcDbBlockTableRecord
  2
Key_1.5u_Well
340
0
  0
BLOCK_RECORD
  5
73
100
AcDbSymbolTableRecord
100
AcDbBlockTableRecord
  2
Key_2.0u_Base
340
0
  0
BLOCK_RECORD
  5
74
100
AcDbSymbolTableRecord
100
AcDbBlockTableRecord
  2
Key_2.0u_Layout
340
0
  0
BLOCK_RECORD
  5
75
100
AcDbSymbolTableRecord
100
AcDbBlockTableRecord
  2
Key_1.25u_Plate
340
0
  0
BLOCK_RECORD
  5
76
100
AcDbSymbolTableRecord
100
AcDbBlockTableRecord
  2
Key_1.5u_Plate
340
0
  0
BLOCK_RECORD
  5
77
100
AcDbSymbolTableRecord
100
AcDbBlockTableRecord
  2
ZZZ-Key_1.0u_Plate
340
0
  0
BLOCK_RECORD
  5
78
100
AcDbSymbolTableRecord
100
AcDbBlockTableRecord
  2
Key_1.5u_Layout
340
0
  0
BLOCK_RECORD
  5
79
100
AcDbSymbolTableRecord
100
AcDbBlockTableRecord
  2
Z-Stabilizer-Plate
340
0
  0
BLOCK_RECORD
  5
7A
100
AcDbSymbolTableRecord
100
AcDbBlockTableRecord
  2
Board
340
0
  0
BLOCK_RECORD
  5
7B
100
AcDbSymbolTableRecord
100
AcDbBlockTableRecord
  2
Key_Enter_Layout
340
0
  0
BLOCK_RECORD
  5
7C
100
AcDbSymbolTableRecord
100
AcDbBlockTableRecord
  2
Key_Enter_Plate
340
0
  0
BLOCK_RECORD
  5
7D
100
AcDbSymbolTableRecord
100
AcDbBlockTableRecord
  2
Key_1.5u_Base
340
0
  0
BLOCK_RECORD
  5
7E
100
AcDbSymbolTableRecord
100
AcDbBlockTableRecord
  2
Key_1.0u_Plate
340
0
  0
BLOCK_RECORD
  5
7F
100
AcDbSymbolTableRecord
100
AcDbBlockTableRecord
  2
ZZZ-Key_1.0u_Well
340
0
  0
BLOCK_RECORD
  5
80
100
AcDbSymbolTableRecord
100
AcDbBlockTableRecord
  2
Key_Support_D
340
0
  0
BLOCK_RECORD
  5
81
100
AcDbSymbolTableRecord
100
AcDbBlockTableRecord
  2
Key_Support_DR
340
0
  0
BLOCK_RECORD
  5
82
100
AcDbSymbolTableRecord
100
AcDbBlockTableRecord
  2
Key_Support
340
0
  0
BLOCK_RECORD
  5
83
100
AcDbSymbolTableRecord
100
AcDbBlockTableRecord
  2
Z-Key-2u+-Plate
340
0
  0
BLOCK_RECORD
  5
84
100
AcDbSymbolTableRecord
100
AcDbBlockTableRecord
  2
Key_1.25u_Layout
340
0
  0
BLOCK_RECORD
  5
85
100
AcDbSymbolTableRecord
100
AcDbBlockTableRecord
  2
Key_1.0u_Well
340
0
  0
ENDTAB
  0
ENDSEC
  0
SECTION
  2
BLOCKS
  0
BLOCK
  5
20
100
AcDbEntity
  8
0
100
AcDbBlockBegin
  2
*Model_Space
 70
0
 10
0.0
 20
0.0
 30
0.0
  3
*Model_Space
  1

  0
ENDBLK
  5
21
100
AcDbEntity
  8
0
100
AcDbBlockEnd
  0
BLOCK
  5
1C
100
AcDbEntity
 67
1
  8
0
100
AcDbBlockBegin
  2
*Paper_Space
 70
0
 10
0.0
 20
0.0
 30
0.0
  3
*Paper_Space
  1

  0
ENDBLK
  5
1D
100
AcDbEntity
 67
1
  8
0
100
AcDbBlockEnd
  0
BLOCK
  5
24
100
AcDbEntity
  8
0
100
AcDbBlockBegin
  2
*Paper_Space0
 70
0
 10
0.0
 20
0.0
 30
0.0
  3
*Paper_Space0
  1

  0
ENDBLK
  5
25
100
AcDbEntity
  8
0
100
AcDbBlockEnd
  0
BLOCK
  5
86
100
AcDbEntity
  8
0
100
AcDbBlockBegin
  2
Key_1.0u_Layout
 70
0
 10
0.0
 20
0.0
 30
0.0
  3
Key_1.0u_Layout
  1

  0
LWPOLYLINE
  5
87
100
AcDbEntity
  8
0
 62
256
370
-1
 48
1.0
  6
BYLAYER
100
AcDbPolyline
 90
4
 70
129
 10
0.0
 20
0.0
 10
19.0500000000000007
 20
0.0
 10
19.0500000000000007
 20
19.0500000000000007
 10
0.0
 20
19.0500000000000007
  0
ENDBLK
  5
88
100
AcDbEntity
  8
0
100
AcDbBlockEnd
  0
BLOCK
  5
89
100
AcDbEntity
  8
0
100
AcDbBlockBegin
  2
Key_Support_R
 70
0
 10
0.0
 20
0.0
 30
0.0
  3
Key_Support_R
  1

  0
LINE
  5
8A
100
AcDbEntity
  8
0
 62
256
370
-1
 48
1.0
  6
BYLAYER
100
AcDbLine
 10
2.0000000000000142
 20
-3.2450015958408969
 30
0.0
 11
-1.9999999999999858
 21
-3.2450015958408969
 31
0.0
  0
LINE
  5
8B
100
AcDbEntity
  8
0
 62
256
370
-1
 48
1.0
  6
BYLAYER
100
AcDbLine
 10
-1.9999999999999858
 20
-3.2450015958408969
 30
0.0
 11
-1.9999999999999858
 21
-2.0000000000000071
 31
0.0
  0
LINE
  5
8C
100
AcDbEntity
  8
0
 62
256
370
-1
 48
1.0
  6
BYLAYER
100
AcDbLine
 10
-2.0
 20
-2.0000000000000071
 30
0.0
 11
-10.5249999999999915
 21
-2.0000000000000071
 31
0.0
  0
LINE
  5
8D
100
AcDbEntity
  8
0
 62
256
370
-1
 48
1.0
  6
BYLAYER
100
AcDbLine
 10
-10.5249999999999915
 20
-2.0000000000000071
 30
0.0
 11
-10.5249999999999915
 21
1.9999999999999929
 31
0.0
  0
LINE
  5
8E
100
AcDbEntity
  8
0
 62
256
370
-1
 48
1.0
  6
BYLAYER
100
AcDbLine
 10
-10.5249999999999915
 20
1.9999999999999964
 30
0.0
 11
-2.0
 21
1.9999999999999964
 31
0.0
  0
LINE
  5
8F
100
AcDbEntity
  8
0
 62
256
370
-1
 48
1.0
  6
BYLAYER
100
AcDbLine
 10
-1.9999999999999858
 20
1.9999999999999964
 30
0.0
 11
-1.9999999999999858
 21
12.9135281374238495
 31
0.0
  0
LINE
  5
90
100
AcDbEntity
  8
0
 62
256
370
-1
 48
1.0
  6
BYLAYER
100
AcDbLine
 10
-1.9999999999999858
 20
12.9135281374238495
 30
0.0
 11
2.0000000000000142
 21
12.9135281374238495
 31
0.0
  0
ENDBLK
  5
91
100
AcDbEntity
  8
0
100
AcDbBlockEnd
  0
BLOCK
  5
92
100
AcDbEntity
  8
0
100
AcDbBlockBegin
  2
Key_Enter_Well
 70
0
 10
0.0
 20
0.0
 30
0.0
  3
Key_Enter_Well
  1

  0
INSERT
  5
93
100
AcDbEntity
  8
0
 62
256
370
-1
 48
1.0
  6
BYLAYER
100
AcDbBlockReference
  2
Z-Key-2u+-Well
 10
11.9062500000000284
 20
19.0500000000000078
 30
0.0
 50
90.0
  0
ENDBLK
  5
94
100
AcDbEntity
  8
0
100
AcDbBlockEnd
  0
BLOCK
  5
95
100
AcDbEntity
  8
0
100
AcDbBlockBegin
  2
Key_1.25u_Well
 70
0
 10
0.0
 20
0.0
 30
0.0
  3
Key_1.25u_Well
  1

  0
INSERT
  5
96
100
AcDbEntity
  8
0
 62
256
370
-1
 48
1.0
  6
BYLAYER
100
AcDbBlockReference
  2
Z-Switch-Well
 10
11.9062500000000018
 20
9.5250000000000004
 30
0.0
  0
ENDBLK
  5
97
100
AcDbEntity
  8
0
100
AcDbBlockEnd
  0
BLOCK
  5
98
100
AcDbEntity
  8
0
100
AcDbBlockBegin
  2
ZZZ-Key_1.0u_Base
 70
0
 10
0.0
 20
0.0
 30
0.0
  3
ZZZ-Key_1.0u_Base
  1

  0
CIRCLE
  5
99
100
AcDbEntity
  8
0
 62
256
370
-1
 48
1.0
  6
BYLAYER
100
AcDbCircle
 10
9.5250000000000004
 20
9.5250000000000004
 30
0.0
 40
2.0
  0
CIRCLE
  5
9A
100
AcDbEntity
  8
0
 62
256
370
-1
 48
1.0
  6
BYLAYER
100
AcDbCircle
 10
13.3350000000000026
 20
12.0649999999999977
 30
0.0
 40
1.0
  0
CIRCLE
  5
9B
100
AcDbEntity
  8
0
 62
256
370
-1
 48
1.0
  6
BYLAYER
100
AcDbCircle
 10
6.9849999999999977
 20
14.6049999999999986
 30
0.0
 40
1.0
  0
ENDBLK
  5
9C
100
AcDbEntity
  8
0
100
AcDbBlockEnd
  0
BLOCK
  5
9D
100
AcDbEntity
  8
0
100
AcDbBlockBegin
  2
Z-Switch-Well
 70
0
 10
0.0
 20
0.0
 30
0.0
  3
Z-Switch-Well
  1

  0
LWPOLYLINE
  5
9E
100
AcDbEntity
  8
0
 62
256
370
-1
 48
1.0
  6
BYLAYER
100
AcDbPolyline
 90
4
 70
129
 10
-6.9000000000000004
 20
-7.4000000000000004
 10
6.8999999999999968
 20
-7.4000000000000004
 10
6.8999999999999968
 20
7.3999999999999968
 10
-6.9000000000000004
 20
7.3999999999999968
  0
ENDBLK
  5
9F
100
AcDbEntity
  8
0
100
AcDbBlockEnd
  0
BLOCK
  5
A0
100
AcDbEntity
  8
0
100
AcDbBlockBegin
  2
Key_2.0u_Well
 70
0
 10
0.0
 20
0.0
 30
0.0
  3
Key_2.0u_Well
  1

  0
INSERT
  5
A1
100
AcDbEntity
  8
0
 62
256
370
-1
 48
1.0
  6
BYLAYER
100
AcDbBlockReference
  2
Z-Key-2u+-Well
 10
19.0500000000000007
 20
9.5250000000000021
 30
0.0
  0
ENDBLK
  5
A2
100
AcDbEntity
  8
0
100
AcDbBlockEnd
  0
BLOCK
  5
A3
100
AcDbEntity
  8
0
100
AcDbBlockBegin
  2
Z-Stabilizer-Well
 70
0
 10
0.0
 20
0.0
 30
0.0
  3
Z-Stabilizer-Well
  1

  0
LWPOLYLINE
  5
A4
100
AcDbEntity
  8
0
 62
256
370
-1
 48
1.0
  6
BYLAYER
100
AcDbPolyline
 90
4
 70
129
 10
-3.9299999999999997
 20
-10.0
 10
3.9299999999999997
 20
-10.0
 10
3.9299999999999997
 20
6.0999999999999943
 10
-3.9299999999999997
 20
6.0999999999999943
  0
ENDBLK
  5
A5
100
AcDbEntity
  8
0
100
AcDbBlockEnd
  0
BLOCK
  5
A6
100
AcDbEntity
  8
0
100
AcDbBlockBegin
  2
Key_1.0u_Base
 70
0
 10
0.0
 20
0.0
 30
0.0
  3
Key_1.0u_Base
  1

  0
INSERT
  5
A7
100
AcDbEntity
  8
0
 62
256
370
-1
 48
1.0
  6
BYLAYER
100
AcDbBlockReference
  2
Z-Switch-Base
 10
9.5250000000000004
 20
9.5250000000000004
 30
0.0
  0
ENDBLK
  5
A8
100
AcDbEntity
  8
0
100
AcDbBlockEnd
  0
BLOCK
  5
A9
100
AcDbEntity
  8
0
100
AcDbBlockBegin
  2
ZZZ-StabilizerPlate
 70
0
 10
0.0
 20
0.0
 30
0.0
  3
ZZZ-StabilizerPlate
  1

  0
LINE
  5
AA
100
AcDbEntity
  8
0
 62
256
370
-1
 48
1.0
  6
BYLAYER
100
AcDbLine
 10
-3.3849999999999998
 20
-6.4600000000000009
 30
0.0
 11
3.3849999999999998
 21
-6.4600000000000009
 31
0.0
  0
LINE
  5
AB
100
AcDbEntity
  8
0
 62
256
370
-1
 48
1.0
  6
BYLAYER
100
AcDbLine
 10
3.3849999999999998
 20
5.6000000000000014
 30
0.0
 11
-3.3849999999999998
 21
5.6000000000000014
 31
0.0
  0
LINE
  5
AC
100
AcDbEntity
  8
0
 62
256
370
-1
 48
1.0
  6
BYLAYER
100
AcDbLine
 10
-3.3849999999999998
 20
5.6000000000000014
 30
0.0
 11
-3.3849999999999998
 21
2.0
 31
0.0
  0
LINE
  5
AD
100
AcDbEntity
  8
0
 62
256
370
-1
 48
1.0
  6
BYLAYER
100
AcDbLine
 10
-3.3849999999999998
 20
-0.0000000000000071
 30
0.0
 11
-3.3849999999999998
 21
-6.4600000000000009
 31
0.0
  0
LINE
  5
AE
100
AcDbEntity
  8
0
 62
256
370
-1
 48
1.0
  6
BYLAYER
100
AcDbLine
 10
3.3849999999999998
 20
-6.4600000000000009
 30
0.0
 11
3.3849999999999998
 21
0.0
 31
0.0
  0
LINE
  5
AF
100
AcDbEntity
  8
0
 62
256
370
-1
 48
1.0
  6
BYLAYER
100
AcDbLine
 10
3.3849999999999998
 20
2.0
 30
0.0
 11
3.3849999999999998
 21
5.6000000000000014
 31
0.0
  0
LINE
  5
B0
100
AcDbEntity
  8
0
 62
256
370
-1
 48
1.0
  6
BYLAYER
100
AcDbLine
 10
3.9300000000000006
 20
0.0
 30
0.0
 11
3.9300000000000006
 21
2.0
 31
0.0
  0
LINE
  5
B1
100
AcDbEntity
  8
0
 62
256
370
-1
 48
1.0
  6
BYLAYER
100
AcDbLine
 10
-3.9299999999999997
 20
2.0
 30
0.0
 11
-3.9299999999999997
 21
0.0
 31
0.0
  0
LINE
  5
B2
100
AcDbEntity
  8
0
 62
256
370
-1
 48
1.0
  6
BYLAYER
100
AcDbLine
 10
-3.9299999999999997
 20
0.0
 30
0.0
 11
-3.3849999999999998
 21
0.0
 31
0.0
  0
LINE
  5
B3
100
AcDbEntity
  8
0
 62
256
370
-1
 48
1.0
  6
BYLAYER
100
AcDbLine
 10
3.3850000000000007
 20
0.0
 30
0.0
 11
3.9300000000000006
 21
0.0
 31
0.0
  0
LINE
  5
B4
100
AcDbEntity
  8
0
 62
256
370
-1
 48
1.0
  6
BYLAYER
100
AcDbLine
 10
3.9300000000000006
 20
2.0
 30
0.0
 11
3.3849999999999998
 21
2.0
 31
0.0
  0
LINE
  5
B5
100
AcDbEntity
  8
0
 62
256
370
-1
 48
1.0
  6
BYLAYER
100
AcDbLine
 10
-3.3850000000000007
 20
2.0
 30
0.0
 11
-3.9299999999999997
 21
2.0
 31
0.0
  0
ENDBLK
  5
B6
100
AcDbEntity
  8
0
100
AcDbBlockEnd
  0
BLOCK
  5
B7
100
AcDbEntity
  8
0
100
AcDbBlockBegin
  2
Z-Key-2u+-Well
 70
0
 10
0.0
 20
0.0
 30
0.0
  3
Z-Key-2u+-Well
  1

  0
LWPOLYLINE
  5
B8
100
AcDbEntity
  8
0
 62
256
370
-1
 48
1.0
  6
BYLAYER
100
AcDbPolyline
 90
10
 70
128
 10
-15.7300000000000004
 20
6.0999999999999943
 10
-6.9000000000000004
 20
6.0999999999999943
 10
-6.9000000000000004
 20
7.3999999999999968
 10
6.8999999999999968
 20
7.3999999999999968
 10
6.8999999999999968
 20
6.0999999999999943
 10
15.7300000000000004
 20
6.0999999999999943
 10
15.7300000000000004
 20
-10.0
 10
-15.7300000000000004
 20
-10.0
 10
-15.7300000000000004
 20
6.0999999999999943
 10
-15.7300000000000004
 20
6.0999999999999943
  0
ENDBLK
  5
B9
100
AcDbEntity
  8
0
100
AcDbBlockEnd
  0
BLOCK
  5
BA
100
AcDbEntity
  8
0
100
AcDbBlockBegin
  2
Key_Enter_Base
 70
0
 10
0.0
 20
0.0
 30
0.0
  3
Key_Enter_Base
  1

  0
INSERT
  5
BB
100
AcDbEntity
  8
0
 62
256
370
-1
 48
1.0
  6
BYLAYER
100
AcDbBlockReference
  2
Z-Switch-Base
 10
11.9062500000000338
 20
19.0500000000000114
 30
0.0
 50
90.0
  0
ENDBLK
  5
BC
100
AcDbEntity
  8
0
100
AcDbBlockEnd
  0
BLOCK
  5
BD
100
AcDbEntity
  8
0
100
AcDbBlockBegin
  2
Key_1.25u_Base
 70
0
 10
0.0
 20
0.0
 30
0.0
  3
Key_1.25u_Base
  1

  0
INSERT
  5
BE
100
AcDbEntity
  8
0
 62
256
370
-1
 48
1.0
  6
BYLAYER
100
AcDbBlockReference
  2
Z-Switch-Base
 10
11.9062500000000018
 20
9.5250000000000004
 30
0.0
  0
ENDBLK
  5
BF
100
AcDbEntity
  8
0
100
AcDbBlockEnd
  0
BLOCK
  5
C0
100
AcDbEntity
  8
0
100
AcDbBlockBegin
  2
Z-Switch-Plate
 70
0
 10
0.0
 20
0.0
 30
0.0
  3
Z-Switch-Plate
  1

  0
LWPOLYLINE
  5
C1
100
AcDbEntity
  8
0
 62
256
370
-1
 48
1.0
  6
BYLAYER
100
AcDbPolyline
 90
4
 70
129
 10
6.8999999999999968
 20
6.8999999999999968
 10
-6.9000000000000004
 20
6.8999999999999968
 10
-6.9000000000000004
 20
-6.9000000000000004
 10
6.8999999999999968
 20
-6.9000000000000004
  0
ENDBLK
  5
C2
100
AcDbEntity
  8
0
100
AcDbBlockEnd
  0
BLOCK
  5
C3
100
AcDbEntity
  8
0
100
AcDbBlockBegin
  2
Key_2.0u_Plate
 70
0
 10
0.0
 20
0.0
 30
0.0
  3
Key_2.0u_Plate
  1

  0
INSERT
  5
C4
100
AcDbEntity
  8
0
 62
256
370
-1
 48
1.0
  6
BYLAYER
100
AcDbBlockReference
  2
Z-Key-2u+-Plate
 10
19.0500000000000007
 20
9.5250000000000021
 30
0.0
  0
ENDBLK
  5
C5
100
AcDbEntity
  8
0
100
AcDbBlockEnd
  0
BLOCK
  5
C6
100
AcDbEntity
  8
0
100
AcDbBlockBegin
  2
Z-Switch-Base
 70
0
 10
0.0
 20
0.0
 30
0.0
  3
Z-Switch-Base
  1

  0
CIRCLE
  5
C7
100
AcDbEntity
  8
0
 62
256
370
-1
 48
1.0
  6
BYLAYER
100
AcDbCircle
 10
0.0000000000000053
 20
-0.0000000000000018
 30
0.0
 40
1.8999999999999999
  0
LINE
  5
C8
100
AcDbEntity
  8
0
 62
256
370
-1
 48
1.0
  6
BYLAYER
100
AcDbLine
 10
0.0554833995939004
 20
3.8799999999999941
 30
0.0
 11
2.5399999999999956
 21
3.879999999999995
 31
0.0
  0
ARC
  5
C9
100
AcDbEntity
  8
0
 62
256
370
-1
 48
1.0
  6
BYLAYER
100
AcDbCircle
 10
2.5390214787200316
 20
5.0799992020795495
 30
0.0
 40
1.199999601039712
100
AcDbArc
 50
270.0467209702991909
 51
90.0467209702992051
  0
LINE
  5
CA
100
AcDbEntity
  8
0
 62
256
370
-1
 48
1.0
  6
BYLAYER
100
AcDbLine
 10
-0.5343164220846967
 20
6.2749877824413476
 30
0.0
 11
2.53804295744006
 21
6.279998404159107
 31
0.0
  0
ARC
  5
CB
100
AcDbEntity
  8
0
 62
256
370
-1
 48
1.0
  6
BYLAYER
100
AcDbCircle
 10
-0.5294238156848451
 20
3.2749917720435686
 30
0.0
 40
3.0
100
AcDbArc
 50
90.0934419405985096
 51
134.9999999999996021
  0
LINE
  5
CC
100
AcDbEntity
  8
0
 62
256
370
-1
 48
1.0
  6
BYLAYER
100
AcDbLine
 10
-2.650744159244466
 20
5.3963121156032132
 30
0.0
 11
-4.6585281374238541
 21
3.388528137423843
 31
0.0
  0
ARC
  5
CD
100
AcDbEntity
  8
0
 62
256
370
-1
 48
1.0
  6
BYLAYER
100
AcDbCircle
 10
-3.8099999999999956
 20
2.539999999999996
 30
0.0
 40
1.1999999999999951
100
AcDbArc
 50
134.9999999999996305
 51
314.9999999999996589
  0
LINE
  5
CE
100
AcDbEntity
  8
0
 62
256
370
-1
 48
1.0
  6
BYLAYER
100
AcDbLine
 10
-1.3587301627791766
 20
3.2942135623730859
 30
0.0
 11
-2.9614718625761403
 21
1.6914718625761429
 31
0.0
  0
ARC
  5
CF
100
AcDbEntity
  8
0
 62
256
370
-1
 48
1.0
  6
BYLAYER
100
AcDbCircle
 10
0.0554833995939018
 20
1.8799999999999937
 30
0.0
 40
2.0
100
AcDbArc
 50
90.0
 51
134.9999999999997442
  0
ENDBLK
  5
D0
100
AcDbEntity
  8
0
100
AcDbBlockEnd
  0
BLOCK
  5
D1
100
AcDbEntity
  8
0
100
AcDbBlockBegin
  2
Key_1.5u_Well
 70
0
 10
0.0
 20
0.0
 30
0.0
  3
Key_1.5u_Well
  1

  0
INSERT
  5
D2
100
AcDbEntity
  8
0
 62
256
370
-1
 48
1.0
  6
BYLAYER
100
AcDbBlockReference
  2
Z-Switch-Well
 10
14.2875000000000032
 20
9.524999999999995
 30
0.0
  0
ENDBLK
  5
D3
100
AcDbEntity
  8
0
100
AcDbBlockEnd
  0
BLOCK
  5
D4
100
AcDbEntity
  8
0
100
AcDbBlockBegin
  2
Key_2.0u_Base
 70
0
 10
0.0
 20
0.0
 30
0.0
  3
Key_2.0u_Base
  1

  0
INSERT
  5
D5
100
AcDbEntity
  8
0
 62
256
370
-1
 48
1.0
  6
BYLAYER
100
AcDbBlockReference
  2
Z-Switch-Base
 10
19.0500000000000007
 20
9.5250000000000021
 30
0.0
  0
ENDBLK
  5
D6
100
AcDbEntity
  8
0
100
AcDbBlockEnd
  0
BLOCK
  5
D7
100
AcDbEntity
  8
0
100
AcDbBlockBegin
  2
Key_2.0u_Layout
 70
0
 10
0.0
 20
0.0
 30
0.0
  3
Key_2.0u_Layout
  1

  0
LWPOLYLINE
  5
D8
100
AcDbEntity
  8
0
 62
256
370
-1
 48
1.0
  6
BYLAYER
100
AcDbPolyline
 90
5
 70
0
 10
0.0
 20
0.0
 10
38.1000000000000014
 20
0.0000000000000071
 10
38.1000000000000014
 20
19.0500000000000043
 10
0.0
 20
19.0499999999999901
 10
0.0
 20
0.0
  0
ENDBLK
  5
D9
100
AcDbEntity
  8
0
100
AcDbBlockEnd
  0
BLOCK
  5
DA
100
AcDbEntity
  8
0
100
AcDbBlockBegin
  2
Key_1.25u_Plate
 70
0
 10
0.0
 20
0.0
 30
0.0
  3
Key_1.25u_Plate
  1

  0
INSERT
  5
DB
100
AcDbEntity
  8
0
 62
256
370
-1
 48
1.0
  6
BYLAYER
100
AcDbBlockReference
  2
Z-Switch-Plate
 10
11.9062500000000018
 20
9.5250000000000004
 30
0.0
  0
ENDBLK
  5
DC
100
AcDbEntity
  8
0
100
AcDbBlockEnd
  0
BLOCK
  5
DD
100
AcDbEntity
  8
0
100
AcDbBlockBegin
  2
Key_1.5u_Plate
 70
0
 10
0.0
 20
0.0
 30
0.0
  3
Key_1.5u_Plate
  1

  0
INSERT
  5
DE
100
AcDbEntity
  8
0
 62
256
370
-1
 48
1.0
  6
BYLAYER
100
AcDbBlockReference
  2
Z-Switch-Plate
 10
14.2875000000000032
 20
9.524999999999995
 30
0.0
  0
ENDBLK
  5
DF
100
AcDbEntity
  8
0
100
AcDbBlockEnd
  0
BLOCK
  5
E0
100
AcDbEntity
  8
0
100
AcDbBlockBegin
  2
ZZZ-Key_1.0u_Plate
 70
0
 10
0.0
 20
0.0
 30
0.0
  3
ZZZ-Key_1.0u_Plate
  1

  0
LWPOLYLINE
  5
E1
100
AcDbEntity
  8
0
 62
256
370
-1
 48
1.0
  6
BYLAYER
100
AcDbPolyline
 90
4
 70
129
 10
16.524999999999995
 20
16.524999999999995
 10
2.524999999999995
 20
16.524999999999995
 10
2.524999999999995
 20
2.524999999999995
 10
16.524999999999995
 20
2.524999999999995
  0
ENDBLK
  5
E2
100
AcDbEntity
  8
0
100
AcDbBlockEnd
  0
BLOCK
  5
E3
100
AcDbEntity
  8
0
100
AcDbBlockBegin
  2
Key_1.5u_Layout
 70
0
 10
0.0
 20
0.0
 30
0.0
  3
Key_1.5u_Layout
  1

  0
LWPOLYLINE
  5
E4
100
AcDbEntity
  8
0
 62
256
370
-1
 48
1.0
  6
BYLAYER
100
AcDbPolyline
 90
5
 70
0
 10
-0.0
 20
-0.0000000000000071
 10
28.5750000000000064
 20
0.0
 10
28.5750000000000064
 20
19.0499999999999972
 10
0.0
 20
19.0499999999999829
 10
0.0
 20
0.0
  0
ENDBLK
  5
E5
100
AcDbEntity
  8
0
100
AcDbBlockEnd
  0
BLOCK
  5
E6
100
AcDbEntity
  8
0
100
AcDbBlockBegin
  2
Z-Stabilizer-Plate
 70
0
 10
0.0
 20
0.0
 30
0.0
  3
Z-Stabilizer-Plate
  1

  0
LINE
  5
E7
100
AcDbEntity
  8
0
 62
256
370
-1
 48
1.0
  6
BYLAYER
100
AcDbLine
 10
3.2849999999999966
 20
5.5
 30
0.0
 11
-3.2849999999999966
 21
5.5
 31
0.0
  0
LINE
  5
E8
100
AcDbEntity
  8
0
 62
256
370
-1
 48
1.0
  6
BYLAYER
100
AcDbLine
 10
3.2849999999999966
 20
2.0
 30
0.0
 11
3.2849999999999966
 21
5.5
 31
0.0
  0
LINE
  5
E9
100
AcDbEntity
  8
0
 62
256
370
-1
 48
1.0
  6
BYLAYER
100
AcDbLine
 10
3.9300000000000068
 20
2.0
 30
0.0
 11
3.2849999999999966
 21
2.0
 31
0.0
  0
LINE
  5
EA
100
AcDbEntity
  8
0
 62
256
370
-1
 48
1.0
  6
BYLAYER
100
AcDbLine
 10
3.9300000000000068
 20
0.0
 30
0.0
 11
3.9300000000000068
 21
2.0
 31
0.0
  0
LINE
  5
EB
100
AcDbEntity
  8
0
 62
256
370
-1
 48
1.0
  6
BYLAYER
100
AcDbLine
 10
3.2849999999999966
 20
0.0
 30
0.0
 11
3.9300000000000068
 21
0.0
 31
0.0
  0
LINE
  5
EC
100
AcDbEntity
  8
0
 62
256
370
-1
 48
1.0
  6
BYLAYER
100
AcDbLine
 10
3.2849999999999966
 20
-6.3599999999999994
 30
0.0
 11
3.2849999999999966
 21
0.0
 31
0.0
  0
LINE
  5
ED
100
AcDbEntity
  8
0
 62
256
370
-1
 48
1.0
  6
BYLAYER
100
AcDbLine
 10
1.0
 20
-6.3599999999999994
 30
0.0
 11
3.2849999999999966
 21
-6.3599999999999985
 31
0.0
  0
ARC
  5
EE
100
AcDbEntity
  8
0
 62
256
370
-1
 48
1.0
  6
BYLAYER
100
AcDbCircle
 10
0.0
 20
-6.3599999999999994
 30
0.0
 40
1.0
100
AcDbArc
 50
180.0
 51
0.0
  0
LINE
  5
EF
100
AcDbEntity
  8
0
 62
256
370
-1
 48
1.0
  6
BYLAYER
100
AcDbLine
 10
-3.2849999999999961
 20
-6.3599999999999994
 30
0.0
 11
-1.0000000000000004
 21
-6.3599999999999994
 31
0.0
  0
LINE
  5
F0
100
AcDbEntity
  8
0
 62
256
370
-1
 48
1.0
  6
BYLAYER
100
AcDbLine
 10
-3.2849999999999966
 20
-0.0000000000000071
 30
0.0
 11
-3.2849999999999966
 21
-6.3599999999999994
 31
0.0
  0
LINE
  5
F1
100
AcDbEntity
  8
0
 62
256
370
-1
 48
1.0
  6
BYLAYER
100
AcDbLine
 10
-3.9300000000000068
 20
0.0
 30
0.0
 11
-3.2849999999999966
 21
0.0
 31
0.0
  0
LINE
  5
F2
100
AcDbEntity
  8
0
 62
256
370
-1
 48
1.0
  6
BYLAYER
100
AcDbLine
 10
-3.9300000000000068
 20
2.0
 30
0.0
 11
-3.9300000000000068
 21
0.0
 31
0.0
  0
LINE
  5
F3
100
AcDbEntity
  8
0
 62
256
370
-1
 48
1.0
  6
BYLAYER
100
AcDbLine
 10
-3.2849999999999966
 20
2.0
 30
0.0
 11
-3.9300000000000068
 21
2.0
 31
0.0
  0
LINE
  5
F4
100
AcDbEntity
  8
0
 62
256
370
-1
 48
1.0
  6
BYLAYER
100
AcDbLine
 10
-3.2849999999999966
 20
5.5
 30
0.0
 11
-3.2849999999999966
 21
2.0
 31
0.0
  0
ENDBLK
  5
F5
100
AcDbEntity
  8
0
100
AcDbBlockEnd
  0
BLOCK
  5
F6
100
AcDbEntity
  8
0
100
AcDbBlockBegin
  2
Board
 70
0
 10
0.0
 20
0.0
 30
0.0
  3
Board
  1

  0
POINT
  5
F7
100
AcDbEntity
  8
0
 62
256
370
-1
 48
1.0
  6
BYLAYER
100
AcDbPoint
 10
0.0
 20
0.0
 30
0.0
  0
LINE
  5
F8
100
AcDbEntity
  8
0
 62
256
370
-1
 48
1.0
  6
BYLAYER
100
AcDbLine
 10
4.5
 20
0.0
 30
0.0
 11
-4.5
 21
0.0
 31
0.0
  0
LINE
  5
F9
100
AcDbEntity
  8
0
 62
256
370
-1
 48
1.0
  6
BYLAYER
100
AcDbLine
 10
-4.5
 20
0.0
 30
0.0
 11
-4.5
 21
-5.5
 31
0.0
  0
LINE
  5
FA
100
AcDbEntity
  8
0
 62
256
370
-1
 48
1.0
  6
BYLAYER
100
AcDbLine
 10
-4.5
 20
-5.5
 30
0.0
 11
-9.0
 21
-5.5
 31
0.0
  0
LINE
  5
FB
100
AcDbEntity
  8
0
 62
256
370
-1
 48
1.0
  6
BYLAYER
100
AcDbLine
 10
-9.0
 20
-5.5
 30
0.0
 11
-9.0
 21
-56.5
 31
0.0
  0
LINE
  5
FC
100
AcDbEntity
  8
0
 62
256
370
-1
 48
1.0
  6
BYLAYER
100
AcDbLine
 10
-9.0
 20
-56.5
 30
0.0
 11
9.0
 21
-56.5
 31
0.0
  0
LINE
  5
FD
100
AcDbEntity
  8
0
 62
256
370
-1
 48
1.0
  6
BYLAYER
100
AcDbLine
 10
9.0
 20
-56.5
 30
0.0
 11
9.0
 21
-5.5
 31
0.0
  0
LINE
  5
FE
100
AcDbEntity
  8
0
 62
256
370
-1
 48
1.0
  6
BYLAYER
100
AcDbLine
 10
9.0
 20
-5.5
 30
0.0
 11
4.5
 21
-5.5
 31
0.0
  0
LINE
  5
FF
100
AcDbEntity
  8
0
 62
256
370
-1
 48
1.0
  6
BYLAYER
100
AcDbLine
 10
4.5
 20
-5.5
 30
0.0
 11
4.5
 21
0.0
 31
0.0
  0
ENDBLK
  5
100
100
AcDbEntity
  8
0
100
AcDbBlockEnd
  0
BLOCK
  5
101
100
AcDbEntity
  8
0
100
AcDbBlockBegin
  2
Key_Enter_Layout
 70
0
 10
0.0
 20
0.0
 30
0.0
  3
Key_Enter_Layout
  1

  0
ENDBLK
  5
102
100
AcDbEntity
  8
0
100
AcDbBlockEnd
  0
BLOCK
  5
103
100
AcDbEntity
  8
0
100
AcDbBlockBegin
  2
Key_Enter_Plate
 70
0
 10
0.0
 20
0.0
 30
0.0
  3
Key_Enter_Plate
  1

  0
INSERT
  5
104
100
AcDbEntity
  8
0
 62
256
370
-1
 48
1.0
  6
BYLAYER
100
AcDbBlockReference
  2
Z-Key-2u+-Plate
 10
11.9062500000000284
 20
19.0500000000000078
 30
0.0
 50
90.0
  0
ENDBLK
  5
105
100
AcDbEntity
  8
0
100
AcDbBlockEnd
  0
BLOCK
  5
106
100
AcDbEntity
  8
0
100
AcDbBlockBegin
  2
Key_1.5u_Base
 70
0
 10
0.0
 20
0.0
 30
0.0
  3
Key_1.5u_Base
  1

  0
INSERT
  5
107
100
AcDbEntity
  8
0
 62
256
370
-1
 48
1.0
  6
BYLAYER
100
AcDbBlockReference
  2
Z-Switch-Base
 10
14.2875000000000032
 20
9.524999999999995
 30
0.0
  0
ENDBLK
  5
108
100
AcDbEntity
  8
0
100
AcDbBlockEnd
  0
BLOCK
  5
109
100
AcDbEntity
  8
0
100
AcDbBlockBegin
  2
Key_1.0u_Plate
 70
0
 10
0.0
 20
0.0
 30
0.0
  3
Key_1.0u_Plate
  1

  0
INSERT
  5
10A
100
AcDbEntity
  8
0
 62
256
370
-1
 48
1.0
  6
BYLAYER
100
AcDbBlockReference
  2
Z-Switch-Plate
 10
9.5250000000000004
 20
9.5250000000000004
 30
0.0
  0
ENDBLK
  5
10B
100
AcDbEntity
  8
0
100
AcDbBlockEnd
  0
BLOCK
  5
10C
100
AcDbEntity
  8
0
100
AcDbBlockBegin
  2
ZZZ-Key_1.0u_Well
 70
0
 10
0.0
 20
0.0
 30
0.0
  3
ZZZ-Key_1.0u_Well
  1

  0
LWPOLYLINE
  5
10D
100
AcDbEntity
  8
0
 62
256
370
-1
 48
1.0
  6
BYLAYER
100
AcDbPolyline
 90
4
 70
129
 10
2.524999999999995
 20
2.024999999999995
 10
16.524999999999995
 20
2.024999999999995
 10
16.524999999999995
 20
17.024999999999995
 10
2.524999999999995
 20
17.024999999999995
  0
ENDBLK
  5
10E
100
AcDbEntity
  8
0
100
AcDbBlockEnd
  0
BLOCK
  5
10F
100
AcDbEntity
  8
0
100
AcDbBlockBegin
  2
Key_Support_D
 70
0
 10
0.0
 20
0.0
 30
0.0
  3
Key_Support_D
  1

  0
LINE
  5
110
100
AcDbEntity
  8
0
 62
256
370
-1
 48
1.0
  6
BYLAYER
100
AcDbLine
 10
2.0000000000000142
 20
12.9135281374238495
 30
0.0
 11
2.0000000000000142
 21
1.9999999999999964
 31
0.0
  0
LINE
  5
111
100
AcDbEntity
  8
0
 62
256
370
-1
 48
1.0
  6
BYLAYER
100
AcDbLine
 10
2.0000000000000284
 20
1.9999999999999964
 30
0.0
 11
3.4500000000000313
 21
1.9999999999999964
 31
0.0
  0
LINE
  5
112
100
AcDbEntity
  8
0
 62
256
370
-1
 48
1.0
  6
BYLAYER
100
AcDbLine
 10
3.4500000000000171
 20
1.9999999999999929
 30
0.0
 11
3.4500000000000171
 21
-2.0000000000000071
 31
0.0
  0
LINE
  5
113
100
AcDbEntity
  8
0
 62
256
370
-1
 48
1.0
  6
BYLAYER
100
AcDbLine
 10
-10.5249999999999915
 20
-2.0000000000000071
 30
0.0
 11
-10.5249999999999915
 21
1.9999999999999929
 31
0.0
  0
LINE
  5
114
100
AcDbEntity
  8
0
 62
256
370
-1
 48
1.0
  6
BYLAYER
100
AcDbLine
 10
-10.5249999999999915
 20
1.9999999999999964
 30
0.0
 11
-2.0
 21
1.9999999999999964
 31
0.0
  0
LINE
  5
115
100
AcDbEntity
  8
0
 62
256
370
-1
 48
1.0
  6
BYLAYER
100
AcDbLine
 10
-1.9999999999999858
 20
1.9999999999999964
 30
0.0
 11
-1.9999999999999858
 21
12.9135281374238495
 31
0.0
  0
LINE
  5
116
100
AcDbEntity
  8
0
 62
256
370
-1
 48
1.0
  6
BYLAYER
100
AcDbLine
 10
-1.9999999999999858
 20
12.9135281374238495
 30
0.0
 11
2.0000000000000142
 21
12.9135281374238495
 31
0.0
  0
ENDBLK
  5
117
100
AcDbEntity
  8
0
100
AcDbBlockEnd
  0
BLOCK
  5
118
100
AcDbEntity
  8
0
100
AcDbBlockBegin
  2
Key_Support_DR
 70
0
 10
0.0
 20
0.0
 30
0.0
  3
Key_Support_DR
  1

  0
LINE
  5
119
100
AcDbEntity
  8
0
 62
256
370
-1
 48
1.0
  6
BYLAYER
100
AcDbLine
 10
-10.5249999999999915
 20
-2.0000000000000071
 30
0.0
 11
-10.5249999999999915
 21
1.9999999999999929
 31
0.0
  0
LINE
  5
11A
100
AcDbEntity
  8
0
 62
256
370
-1
 48
1.0
  6
BYLAYER
100
AcDbLine
 10
-10.5249999999999915
 20
1.9999999999999964
 30
0.0
 11
-2.0
 21
1.9999999999999964
 31
0.0
  0
LINE
  5
11B
100
AcDbEntity
  8
0
 62
256
370
-1
 48
1.0
  6
BYLAYER
100
AcDbLine
 10
-1.9999999999999858
 20
1.9999999999999964
 30
0.0
 11
-1.9999999999999858
 21
12.9135281374238495
 31
0.0
  0
LINE
  5
11C
100
AcDbEntity
  8
0
 62
256
370
-1
 48
1.0
  6
BYLAYER
100
AcDbLine
 10
-1.9999999999999858
 20
12.9135281374238495
 30
0.0
 11
2.0000000000000142
 21
12.9135281374238495
 31
0.0
  0
ENDBLK
  5
11D
100
AcDbEntity
  8
0
100
AcDbBlockEnd
  0
BLOCK
  5
11E
100
AcDbEntity
  8
0
100
AcDbBlockBegin
  2
Key_Support
 70
0
 10
0.0
 20
0.0
 30
0.0
  3
Key_Support
  1

  0
LINE
  5
11F
100
AcDbEntity
  8
0
 62
256
370
-1
 48
1.0
  6
BYLAYER
100
AcDbLine
 10
2.0000000000000142
 20
12.9135281374238495
 30
0.0
 11
2.0000000000000142
 21
1.9999999999999964
 31
0.0
  0
LINE
  5
120
100
AcDbEntity
  8
0
 62
256
370
-1
 48
1.0
  6
BYLAYER
100
AcDbLine
 10
2.0000000000000284
 20
1.9999999999999964
 30
0.0
 11
3.4500000000000313
 21
1.9999999999999964
 31
0.0
  0
LINE
  5
121
100
AcDbEntity
  8
0
 62
256
370
-1
 48
1.0
  6
BYLAYER
100
AcDbLine
 10
3.4500000000000171
 20
1.9999999999999929
 30
0.0
 11
3.4500000000000171
 21
-2.0000000000000071
 31
0.0
  0
LINE
  5
122
100
AcDbEntity
  8
0
 62
256
370
-1
 48
1.0
  6
BYLAYER
100
AcDbLine
 10
3.4500000000000171
 20
-2.0000000000000071
 30
0.0
 11
2.0000000000000142
 21
-2.0000000000000071
 31
0.0
  0
LINE
  5
123
100
AcDbEntity
  8
0
 62
256
370
-1
 48
1.0
  6
BYLAYER
100
AcDbLine
 10
2.0000000000000142
 20
-2.0000000000000071
 30
0.0
 11
2.0000000000000142
 21
-3.2450015958408969
 31
0.0
  0
LINE
  5
124
100
AcDbEntity
  8
0
 62
256
370
-1
 48
1.0
  6
BYLAYER
100
AcDbLine
 10
2.0000000000000142
 20
-3.2450015958408969
 30
0.0
 11
-1.9999999999999858
 21
-3.2450015958408969
 31
0.0
  0
LINE
  5
125
100
AcDbEntity
  8
0
 62
256
370
-1
 48
1.0
  6
BYLAYER
100
AcDbLine
 10
-1.9999999999999858
 20
-3.2450015958408969
 30
0.0
 11
-1.9999999999999858
 21
-2.0000000000000071
 31
0.0
  0
LINE
  5
126
100
AcDbEntity
  8
0
 62
256
370
-1
 48
1.0
  6
BYLAYER
100
AcDbLine
 10
-2.0
 20
-2.0000000000000071
 30
0.0
 11
-10.5249999999999915
 21
-2.0000000000000071
 31
0.0
  0
LINE
  5
127
100
AcDbEntity
  8
0
 62
256
370
-1
 48
1.0
  6
BYLAYER
100
AcDbLine
 10
-10.5249999999999915
 20
-2.0000000000000071
 30
0.0
 11
-10.5249999999999915
 21
1.9999999999999929
 31
0.0
  0
LINE
  5
128
100
AcDbEntity
  8
0
 62
256
370
-1
 48
1.0
  6
BYLAYER
100
AcDbLine
 10
-10.5249999999999915
 20
1.9999999999999964
 30
0.0
 11
-2.0
 21
1.9999999999999964
 31
0.0
  0
LINE
  5
129
100
AcDbEntity
  8
0
 62
256
370
-1
 48
1.0
  6
BYLAYER
100
AcDbLine
 10
-1.9999999999999858
 20
1.9999999999999964
 30
0.0
 11
-1.9999999999999858
 21
12.9135281374238495
 31
0.0
  0
LINE
  5
12A
100
AcDbEntity
  8
0
 62
256
370
-1
 48
1.0
  6
BYLAYER
100
AcDbLine
 10
-1.9999999999999858
 20
12.9135281374238495
 30
0.0
 11
2.0000000000000142
 21
12.9135281374238495
 31
0.0
  0
ENDBLK
  5
12B
100
AcDbEntity
  8
0
100
AcDbBlockEnd
  0
BLOCK
  5
12C
100
AcDbEntity
  8
0
100
AcDbBlockBegin
  2
Z-Key-2u+-Plate
 70
0
 10
0.0
 20
0.0
 30
0.0
  3
Z-Key-2u+-Plate
  1

  0
INSERT
  5
12D
100
AcDbEntity
  8
0
 62
256
370
-1
 48
1.0
  6
BYLAYER
100
AcDbMInsertBlock
  2
Z-Stabilizer-Plate
 10
-11.8000000000000007
 20
0.0
 30
0.0
 70
2
 71
1
 44
23.6000000000000014
 45
0.0
  0
INSERT
  5
12E
100
AcDbEntity
  8
0
 62
256
370
-1
 48
1.0
  6
BYLAYER
100
AcDbBlockReference
  2
Z-Switch-Plate
 10
0.0
 20
0.0
 30
0.0
  0
ENDBLK
  5
12F
100
AcDbEntity
  8
0
100
AcDbBlockEnd
  0
BLOCK
  5
130
100
AcDbEntity
  8
0
100
AcDbBlockBegin
  2
Key_1.25u_Layout
 70
0
 10
0.0
 20
0.0
 30
0.0
  3
Key_1.25u_Layout
  1

  0
LWPOLYLINE
  5
131
100
AcDbEntity
  8
0
 62
256
370
-1
 48
1.0
  6
BYLAYER
100
AcDbPolyline
 90
4
 70
129
 10
0.0
 20
0.0
 10
23.8125
 20
0.0
 10
23.8125
 20
19.0500000000000007
 10
0.0
 20
19.0500000000000007
  0
ENDBLK
  5
132
100
AcDbEntity
  8
0
100
AcDbBlockEnd
  0
BLOCK
  5
133
100
AcDbEntity
  8
0
100
AcDbBlockBegin
  2
Key_1.0u_Well
 70
0
 10
0.0
 20
0.0
 30
0.0
  3
Key_1.0u_Well
  1

  0
INSERT
  5
134
100
AcDbEntity
  8
0
 62
256
370
-1
 48
1.0
  6
BYLAYER
100
AcDbBlockReference
  2
Z-Switch-Well
 10
9.5250000000000004
 20
9.5250000000000004
 30
0.0
  0
ENDBLK
  5
135
100
AcDbEntity
  8
0
100
AcDbBlockEnd
  0
ENDSEC
  0
SECTION
  2
ENTITIES
  0
INSERT
  5
136
100
AcDbEntity
  8
Layout
 62
256
370
-1
 48
1.0
  6
BYLAYER
100
AcDbMInsertBlock
  2
Key_1.0u_Layout
 10
19.9999999999999893
 20
212.5000000000000284
 30
0.0
 50
10.0
 70
1
 71
2
 44
19.0500000000000007
 45
19.0500000000000007
  0
INSERT
  5
137
100
AcDbEntity
  8
Layout
 62
256
370
-1
 48
1.0
  6
BYLAYER
100
AcDbBlockReference
  2
Key_2.0u_Layout
 10
57.5211753897651477
 20
219.1159955691100265
 30
0.0
 50
100.0
  0
INSERT
  5
138
100
AcDbEntity
  8
Board Template
 62
256
370
-1
 48
1.0
  6
BYLAYER
100
AcDbBlockReference
  2
Board
 10
56.0981817178363968
 20
278.7241123738678539
 30
0.0
 50
20.0
  0
INSERT
  5
139
100
AcDbEntity
  8
Layout
 62
256
370
-1
 48
1.0
  6
BYLAYER
100
AcDbMInsertBlock
  2
Key_1.0u_Layout
 10
93.323464241708237
 20
232.1469630298179823
 30
0.0
 50
30.0
 70
2
 71
2
 44
19.0500000000000007
 45
19.0500000000000007
  0
INSERT
  5
13A
100
AcDbEntity
  8
Board Template
 62
256
370
-1
 48
1.0
  6
BYLAYER
100
AcDbBlockReference
  2
Board
 10
56.0981817178363968
 20
278.7241123738678539
 30
0.0
 50
20.0
  0
LWPOLYLINE
  5
13B
100
AcDbEntity
  8
SheetBoundary
 62
256
370
-1
 48
1.0
  6
BYLAYER
100
AcDbPolyline
 90
4
 70
129
 10
0.0
 20
0.0
 10
420.0
 20
0.0
 10
420.0
 20
297.0
 10
0.0
 20
297.0
  0
LINE
  5
13C
100
AcDbEntity
  8
Well
 62
256
370
-1
 48
1.0
  6
BYLAYER
100
AcDbLine
 10
51.8695649242998087
 20
277.1850217289023703
 30
0.0
 11
53.7506757125909829
 21
272.0167123145798769
 31
0.0
  0
LINE
  5
13D
100
AcDbEntity
  8
Base
 62
256
370
-1
 48
1.0
  6
BYLAYER
100
AcDbLine
 10
51.8695649242998087
 20
277.1850217289023703
 30
0.0
 11
53.7506757125909829
 21
272.0167123145798769
 31
0.0
  0
LINE
  5
13E
100
AcDbEntity
  8
Support
 62
256
370
-1
 48
1.0
  6
BYLAYER
100
AcDbLine
 10
51.8695649242998087
 20
277.1850217289023703
 30
0.0
 11
53.7506757125909829
 21
272.0167123145798769
 31
0.0
  0
LINE
  5
13F
100
AcDbEntity
  8
Well
 62
256
370
-1
 48
1.0
  6
BYLAYER
100
AcDbLine
 10
53.7506757125909829
 20
272.0167123145798769
 30
0.0
 11
49.5220589190543947
 21
270.4776216696143365
 31
0.0
  0
LINE
  5
140
100
AcDbEntity
  8
Base
 62
256
370
-1
 48
1.0
  6
BYLAYER
100
AcDbLine
 10
53.7506757125909829
 20
272.0167123145798769
 30
0.0
 11
49.5220589190543947
 21
270.4776216696143365
 31
0.0
  0
LINE
  5
141
100
AcDbEntity
  8
Support
 62
256
370
-1
 48
1.0
  6
BYLAYER
100
AcDbLine
 10
53.7506757125909829
 20
272.0167123145798769
 30
0.0
 11
49.5220589190543947
 21
270.4776216696143365
 31
0.0
  0
LINE
  5
142
100
AcDbEntity
  8
Well
 62
256
370
-1
 48
1.0
  6
BYLAYER
100
AcDbLine
 10
49.5220589190543947
 20
270.4776216696143365
 30
0.0
 11
66.9650862286634663
 21
222.5532980095329947
 31
0.0
  0
LINE
  5
143
100
AcDbEntity
  8
Base
 62
256
370
-1
 48
1.0
  6
BYLAYER
100
AcDbLine
 10
49.5220589190543947
 20
270.4776216696143365
 30
0.0
 11
66.9650862286634663
 21
222.5532980095329947
 31
0.0
  0
LINE
  5
144
100
AcDbEntity
  8
Support
 62
256
370
-1
 48
1.0
  6
BYLAYER
100
AcDbLine
 10
49.5220589190543947
 20
270.4776216696143365
 30
0.0
 11
50.2060992057057263
 21
268.5982364280425259
 31
0.0
  0
LINE
  5
145
100
AcDbEntity
  8
Support
 62
256
370
-1
 48
1.0
  6
BYLAYER
100
AcDbLine
 10
65.597005655360789
 20
226.3120684926766444
 30
0.0
 11
66.9650862286634663
 21
222.5532980095329947
 31
0.0
  0
LINE
  5
146
100
AcDbEntity
  8
Well
 62
256
370
-1
 48
1.0
  6
BYLAYER
100
AcDbLine
 10
66.9650862286634663
 20
222.5532980095329947
 30
0.0
 11
83.8795534028098189
 21
228.7096605893950141
 31
0.0
  0
LINE
  5
147
100
AcDbEntity
  8
Base
 62
256
370
-1
 48
1.0
  6
BYLAYER
100
AcDbLine
 10
66.9650862286634663
 20
222.5532980095329947
 30
0.0
 11
83.8795534028098189
 21
228.7096605893950141
 31
0.0
  0
LINE
  5
148
100
AcDbEntity
  8
Support
 62
256
370
-1
 48
1.0
  6
BYLAYER
100
AcDbLine
 10
66.9650862286634663
 20
222.5532980095329947
 30
0.0
 11
83.8795534028098189
 21
228.7096605893950141
 31
0.0
  0
LINE
  5
149
100
AcDbEntity
  8
Well
 62
256
370
-1
 48
1.0
  6
BYLAYER
100
AcDbLine
 10
83.8795534028098189
 20
228.7096605893950141
 30
0.0
 11
66.4365260932007544
 21
276.6339842494763843
 31
0.0
  0
LINE
  5
14A
100
AcDbEntity
  8
Base
 62
256
370
-1
 48
1.0
  6
BYLAYER
100
AcDbLine
 10
83.8795534028098189
 20
228.7096605893950141
 30
0.0
 11
66.4365260932007544
 21
276.6339842494763843
 31
0.0
  0
LINE
  5
14B
100
AcDbEntity
  8
Support
 62
256
370
-1
 48
1.0
  6
BYLAYER
100
AcDbLine
 10
83.8795534028098189
 20
228.7096605893950141
 30
0.0
 11
82.5114728295071558
 21
232.4684310725386354
 31
0.0
  0
LINE
  5
14C
100
AcDbEntity
  8
Support
 62
256
370
-1
 48
1.0
  6
BYLAYER
100
AcDbLine
 10
67.1205663798520504
 20
274.7545990079046874
 30
0.0
 11
66.4365260932007544
 21
276.6339842494763843
 31
0.0
  0
LINE
  5
14D
100
AcDbEntity
  8
Well
 62
256
370
-1
 48
1.0
  6
BYLAYER
100
AcDbLine
 10
66.4365260932007544
 20
276.6339842494763843
 30
0.0
 11
62.2079092996641592
 21
275.0948936045108439
 31
0.0
  0
LINE
  5
14E
100
AcDbEntity
  8
Base
 62
256
370
-1
 48
1.0
  6
BYLAYER
100
AcDbLine
 10
66.4365260932007544
 20
276.6339842494763843
 30
0.0
 11
62.2079092996641592
 21
275.0948936045108439
 31
0.0
  0
LINE
  5
14F
100
AcDbEntity
  8
Support
 62
256
370
-1
 48
1.0
  6
BYLAYER
100
AcDbLine
 10
66.4365260932007544
 20
276.6339842494763843
 30
0.0
 11
62.2079092996641592
 21
275.0948936045108439
 31
0.0
  0
LINE
  5
150
100
AcDbEntity
  8
Well
 62
256
370
-1
 48
1.0
  6
BYLAYER
100
AcDbLine
 10
62.2079092996641592
 20
275.0948936045108439
 30
0.0
 11
60.326798511372985
 21
280.2632030188333374
 31
0.0
  0
LINE
  5
151
100
AcDbEntity
  8
Base
 62
256
370
-1
 48
1.0
  6
BYLAYER
100
AcDbLine
 10
62.2079092996641592
 20
275.0948936045108439
 30
0.0
 11
60.326798511372985
 21
280.2632030188333374
 31
0.0
  0
LINE
  5
152
100
AcDbEntity
  8
Support
 62
256
370
-1
 48
1.0
  6
BYLAYER
100
AcDbLine
 10
62.2079092996641592
 20
275.0948936045108439
 30
0.0
 11
60.326798511372985
 21
280.2632030188333374
 31
0.0
  0
LINE
  5
153
100
AcDbEntity
  8
SheetBoundary
 62
256
370
-1
 48
1.0
  6
BYLAYER
100
AcDbLine
 10
0.0000000000000036
 20
175.6363141978985993
 30
0.0
 11
144.609167387895468
 21
220.099477733831975
 31
0.0
  0
LINE
  5
154
100
AcDbEntity
  8
SheetBoundary
 62
256
370
-1
 48
1.0
  6
BYLAYER
100
AcDbLine
 10
144.609167387895468
 20
220.099477733831975
 30
0.0
 11
270.1042560581366274
 21
297.0
 31
0.0
  0
LINE
  5
155
100
AcDbEntity
  8
TopCover
 62
256
370
-1
 48
1.0
  6
BYLAYER
100
AcDbLine
 10
19.9999999999999964
 20
212.5
 30
0.0
 11
13.3840044308899433
 21
250.0211753897651761
 31
0.0
  0
LINE
  5
156
100
AcDbEntity
  8
Support
 62
256
370
-1
 48
1.0
  6
BYLAYER
100
AcDbLine
 10
19.9999999999999964
 20
212.5
 30
0.0
 11
13.3840044308899433
 21
250.0211753897651761
 31
0.0
  0
LINE
  5
157
100
AcDbEntity
  8
TopCover
 62
256
370
-1
 48
1.0
  6
BYLAYER
100
AcDbLine
 10
13.3840044308899433
 20
250.0211753897651761
 30
0.0
 11
50.9051798206550998
 21
256.6371709588751742
 31
0.0
  0
LINE
  5
158
100
AcDbEntity
  8
Support
 62
256
370
-1
 48
1.0
  6
BYLAYER
100
AcDbLine
 10
13.3840044308899433
 20
250.0211753897651761
 30
0.0
 11
50.9051798206550998
 21
256.6371709588751742
 31
0.0
  0
LINE
  5
159
100
AcDbEntity
  8
TopCover
 62
256
370
-1
 48
1.0
  6
BYLAYER
100
AcDbLine
 10
50.9051798206550998
 20
256.6371709588751742
 30
0.0
 11
57.5211753897651334
 21
219.1159955691100265
 31
0.0
  0
LINE
  5
15A
100
AcDbEntity
  8
Support
 62
256
370
-1
 48
1.0
  6
BYLAYER
100
AcDbLine
 10
50.9051798206550998
 20
256.6371709588751742
 30
0.0
 11
51.2578337820720265
 21
254.6371709588752026
 31
0.0
  0
LINE
  5
15B
100
AcDbEntity
  8
Support
 62
256
370
-1
 48
1.0
  6
BYLAYER
100
AcDbLine
 10
56.8158674669312802
 20
223.1159955691099981
 30
0.0
 11
57.5211753897651334
 21
219.1159955691100265
 31
0.0
  0
LINE
  5
15C
100
AcDbEntity
  8
TopCover
 62
256
370
-1
 48
1.0
  6
BYLAYER
100
AcDbLine
 10
57.5211753897651334
 20
219.1159955691100265
 30
0.0
 11
20.0
 21
212.5000000000000284
 31
0.0
  0
LINE
  5
15D
100
AcDbEntity
  8
Support
 62
256
370
-1
 48
1.0
  6
BYLAYER
100
AcDbLine
 10
57.5211753897651334
 20
219.1159955691100265
 30
0.0
 11
20.0
 21
212.5000000000000284
 31
0.0
  0
LINE
  5
15E
100
AcDbEntity
  8
TopCover
 62
256
370
-1
 48
1.0
  6
BYLAYER
100
AcDbLine
 10
93.3234642417082227
 20
232.1469630298179538
 30
0.0
 11
74.273464241708254
 21
265.1425309140050786
 31
0.0
  0
LINE
  5
15F
100
AcDbEntity
  8
Support
 62
256
370
-1
 48
1.0
  6
BYLAYER
100
AcDbLine
 10
93.3234642417082227
 20
232.1469630298179538
 30
0.0
 11
91.2926110179367072
 21
235.6645039961052817
 31
0.0
  0
LINE
  5
160
100
AcDbEntity
  8
Support
 62
256
370
-1
 48
1.0
  6
BYLAYER
100
AcDbLine
 10
75.2888908535939976
 20
263.3837604308614004
 30
0.0
 11
74.2734642417082682
 21
265.1425309140050217
 31
0.0
  0
LINE
  5
161
100
AcDbEntity
  8
TopCover
 62
256
370
-1
 48
1.0
  6
BYLAYER
100
AcDbLine
 10
74.273464241708254
 20
265.1425309140050786
 30
0.0
 11
107.2690321258953645
 21
284.1925309140050899
 31
0.0
  0
LINE
  5
162
100
AcDbEntity
  8
Support
 62
256
370
-1
 48
1.0
  6
BYLAYER
100
AcDbLine
 10
74.2734642417082398
 20
265.1425309140050786
 30
0.0
 11
107.2690321258953645
 21
284.1925309140050899
 31
0.0
  0
LINE
  5
163
100
AcDbEntity
  8
TopCover
 62
256
370
-1
 48
1.0
  6
BYLAYER
100
AcDbLine
 10
107.2690321258953645
 20
284.1925309140050899
 30
0.0
 11
126.3190321258953901
 21
251.1969630298179936
 31
0.0
  0
LINE
  5
164
100
AcDbEntity
  8
Support
 62
256
370
-1
 48
1.0
  6
BYLAYER
100
AcDbLine
 10
107.2690321258953645
 20
284.1925309140050899
 30
0.0
 11
126.3190321258953901
 21
251.1969630298179936
 31
0.0
  0
LINE
  5
165
100
AcDbEntity
  8
TopCover
 62
256
370
-1
 48
1.0
  6
BYLAYER
100
AcDbLine
 10
126.3190321258953901
 20
251.1969630298179936
 30
0.0
 11
93.3234642417081801
 21
232.1469630298179254
 31
0.0
  0
LINE
  5
166
100
AcDbEntity
  8
Support
 62
256
370
-1
 48
1.0
  6
BYLAYER
100
AcDbLine
 10
126.3190321258953901
 20
251.1969630298179936
 30
0.0
 11
93.3234642417081801
 21
232.1469630298179254
 31
0.0
  0
LINE
  5
167
100
AcDbEntity
  8
Outline Template
 62
256
370
-1
 48
1.0
  6
BYLAYER
100
AcDbLine
 10
17.5225081698727223
 20
204.9551650626635535
 30
0.0
 11
64.7222314561439589
 21
213.2777497600067136
 31
0.0
  0
LINE
  5
168
100
AcDbEntity
  8
Well
 62
256
370
-1
 48
1.0
  6
BYLAYER
100
AcDbLine
 10
17.5225081698727223
 20
204.9551650626635535
 30
0.0
 11
64.7222314561439589
 21
213.2777497600067136
 31
0.0
  0
LINE
  5
169
100
AcDbEntity
  8
Plate
 62
256
370
-1
 48
1.0
  6
BYLAYER
100
AcDbLine
 10
17.5225081698727223
 20
204.9551650626635535
 30
0.0
 11
64.7222314561439589
 21
213.2777497600067136
 31
0.0
  0
LINE
  5
16A
100
AcDbEntity
  8
Base
 62
256
370
-1
 48
1.0
  6
BYLAYER
100
AcDbLine
 10
17.5225081698727223
 20
204.9551650626635535
 30
0.0
 11
64.7222314561439589
 21
213.2777497600067136
 31
0.0
  0
LINE
  5
16B
100
AcDbEntity
  8
TopCover
 62
256
370
-1
 48
1.0
  6
BYLAYER
100
AcDbLine
 10
17.5225081698727223
 20
204.9551650626635535
 30
0.0
 11
64.7222314561439589
 21
213.2777497600067136
 31
0.0
  0
LINE
  5
16C
100
AcDbEntity
  8
Support
 62
256
370
-1
 48
1.0
  6
BYLAYER
100
AcDbLine
 10
17.5225081698727223
 20
204.9551650626635535
 30
0.0
 11
64.7222314561439589
 21
213.2777497600067136
 31
0.0
  0
LINE
  5
16D
100
AcDbEntity
  8
Outline Template
 62
256
370
-1
 48
1.0
  6
BYLAYER
100
AcDbLine
 10
65.2694403445348428
 20
213.4243739397421962
 30
0.0
 11
91.0464527916749944
 21
222.8064391988105797
 31
0.0
  0
LINE
  5
16E
100
AcDbEntity
  8
Well
 62
256
370
-1
 48
1.0
  6
BYLAYER
100
AcDbLine
 10
65.2694403445348428
 20
213.4243739397421962
 30
0.0
 11
91.0464527916749944
 21
222.8064391988105797
 31
0.0
  0
LINE
  5
16F
100
AcDbEntity
  8
Plate
 62
256
370
-1
 48
1.0
  6
BYLAYER
100
AcDbLine
 10
65.2694403445348428
 20
213.4243739397421962
 30
0.0
 11
91.0464527916749944
 21
222.8064391988105797
 31
0.0
  0
LINE
  5
170
100
AcDbEntity
  8
Base
 62
256
370
-1
 48
1.0
  6
BYLAYER
100
AcDbLine
 10
65.2694403445348428
 20
213.4243739397421962
 30
0.0
 11
91.0464527916749944
 21
222.8064391988105797
 31
0.0
  0
LINE
  5
171
100
AcDbEntity
  8
TopCover
 62
256
370
-1
 48
1.0
  6
BYLAYER
100
AcDbLine
 10
65.2694403445348428
 20
213.4243739397421962
 30
0.0
 11
91.0464527916749944
 21
222.8064391988105797
 31
0.0
  0
LINE
  5
172
100
AcDbEntity
  8
Support
 62
256
370
-1
 48
1.0
  6
BYLAYER
100
AcDbLine
 10
65.2694403445348428
 20
213.4243739397421962
 30
0.0
 11
91.0464527916749944
 21
222.8064391988105797
 31
0.0
  0
LINE
  5
173
100
AcDbEntity
  8
Outline Template
 62
256
370
-1
 48
1.0
  6
BYLAYER
100
AcDbLine
 10
91.5598873258665691
 20
223.0458576540653723
 30
0.0
 11
133.0666273900869783
 21
247.0097852033269135
 31
0.0
  0
LINE
  5
174
100
AcDbEntity
  8
Well
 62
256
370
-1
 48
1.0
  6
BYLAYER
100
AcDbLine
 10
91.5598873258665691
 20
223.0458576540653723
 30
0.0
 11
133.0666273900869783
 21
247.0097852033269135
 31
0.0
  0
LINE
  5
175
100
AcDbEntity
  8
Plate
 62
256
370
-1
 48
1.0
  6
BYLAYER
100
AcDbLine
 10
91.5598873258665691
 20
223.0458576540653723
 30
0.0
 11
133.0666273900869783
 21
247.0097852033269135
 31
0.0
  0
LINE
  5
176
100
AcDbEntity
  8
Base
 62
256
370
-1
 48
1.0
  6
BYLAYER
100
AcDbLine
 10
91.5598873258665691
 20
223.0458576540653723
 30
0.0
 11
133.0666273900869783
 21
247.0097852033269135
 31
0.0
  0
LINE
  5
177
100
AcDbEntity
  8
TopCover
 62
256
370
-1
 48
1.0
  6
BYLAYER
100
AcDbLine
 10
91.5598873258665691
 20
223.0458576540653723
 30
0.0
 11
133.0666273900869783
 21
247.0097852033269135
 31
0.0
  0
LINE
  5
178
100
AcDbEntity
  8
Support
 62
256
370
-1
 48
1.0
  6
BYLAYER
100
AcDbLine
 10
91.5598873258665691
 20
223.0458576540653723
 30
0.0
 11
133.0666273900869783
 21
247.0097852033269135
 31
0.0
  0
LINE
  5
179
100
AcDbEntity
  8
Outline Template
 62
256
370
-1
 48
1.0
  6
BYLAYER
100
AcDbLine
 10
134.2562099523864561
 20
251.4493677656263628
 30
0.0
 11
111.0594385612439225
 21
291.6273543866453224
 31
0.0
  0
LINE
  5
17A
100
AcDbEntity
  8
Well
 62
256
370
-1
 48
1.0
  6
BYLAYER
100
AcDbLine
 10
134.2562099523864561
 20
251.4493677656263628
 30
0.0
 11
111.0594385612439225
 21
291.6273543866453224
 31
0.0
  0
LINE
  5
17B
100
AcDbEntity
  8
Plate
 62
256
370
-1
 48
1.0
  6
BYLAYER
100
AcDbLine
 10
134.2562099523864561
 20
251.4493677656263628
 30
0.0
 11
111.0594385612439225
 21
291.6273543866453224
 31
0.0
  0
LINE
  5
17C
100
AcDbEntity
  8
Base
 62
256
370
-1
 48
1.0
  6
BYLAYER
100
AcDbLine
 10
134.2562099523864561
 20
251.4493677656263628
 30
0.0
 11
111.0594385612439225
 21
291.6273543866453224
 31
0.0
  0
LINE
  5
17D
100
AcDbEntity
  8
TopCover
 62
256
370
-1
 48
1.0
  6
BYLAYER
100
AcDbLine
 10
134.2562099523864561
 20
251.4493677656263628
 30
0.0
 11
111.0594385612439225
 21
291.6273543866453224
 31
0.0
  0
LINE
  5
17E
100
AcDbEntity
  8
Support
 62
256
370
-1
 48
1.0
  6
BYLAYER
100
AcDbLine
 10
134.2562099523864561
 20
251.4493677656263628
 30
0.0
 11
111.0594385612439225
 21
291.6273543866453224
 31
0.0
  0
LINE
  5
17F
100
AcDbEntity
  8
Outline Template
 62
256
370
-1
 48
1.0
  6
BYLAYER
100
AcDbLine
 10
107.4494557732310653
 20
293.1535190095958683
 30
0.0
 11
69.4144363660817305
 21
283.5529215666301752
 31
0.0
  0
LINE
  5
180
100
AcDbEntity
  8
Well
 62
256
370
-1
 48
1.0
  6
BYLAYER
100
AcDbLine
 10
107.4494557732310653
 20
293.1535190095958683
 30
0.0
 11
69.4144363660817305
 21
283.5529215666301752
 31
0.0
  0
LINE
  5
181
100
AcDbEntity
  8
Plate
 62
256
370
-1
 48
1.0
  6
BYLAYER
100
AcDbLine
 10
107.4494557732310653
 20
293.1535190095958683
 30
0.0
 11
69.4144363660817305
 21
283.5529215666301752
 31
0.0
  0
LINE
  5
182
100
AcDbEntity
  8
Base
 62
256
370
-1
 48
1.0
  6
BYLAYER
100
AcDbLine
 10
107.4494557732310653
 20
293.1535190095958683
 30
0.0
 11
69.4144363660817305
 21
283.5529215666301752
 31
0.0
  0
LINE
  5
183
100
AcDbEntity
  8
TopCover
 62
256
370
-1
 48
1.0
  6
BYLAYER
100
AcDbLine
 10
107.4494557732310653
 20
293.1535190095958683
 30
0.0
 11
69.4144363660817305
 21
283.5529215666301752
 31
0.0
  0
LINE
  5
184
100
AcDbEntity
  8
Support
 62
256
370
-1
 48
1.0
  6
BYLAYER
100
AcDbLine
 10
107.4494557732310653
 20
293.1535190095958683
 30
0.0
 11
69.4144363660817305
 21
283.5529215666301752
 31
0.0
  0
LINE
  5
185
100
AcDbEntity
  8
Outline Template
 62
256
370
-1
 48
1.0
  6
BYLAYER
100
AcDbLine
 10
69.0982711259868125
 20
283.4557579612338145
 30
0.0
 11
43.0980923096860096
 21
273.9924667865018364
 31
0.0
  0
LINE
  5
186
100
AcDbEntity
  8
Well
 62
256
370
-1
 48
1.0
  6
BYLAYER
100
AcDbLine
 10
69.0982711259868125
 20
283.4557579612338145
 30
0.0
 11
60.3267985113729566
 21
280.2632030188332806
 31
0.0
  0
LINE
  5
187
100
AcDbEntity
  8
Well
 62
256
370
-1
 48
1.0
  6
BYLAYER
100
AcDbLine
 10
51.8695649242997874
 20
277.1850217289023135
 30
0.0
 11
43.0980923096860096
 21
273.9924667865018364
 31
0.0
  0
LINE
  5
188
100
AcDbEntity
  8
Plate
 62
256
370
-1
 48
1.0
  6
BYLAYER
100
AcDbLine
 10
69.0982711259868125
 20
283.4557579612338145
 30
0.0
 11
43.0980923096860096
 21
273.9924667865018364
 31
0.0
  0
LINE
  5
189
100
AcDbEntity
  8
Base
 62
256
370
-1
 48
1.0
  6
BYLAYER
100
AcDbLine
 10
69.0982711259868125
 20
283.4557579612338145
 30
0.0
 11
60.3267985113729566
 21
280.2632030188332806
 31
0.0
  0
LINE
  5
18A
100
AcDbEntity
  8
Base
 62
256
370
-1
 48
1.0
  6
BYLAYER
100
AcDbLine
 10
51.8695649242997874
 20
277.1850217289023135
 30
0.0
 11
43.0980923096860096
 21
273.9924667865018364
 31
0.0
  0
LINE
  5
18B
100
AcDbEntity
  8
TopCover
 62
256
370
-1
 48
1.0
  6
BYLAYER
100
AcDbLine
 10
69.0982711259868125
 20
283.4557579612338145
 30
0.0
 11
43.0980923096860096
 21
273.9924667865018364
 31
0.0
  0
LINE
  5
18C
100
AcDbEntity
  8
Support
 62
256
370
-1
 48
1.0
  6
BYLAYER
100
AcDbLine
 10
69.0982711259868125
 20
283.4557579612338145
 30
0.0
 11
60.3267985113729566
 21
280.2632030188332806
 31
0.0
  0
LINE
  5
18D
100
AcDbEntity
  8
Support
 62
256
370
-1
 48
1.0
  6
BYLAYER
100
AcDbLine
 10
51.8695649242997874
 20
277.1850217289023135
 30
0.0
 11
43.0980923096860096
 21
273.9924667865018364
 31
0.0
  0
LINE
  5
18E
100
AcDbEntity
  8
Outline Template
 62
256
370
-1
 48
1.0
  6
BYLAYER
100
AcDbLine
 10
42.7934401227426164
 20
273.8636713275425336
 30
0.0
 11
7.4857797800468546
 21
256.7697164402459293
 31
0.0
  0
LINE
  5
18F
100
AcDbEntity
  8
Well
 62
256
370
-1
 48
1.0
  6
BYLAYER
100
AcDbLine
 10
42.7934401227426164
 20
273.8636713275425336
 30
0.0
 11
7.4857797800468546
 21
256.7697164402459293
 31
0.0
  0
LINE
  5
190
100
AcDbEntity
  8
Plate
 62
256
370
-1
 48
1.0
  6
BYLAYER
100
AcDbLine
 10
42.7934401227426164
 20
273.8636713275425336
 30
0.0
 11
7.4857797800468546
 21
256.7697164402459293
 31
0.0
  0
LINE
  5
191
100
AcDbEntity
  8
Base
 62
256
370
-1
 48
1.0
  6
BYLAYER
100
AcDbLine
 10
42.7934401227426164
 20
273.8636713275425336
 30
0.0
 11
7.4857797800468546
 21
256.7697164402459293
 31
0.0
  0
LINE
  5
192
100
AcDbEntity
  8
TopCover
 62
256
370
-1
 48
1.0
  6
BYLAYER
100
AcDbLine
 10
42.7934401227426164
 20
273.8636713275425336
 30
0.0
 11
7.4857797800468546
 21
256.7697164402459293
 31
0.0
  0
LINE
  5
193
100
AcDbEntity
  8
Support
 62
256
370
-1
 48
1.0
  6
BYLAYER
100
AcDbLine
 10
42.7934401227426164
 20
273.8636713275425336
 30
0.0
 11
7.4857797800468546
 21
256.7697164402459293
 31
0.0
  0
LINE
  5
194
100
AcDbEntity
  8
Outline Template
 62
256
370
-1
 48
1.0
  6
BYLAYER
100
AcDbLine
 10
5.7013722355089582
 20
253.2801543042335766
 30
0.0
 11
13.7575263951655273
 21
207.5914336825356656
 31
0.0
  0
LINE
  5
195
100
AcDbEntity
  8
Well
 62
256
370
-1
 48
1.0
  6
BYLAYER
100
AcDbLine
 10
5.7013722355089582
 20
253.2801543042335766
 30
0.0
 11
13.7575263951655273
 21
207.5914336825356656
 31
0.0
  0
LINE
  5
196
100
AcDbEntity
  8
Plate
 62
256
370
-1
 48
1.0
  6
BYLAYER
100
AcDbLine
 10
5.7013722355089582
 20
253.2801543042335766
 30
0.0
 11
13.7575263951655273
 21
207.5914336825356656
 31
0.0
  0
LINE
  5
197
100
AcDbEntity
  8
Base
 62
256
370
-1
 48
1.0
  6
BYLAYER
100
AcDbLine
 10
5.7013722355089582
 20
253.2801543042335766
 30
0.0
 11
13.7575263951655273
 21
207.5914336825356656
 31
0.0
  0
LINE
  5
198
100
AcDbEntity
  8
TopCover
 62
256
370
-1
 48
1.0
  6
BYLAYER
100
AcDbLine
 10
5.7013722355089582
 20
253.2801543042335766
 30
0.0
 11
13.7575263951655273
 21
207.5914336825356656
 31
0.0
  0
LINE
  5
199
100
AcDbEntity
  8
Support
 62
256
370
-1
 48
1.0
  6
BYLAYER
100
AcDbLine
 10
5.7013722355089582
 20
253.2801543042335766
 30
0.0
 11
13.7575263951655273
 21
207.5914336825356656
 31
0.0
  0
CIRCLE
  5
19A
100
AcDbEntity
  8
Outline Template
 62
256
370
-1
 48
1.0
  6
BYLAYER
100
AcDbCircle
 10
8.9019974327986375
 20
253.8445108816511038
 30
0.0
 40
1.4999999999999973
  0
CIRCLE
  5
19B
100
AcDbEntity
  8
Well
 62
256
370
-1
 48
1.0
  6
BYLAYER
100
AcDbCircle
 10
8.9019974327986375
 20
253.8445108816511038
 30
0.0
 40
1.4999999999999973
  0
CIRCLE
  5
19C
100
AcDbEntity
  8
Plate
 62
256
370
-1
 48
1.0
  6
BYLAYER
100
AcDbCircle
 10
8.9019974327986375
 20
253.8445108816511038
 30
0.0
 40
1.4999999999999973
  0
CIRCLE
  5
19D
100
AcDbEntity
  8
Base
 62
256
370
-1
 48
1.0
  6
BYLAYER
100
AcDbCircle
 10
8.9019974327986375
 20
253.8445108816511038
 30
0.0
 40
1.4999999999999973
  0
CIRCLE
  5
19E
100
AcDbEntity
  8
TopCover
 62
256
370
-1
 48
1.0
  6
BYLAYER
100
AcDbCircle
 10
8.9019974327986375
 20
253.8445108816511038
 30
0.0
 40
1.4999999999999973
  0
CIRCLE
  5
19F
100
AcDbEntity
  8
Support
 62
256
370
-1
 48
1.0
  6
BYLAYER
100
AcDbCircle
 10
8.9019974327986375
 20
253.8445108816511038
 30
0.0
 40
1.4999999999999973
  0
CIRCLE
  5
1A0
100
AcDbEntity
  8
Outline Template
 62
256
370
-1
 48
1.0
  6
BYLAYER
100
AcDbCircle
 10
16.9581515924551987
 20
208.1557902599532213
 30
0.0
 40
1.4999999999999973
  0
CIRCLE
  5
1A1
100
AcDbEntity
  8
Well
 62
256
370
-1
 48
1.0
  6
BYLAYER
100
AcDbCircle
 10
16.9581515924551987
 20
208.1557902599532213
 30
0.0
 40
1.4999999999999973
  0
CIRCLE
  5
1A2
100
AcDbEntity
  8
Plate
 62
256
370
-1
 48
1.0
  6
BYLAYER
100
AcDbCircle
 10
16.9581515924551987
 20
208.1557902599532213
 30
0.0
 40
1.4999999999999973
  0
CIRCLE
  5
1A3
100
AcDbEntity
  8
Base
 62
256
370
-1
 48
1.0
  6
BYLAYER
100
AcDbCircle
 10
16.9581515924551987
 20
208.1557902599532213
 30
0.0
 40
1.4999999999999973
  0
CIRCLE
  5
1A4
100
AcDbEntity
  8
TopCover
 62
256
370
-1
 48
1.0
  6
BYLAYER
100
AcDbCircle
 10
16.9581515924551987
 20
208.1557902599532213
 30
0.0
 40
1.4999999999999973
  0
CIRCLE
  5
1A5
100
AcDbEntity
  8
Support
 62
256
370
-1
 48
1.0
  6
BYLAYER
100
AcDbCircle
 10
16.9581515924551987
 20
208.1557902599532213
 30
0.0
 40
1.4999999999999973
  0
CIRCLE
  5
1A6
100
AcDbEntity
  8
Outline Template
 62
256
370
-1
 48
1.0
  6
BYLAYER
100
AcDbCircle
 10
131.4416273900870067
 20
249.8243677656263628
 30
0.0
 40
1.4999999999999944
  0
CIRCLE
  5
1A7
100
AcDbEntity
  8
Well
 62
256
370
-1
 48
1.0
  6
BYLAYER
100
AcDbCircle
 10
131.4416273900870067
 20
249.8243677656263628
 30
0.0
 40
1.4999999999999944
  0
CIRCLE
  5
1A8
100
AcDbEntity
  8
Plate
 62
256
370
-1
 48
1.0
  6
BYLAYER
100
AcDbCircle
 10
131.4416273900870067
 20
249.8243677656263628
 30
0.0
 40
1.4999999999999944
  0
CIRCLE
  5
1A9
100
AcDbEntity
  8
Base
 62
256
370
-1
 48
1.0
  6
BYLAYER
100
AcDbCircle
 10
131.4416273900870067
 20
249.8243677656263628
 30
0.0
 40
1.4999999999999944
  0
CIRCLE
  5
1AA
100
AcDbEntity
  8
TopCover
 62
256
370
-1
 48
1.0
  6
BYLAYER
100
AcDbCircle
 10
131.4416273900870067
 20
249.8243677656263628
 30
0.0
 40
1.4999999999999944
  0
CIRCLE
  5
1AB
100
AcDbEntity
  8
Support
 62
256
370
-1
 48
1.0
  6
BYLAYER
100
AcDbCircle
 10
131.4416273900870067
 20
249.8243677656263628
 30
0.0
 40
1.4999999999999944
  0
CIRCLE
  5
1AC
100
AcDbEntity
  8
Outline Template
 62
256
370
-1
 48
1.0
  6
BYLAYER
100
AcDbCircle
 10
108.24485599894453
 20
290.0023543866453224
 30
0.0
 40
1.5000000000000202
  0
CIRCLE
  5
1AD
100
AcDbEntity
  8
Well
 62
256
370
-1
 48
1.0
  6
BYLAYER
100
AcDbCircle
 10
108.24485599894453
 20
290.0023543866453224
 30
0.0
 40
1.5000000000000202
  0
CIRCLE
  5
1AE
100
AcDbEntity
  8
Plate
 62
256
370
-1
 48
1.0
  6
BYLAYER
100
AcDbCircle
 10
108.24485599894453
 20
290.0023543866453224
 30
0.0
 40
1.5000000000000202
  0
CIRCLE
  5
1AF
100
AcDbEntity
  8
Base
 62
256
370
-1
 48
1.0
  6
BYLAYER
100
AcDbCircle
 10
108.24485599894453
 20
290.0023543866453224
 30
0.0
 40
1.5000000000000202
  0
CIRCLE
  5
1B0
100
AcDbEntity
  8
TopCover
 62
256
370
-1
 48
1.0
  6
BYLAYER
100
AcDbCircle
 10
108.24485599894453
 20
290.0023543866453224
 30
0.0
 40
1.5000000000000202
  0
CIRCLE
  5
1B1
100
AcDbEntity
  8
Support
 62
256
370
-1
 48
1.0
  6
BYLAYER
100
AcDbCircle
 10
108.24485599894453
 20
290.0023543866453224
 30
0.0
 40
1.5000000000000202
  0
ARC
  5
1B2
100
AcDbEntity
  8
Outline Template
 62
256
370
-1
 48
1.0
  6
BYLAYER
100
AcDbCircle
 10
108.24485599894453
 20
290.0023543866453224
 30
0.0
 40
3.25
100
AcDbArc
 50
30.0000000000001599
 51
104.1663822546590836
  0
ARC
  5
1B3
100
AcDbEntity
  8
Well
 62
256
370
-1
 48
1.0
  6
BYLAYER
100
AcDbCircle
 10
108.24485599894453
 20
290.0023543866453224
 30
0.0
 40
3.25
100
AcDbArc
 50
30.0000000000001599
 51
104.1663822546590836
  0
ARC
  5
1B4
100
AcDbEntity
  8
Plate
 62
256
370
-1
 48
1.0
  6
BYLAYER
100
AcDbCircle
 10
108.24485599894453
 20
290.0023543866453224
 30
0.0
 40
3.25
100
AcDbArc
 50
30.0000000000001599
 51
104.1663822546590836
  0
ARC
  5
1B5
100
AcDbEntity
  8
Base
 62
256
370
-1
 48
1.0
  6
BYLAYER
100
AcDbCircle
 10
108.24485599894453
 20
290.0023543866453224
 30
0.0
 40
3.25
100
AcDbArc
 50
30.0000000000001599
 51
104.1663822546590836
  0
ARC
  5
1B6
100
AcDbEntity
  8
TopCover
 62
256
370
-1
 48
1.0
  6
BYLAYER
100
AcDbCircle
 10
108.24485599894453
 20
290.0023543866453224
 30
0.0
 40
3.25
100
AcDbArc
 50
30.0000000000001599
 51
104.1663822546590836
  0
ARC
  5
1B7
100
AcDbEntity
  8
Support
 62
256
370
-1
 48
1.0
  6
BYLAYER
100
AcDbCircle
 10
108.24485599894453
 20
290.0023543866453224
 30
0.0
 40
3.25
100
AcDbArc
 50
30.0000000000001599
 51
104.1663822546590836
  0
ARC
  5
1B8
100
AcDbEntity
  8
Outline Template
 62
256
370
-1
 48
1.0
  6
BYLAYER
100
AcDbCircle
 10
131.4416273900870067
 20
249.8243677656263344
 30
0.0
 40
3.25
100
AcDbArc
 50
300.0000000000000568
 51
30.0000000000002345
  0
ARC
  5
1B9
100
AcDbEntity
  8
Well
 62
256
370
-1
 48
1.0
  6
BYLAYER
100
AcDbCircle
 10
131.4416273900870067
 20
249.8243677656263344
 30
0.0
 40
3.25
100
AcDbArc
 50
300.0000000000000568
 51
30.0000000000002345
  0
ARC
  5
1BA
100
AcDbEntity
  8
Plate
 62
256
370
-1
 48
1.0
  6
BYLAYER
100
AcDbCircle
 10
131.4416273900870067
 20
249.8243677656263344
 30
0.0
 40
3.25
100
AcDbArc
 50
300.0000000000000568
 51
30.0000000000002345
  0
ARC
  5
1BB
100
AcDbEntity
  8
Base
 62
256
370
-1
 48
1.0
  6
BYLAYER
100
AcDbCircle
 10
131.4416273900870067
 20
249.8243677656263344
 30
0.0
 40
3.25
100
AcDbArc
 50
300.0000000000000568
 51
30.0000000000002345
  0
ARC
  5
1BC
100
AcDbEntity
  8
TopCover
 62
256
370
-1
 48
1.0
  6
BYLAYER
100
AcDbCircle
 10
131.4416273900870067
 20
249.8243677656263344
 30
0.0
 40
3.25
100
AcDbArc
 50
300.0000000000000568
 51
30.0000000000002345
  0
ARC
  5
1BD
100
AcDbEntity
  8
Support
 62
256
370
-1
 48
1.0
  6
BYLAYER
100
AcDbCircle
 10
131.4416273900870067
 20
249.8243677656263344
 30
0.0
 40
3.25
100
AcDbArc
 50
300.0000000000000568
 51
30.0000000000002345
  0
ARC
  5
1BE
100
AcDbEntity
  8
Outline Template
 62
256
370
-1
 48
1.0
  6
BYLAYER
100
AcDbCircle
 10
89.9348873258665691
 20
225.8604402163647933
 30
0.0
 40
3.25
100
AcDbArc
 50
289.9999999999999432
 51
300.0000000000000568
  0
ARC
  5
1BF
100
AcDbEntity
  8
Well
 62
256
370
-1
 48
1.0
  6
BYLAYER
100
AcDbCircle
 10
89.9348873258665691
 20
225.8604402163647933
 30
0.0
 40
3.25
100
AcDbArc
 50
289.9999999999999432
 51
300.0000000000000568
  0
ARC
  5
1C0
100
AcDbEntity
  8
Plate
 62
256
370
-1
 48
1.0
  6
BYLAYER
100
AcDbCircle
 10
89.9348873258665691
 20
225.8604402163647933
 30
0.0
 40
3.25
100
AcDbArc
 50
289.9999999999999432
 51
300.0000000000000568
  0
ARC
  5
1C1
100
AcDbEntity
  8
Base
 62
256
370
-1
 48
1.0
  6
BYLAYER
100
AcDbCircle
 10
89.9348873258665691
 20
225.8604402163647933
 30
0.0
 40
3.25
100
AcDbArc
 50
289.9999999999999432
 51
300.0000000000000568
  0
ARC
  5
1C2
100
AcDbEntity
  8
TopCover
 62
256
370
-1
 48
1.0
  6
BYLAYER
100
AcDbCircle
 10
89.9348873258665691
 20
225.8604402163647933
 30
0.0
 40
3.25
100
AcDbArc
 50
289.9999999999999432
 51
300.0000000000000568
  0
ARC
  5
1C3
100
AcDbEntity
  8
Support
 62
256
370
-1
 48
1.0
  6
BYLAYER
100
AcDbCircle
 10
89.9348873258665691
 20
225.8604402163647933
 30
0.0
 40
3.25
100
AcDbArc
 50
289.9999999999999432
 51
300.0000000000000568
  0
ARC
  5
1C4
100
AcDbEntity
  8
Outline Template
 62
256
370
-1
 48
1.0
  6
BYLAYER
100
AcDbCircle
 10
64.1578748787264459
 20
216.4783749572963529
 30
0.0
 40
3.25
100
AcDbArc
 50
279.9999999999999432
 51
289.9999999999998295
  0
ARC
  5
1C5
100
AcDbEntity
  8
Well
 62
256
370
-1
 48
1.0
  6
BYLAYER
100
AcDbCircle
 10
64.1578748787264459
 20
216.4783749572963529
 30
0.0
 40
3.25
100
AcDbArc
 50
279.9999999999999432
 51
289.9999999999998295
  0
ARC
  5
1C6
100
AcDbEntity
  8
Plate
 62
256
370
-1
 48
1.0
  6
BYLAYER
100
AcDbCircle
 10
64.1578748787264459
 20
216.4783749572963529
 30
0.0
 40
3.25
100
AcDbArc
 50
279.9999999999999432
 51
289.9999999999998295
  0
ARC
  5
1C7
100
AcDbEntity
  8
Base
 62
256
370
-1
 48
1.0
  6
BYLAYER
100
AcDbCircle
 10
64.1578748787264459
 20
216.4783749572963529
 30
0.0
 40
3.25
100
AcDbArc
 50
279.9999999999999432
 51
289.9999999999998295
  0
ARC
  5
1C8
100
AcDbEntity
  8
TopCover
 62
256
370
-1
 48
1.0
  6
BYLAYER
100
AcDbCircle
 10
64.1578748787264459
 20
216.4783749572963529
 30
0.0
 40
3.25
100
AcDbArc
 50
279.9999999999999432
 51
289.9999999999998295
  0
ARC
  5
1C9
100
AcDbEntity
  8
Support
 62
256
370
-1
 48
1.0
  6
BYLAYER
100
AcDbCircle
 10
64.1578748787264459
 20
216.4783749572963529
 30
0.0
 40
3.25
100
AcDbArc
 50
279.9999999999999432
 51
289.9999999999998295
  0
ARC
  5
1CA
100
AcDbEntity
  8
Outline Template
 62
256
370
-1
 48
1.0
  6
BYLAYER
100
AcDbCircle
 10
16.9581515924552093
 20
208.1557902599531928
 30
0.0
 40
3.25
100
AcDbArc
 50
190.0000000000000568
 51
279.9999999999999432
  0
ARC
  5
1CB
100
AcDbEntity
  8
Well
 62
256
370
-1
 48
1.0
  6
BYLAYER
100
AcDbCircle
 10
16.9581515924552093
 20
208.1557902599531928
 30
0.0
 40
3.25
100
AcDbArc
 50
190.0000000000000568
 51
279.9999999999999432
  0
ARC
  5
1CC
100
AcDbEntity
  8
Plate
 62
256
370
-1
 48
1.0
  6
BYLAYER
100
AcDbCircle
 10
16.9581515924552093
 20
208.1557902599531928
 30
0.0
 40
3.25
100
AcDbArc
 50
190.0000000000000568
 51
279.9999999999999432
  0
ARC
  5
1CD
100
AcDbEntity
  8
Base
 62
256
370
-1
 48
1.0
  6
BYLAYER
100
AcDbCircle
 10
16.9581515924552093
 20
208.1557902599531928
 30
0.0
 40
3.25
100
AcDbArc
 50
190.0000000000000568
 51
279.9999999999999432
  0
ARC
  5
1CE
100
AcDbEntity
  8
TopCover
 62
256
370
-1
 48
1.0
  6
BYLAYER
100
AcDbCircle
 10
16.9581515924552093
 20
208.1557902599531928
 30
0.0
 40
3.25
100
AcDbArc
 50
190.0000000000000568
 51
279.9999999999999432
  0
ARC
  5
1CF
100
AcDbEntity
  8
Support
 62
256
370
-1
 48
1.0
  6
BYLAYER
100
AcDbCircle
 10
16.9581515924552093
 20
208.1557902599531928
 30
0.0
 40
3.25
100
AcDbArc
 50
190.0000000000000568
 51
279.9999999999999432
  0
ARC
  5
1D0
100
AcDbEntity
  8
Outline Template
 62
256
370
-1
 48
1.0
  6
BYLAYER
100
AcDbCircle
 10
8.9019974327986287
 20
253.8445108816511038
 30
0.0
 40
3.25
100
AcDbArc
 50
115.833617745340959
 51
190.0000000000000853
  0
ARC
  5
1D1
100
AcDbEntity
  8
Well
 62
256
370
-1
 48
1.0
  6
BYLAYER
100
AcDbCircle
 10
8.9019974327986287
 20
253.8445108816511038
 30
0.0
 40
3.25
100
AcDbArc
 50
115.833617745340959
 51
190.0000000000000853
  0
ARC
  5
1D2
100
AcDbEntity
  8
Plate
 62
256
370
-1
 48
1.0
  6
BYLAYER
100
AcDbCircle
 10
8.9019974327986287
 20
253.8445108816511038
 30
0.0
 40
3.25
100
AcDbArc
 50
115.833617745340959
 51
190.0000000000000853
  0
ARC
  5
1D3
100
AcDbEntity
  8
Base
 62
256
370
-1
 48
1.0
  6
BYLAYER
100
AcDbCircle
 10
8.9019974327986287
 20
253.8445108816511038
 30
0.0
 40
3.25
100
AcDbArc
 50
115.833617745340959
 51
190.0000000000000853
  0
ARC
  5
1D4
100
AcDbEntity
  8
TopCover
 62
256
370
-1
 48
1.0
  6
BYLAYER
100
AcDbCircle
 10
8.9019974327986287
 20
253.8445108816511038
 30
0.0
 40
3.25
100
AcDbArc
 50
115.833617745340959
 51
190.0000000000000853
  0
ARC
  5
1D5
100
AcDbEntity
  8
Support
 62
256
370
-1
 48
1.0
  6
BYLAYER
100
AcDbCircle
 10
8.9019974327986287
 20
253.8445108816511038
 30
0.0
 40
3.25
100
AcDbArc
 50
115.833617745340959
 51
190.0000000000000853
  0
ARC
  5
1D6
100
AcDbEntity
  8
Outline Template
 62
256
370
-1
 48
1.0
  6
BYLAYER
100
AcDbCircle
 10
44.2096577754944491
 20
270.9384657689475375
 30
0.0
 40
3.25
100
AcDbArc
 50
109.9999999999996874
 51
115.8336177453407743
  0
ARC
  5
1D7
100
AcDbEntity
  8
Well
 62
256
370
-1
 48
1.0
  6
BYLAYER
100
AcDbCircle
 10
44.2096577754944491
 20
270.9384657689475375
 30
0.0
 40
3.25
100
AcDbArc
 50
109.9999999999996874
 51
115.8336177453407743
  0
ARC
  5
1D8
100
AcDbEntity
  8
Plate
 62
256
370
-1
 48
1.0
  6
BYLAYER
100
AcDbCircle
 10
44.2096577754944491
 20
270.9384657689475375
 30
0.0
 40
3.25
100
AcDbArc
 50
109.9999999999996874
 51
115.8336177453407743
  0
ARC
  5
1D9
100
AcDbEntity
  8
Base
 62
256
370
-1
 48
1.0
  6
BYLAYER
100
AcDbCircle
 10
44.2096577754944491
 20
270.9384657689475375
 30
0.0
 40
3.25
100
AcDbArc
 50
109.9999999999996874
 51
115.8336177453407743
  0
ARC
  5
1DA
100
AcDbEntity
  8
TopCover
 62
256
370
-1
 48
1.0
  6
BYLAYER
100
AcDbCircle
 10
44.2096577754944491
 20
270.9384657689475375
 30
0.0
 40
3.25
100
AcDbArc
 50
109.9999999999996874
 51
115.8336177453407743
  0
ARC
  5
1DB
100
AcDbEntity
  8
Support
 62
256
370
-1
 48
1.0
  6
BYLAYER
100
AcDbCircle
 10
44.2096577754944491
 20
270.9384657689475375
 30
0.0
 40
3.25
100
AcDbArc
 50
109.9999999999996874
 51
115.8336177453407743
  0
ARC
  5
1DC
100
AcDbEntity
  8
Outline Template
 62
256
370
-1
 48
1.0
  6
BYLAYER
100
AcDbCircle
 10
70.2098365917951952
 20
280.4017569436796862
 30
0.0
 40
3.25
100
AcDbArc
 50
104.1663822546593252
 51
109.9999999999997726
  0
ARC
  5
1DD
100
AcDbEntity
  8
Well
 62
256
370
-1
 48
1.0
  6
BYLAYER
100
AcDbCircle
 10
70.2098365917951952
 20
280.4017569436796862
 30
0.0
 40
3.25
100
AcDbArc
 50
104.1663822546593252
 51
109.9999999999997726
  0
ARC
  5
1DE
100
AcDbEntity
  8
Plate
 62
256
370
-1
 48
1.0
  6
BYLAYER
100
AcDbCircle
 10
70.2098365917951952
 20
280.4017569436796862
 30
0.0
 40
3.25
100
AcDbArc
 50
104.1663822546593252
 51
109.9999999999997726
  0
ARC
  5
1DF
100
AcDbEntity
  8
Base
 62
256
370
-1
 48
1.0
  6
BYLAYER
100
AcDbCircle
 10
70.2098365917951952
 20
280.4017569436796862
 30
0.0
 40
3.25
100
AcDbArc
 50
104.1663822546593252
 51
109.9999999999997726
  0
ARC
  5
1E0
100
AcDbEntity
  8
TopCover
 62
256
370
-1
 48
1.0
  6
BYLAYER
100
AcDbCircle
 10
70.2098365917951952
 20
280.4017569436796862
 30
0.0
 40
3.25
100
AcDbArc
 50
104.1663822546593252
 51
109.9999999999997726
  0
ARC
  5
1E1
100
AcDbEntity
  8
Support
 62
256
370
-1
 48
1.0
  6
BYLAYER
100
AcDbCircle
 10
70.2098365917951952
 20
280.4017569436796862
 30
0.0
 40
3.25
100
AcDbArc
 50
104.1663822546593252
 51
109.9999999999997726
  0
INSERT
  5
1E2
100
AcDbEntity
  8
Plate
 62
256
370
-1
 48
1.0
  6
BYLAYER
100
AcDbMInsertBlock
  2
Key_1.0u_Plate
 10
93.323464241708237
 20
232.1469630298179823
 30
0.0
 50
30.0
 70
2
 71
2
 44
19.0500000000000007
 45
19.0500000000000007
  0
INSERT
  5
1E3
100
AcDbEntity
  8
Plate
 62
256
370
-1
 48
1.0
  6
BYLAYER
100
AcDbBlockReference
  2
Key_2.0u_Plate
 10
57.5211753897651477
 20
219.1159955691100265
 30
0.0
 50
100.0
  0
INSERT
  5
1E4
100
AcDbEntity
  8
Plate
 62
256
370
-1
 48
1.0
  6
BYLAYER
100
AcDbMInsertBlock
  2
Key_1.0u_Plate
 10
19.9999999999999893
 20
212.5000000000000284
 30
0.0
 50
10.0
 70
1
 71
2
 44
19.0500000000000007
 45
19.0500000000000007
  0
INSERT
  5
1E5
100
AcDbEntity
  8
Well
 62
256
370
-1
 48
1.0
  6
BYLAYER
100
AcDbMInsertBlock
  2
Key_1.0u_Well
 10
93.323464241708237
 20
232.1469630298179823
 30
0.0
 50
30.0
 70
2
 71
2
 44
19.0500000000000007
 45
19.0500000000000007
  0
INSERT
  5
1E6
100
AcDbEntity
  8
Well
 62
256
370
-1
 48
1.0
  6
BYLAYER
100
AcDbBlockReference
  2
Key_2.0u_Well
 10
57.5211753897651477
 20
219.1159955691100265
 30
0.0
 50
100.0
  0
INSERT
  5
1E7
100
AcDbEntity
  8
Well
 62
256
370
-1
 48
1.0
  6
BYLAYER
100
AcDbMInsertBlock
  2
Key_1.0u_Well
 10
19.9999999999999893
 20
212.5000000000000284
 30
0.0
 50
10.0
 70
1
 71
2
 44
19.0500000000000007
 45
19.0500000000000007
  0
INSERT
  5
1E8
100
AcDbEntity
  8
Base
 62
256
370
-1
 48
1.0
  6
BYLAYER
100
AcDbMInsertBlock
  2
Key_1.0u_Base
 10
93.323464241708237
 20
232.1469630298179823
 30
0.0
 50
30.0
 70
2
 71
2
 44
19.0500000000000007
 45
19.0500000000000007
  0
INSERT
  5
1E9
100
AcDbEntity
  8
Base
 62
256
370
-1
 48
1.0
  6
BYLAYER
100
AcDbBlockReference
  2
Key_2.0u_Base
 10
57.5211753897651477
 20
219.1159955691100265
 30
0.0
 50
100.0
  0
INSERT
  5
1EA
100
AcDbEntity
  8
Base
 62
256
370
-1
 48
1.0
  6
BYLAYER
100
AcDbMInsertBlock
  2
Key_1.0u_Base
 10
19.9999999999999893
 20
212.5000000000000284
 30
0.0
 50
10.0
 70
1
 71
2
 44
19.0500000000000007
 45
19.0500000000000007
  0
LINE
  5
1EB
100
AcDbEntity
  8
Support
 62
256
370
-1
 48
1.0
  6
BYLAYER
100
AcDbLine
 10
73.6099811464780061
 20
262.772687271450593
 30
0.0
 11
68.9999516214238611
 21
275.438639294556026
 31
0.0
  0
LINE
  5
1EC
100
AcDbEntity
  8
Support
 62
256
370
-1
 48
1.0
  6
BYLAYER
100
AcDbLine
 10
48.3267139641339156
 20
267.9141961413911872
 30
0.0
 11
52.9367434891880322
 21
255.2482441182858679
 31
0.0
  0
LINE
  5
1ED
100
AcDbEntity
  8
Support
 62
256
370
-1
 48
1.0
  6
BYLAYER
100
AcDbLine
 10
68.9999516214238753
 20
275.438639294556026
 30
0.0
 11
67.1205663798520362
 21
274.7545990079046874
 31
0.0
  0
LINE
  5
1EE
100
AcDbEntity
  8
Support
 62
256
370
-1
 48
1.0
  6
BYLAYER
100
AcDbLine
 10
50.2060992057057547
 20
268.5982364280425259
 30
0.0
 11
48.3267139641339298
 21
267.9141961413911872
 31
0.0
  0
LINE
  5
1EF
100
AcDbEntity
  8
Support
 62
256
370
-1
 48
1.0
  6
BYLAYER
100
AcDbLine
 10
73.6099811464780061
 20
262.772687271450593
 30
0.0
 11
75.2888908535939834
 21
263.3837604308614004
 31
0.0
  0
LINE
  5
1F0
100
AcDbEntity
  8
Support
 62
256
370
-1
 48
1.0
  6
BYLAYER
100
AcDbLine
 10
52.9367434891880038
 20
255.2482441182859816
 30
0.0
 11
51.2578337820720407
 21
254.6371709588751742
 31
0.0
  0
LINE
  5
1F1
100
AcDbEntity
  8
Support
 62
256
370
-1
 48
1.0
  6
BYLAYER
100
AcDbLine
 10
82.5114728295071274
 20
232.4684310725386638
 30
0.0
 11
91.292611017936693
 21
235.6645039961052817
 31
0.0
  0
LINE
  5
1F2
100
AcDbEntity
  8
Support
 62
256
370
-1
 48
1.0
  6
BYLAYER
100
AcDbLine
 10
65.5970056553608032
 20
226.312068492676616
 30
0.0
 11
56.8158674669312873
 21
223.1159955691100265
 31
0.0
  0
ENDSEC
  0
SECTION
  2
OBJECTS
  0
DICTIONARY
  5
C
100
AcDbDictionary
280
0
281
1
  3
ACAD_GROUP
350
D
  3
ACAD_LAYOUT
350
1A
  3
ACAD_MLINESTYLE
350
17
  3
ACAD_PLOTSETTINGS
350
19
  3
ACAD_PLOTSTYLENAME
350
E
  3
AcDbVariableDictionary
350
1F3
  3
QCAD_OBJECTS
350
1F4
  0
DICTIONARY
  5
D
100
AcDbDictionary
280
0
281
1
  0
ACDBDICTIONARYWDFLT
  5
E
100
AcDbDictionary
281
1
  3
Normal
350
F
100
AcDbDictionaryWithDefault
340
F
  0
ACDBPLACEHOLDER
  5
F
  0
DICTIONARY
  5
17
100
AcDbDictionary
280
0
281
1
  3
Standard
350
18
  0
MLINESTYLE
  5
18
100
AcDbMlineStyle
  2
STANDARD
 70
0
  3

 62
256
 51
90.0
 52
90.0
 71
2
 49
0.5
 62
256
  6
BYLAYER
 49
-0.5
 62
256
  6
BYLAYER
  0
DICTIONARY
  5
19
100
AcDbDictionary
280
0
281
1
  0
DICTIONARY
  5
1A
100
AcDbDictionary
281
1
  3
Layout1
350
1E
  3
Layout2
350
26
  3
Model
350
22
  0
LAYOUT
  5
1E
100
AcDbPlotSettings
  1

  2
none_device
  4

  6

 40
0.0
 41
0.0
 42
0.0
 43
0.0
 44
0.0
 45
0.0
 46
0.0
 47
0.0
 48
0.0
 49
0.0
140
0.0
141
0.0
142
1.0
143
1.0
 70
688
 72
0
 73
0
 74
5
  7

 75
16
147
1.0
148
0.0
149
0.0
100
AcDbLayout
  1
Layout1
 70
1
 71
1
 10
0.0
 20
0.0
 11
420.0
 21
297.0
 12
0.0
 22
0.0
 32
0.0
 14
100000000000000000000.0
 24
100000000000000000000.0
 34
100000000000000000000.0
 15
-100000000000000000000.0
 25
-100000000000000000000.0
 35
-100000000000000000000.0
146
0.0
 13
0.0
 23
0.0
 33
0.0
 16
1.0
 26
0.0
 36
0.0
 17
0.0
 27
1.0
 37
0.0
 76
0
330
1B
  0
LAYOUT
  5
22
100
AcDbPlotSettings
  1

  2
none_device
  4

  6

 40
0.0
 41
0.0
 42
0.0
 43
0.0
 44
0.0
 45
0.0
 46
0.0
 47
0.0
 48
0.0
 49
0.0
140
0.0
141
0.0
142
1.0
143
1.0
 70
1712
 72
0
 73
0
 74
0
  7

 75
0
147
1.0
148
0.0
149
0.0
100
AcDbLayout
  1
Model
 70
1
 71
0
 10
0.0
 20
0.0
 11
12.0
 21
9.0
 12
0.0
 22
0.0
 32
0.0
 14
0.0
 24
0.0
 34
0.0
 15
0.0
 25
0.0
 35
0.0
146
0.0
 13
0.0
 23
0.0
 33
0.0
 16
1.0
 26
0.0
 36
0.0
 17
0.0
 27
1.0
 37
0.0
 76
0
330
1F
  0
LAYOUT
  5
26
100
AcDbPlotSettings
  1

  2
none_device
  4

  6

 40
0.0
 41
0.0
 42
0.0
 43
0.0
 44
0.0
 45
0.0
 46
0.0
 47
0.0
 48
0.0
 49
0.0
140
0.0
141
0.0
142
1.0
143
1.0
 70
688
 72
0
 73
0
 74
5
  7

 75
16
147
1.0
148
0.0
149
0.0
100
AcDbLayout
  1
Layout2
 70
1
 71
2
 10
0.0
 20
0.0
 11
12.0
 21
9.0
 12
0.0
 22
0.0
 32
0.0
 14
0.0
 24
0.0
 34
0.0
 15
0.0
 25
0.0
 35
0.0
146
0.0
 13
0.0
 23
0.0
 33
0.0
 16
1.0
 26
0.0
 36
0.0
 17
0.0
 27
1.0
 37
0.0
 76
0
330
23
  0
DICTIONARY
  5
1F3
100
AcDbDictionary
281
1
  3
DIMASSOC
350
1F6
  3
HIDETEXT
350
1F5
  0
DICTIONARYVAR
  5
1F5
100
DictionaryVariables
280
0
  1
2
  0
DICTIONARYVAR
  5
1F6
100
DictionaryVariables
280
0
  1
1
  0
DICTIONARY
  5
1F4
100
AcDbDictionary
281
1
  3
ColorSettings/BackgroundColor
350
1F7
  3
ColorSettings/ColorMode
350
1F8
  3
DimensionSettings/AngularFormat
350
1F9
  3
DimensionSettings/AngularPrecision
350
1FA
  3
DimensionSettings/DecimalPoint
350
1FB
  3
DimensionSettings/DimensionFont
350
1FC
  3
DimensionSettings/KeepProportions
350
1FD
  3
DimensionSettings/LinearFormat
350
1FE
  3
DimensionSettings/LinearPrecision
350
1FF
  3
Grid/DisplayGrid00
350
200
  3
Grid/DisplayGrid01
350
201
  3
Grid/DisplayGrid02
350
202
  3
Grid/DisplayGrid03
350
203
  3
Grid/GridSpacingX00
350
204
  3
Grid/GridSpacingX01
350
205
  3
Grid/GridSpacingX02
350
206
  3
Grid/GridSpacingX03
350
207
  3
Grid/GridSpacingY00
350
208
  3
Grid/GridSpacingY01
350
209
  3
Grid/GridSpacingY02
350
20A
  3
Grid/GridSpacingY03
350
20B
  3
Grid/IsometricGrid00
350
20C
  3
Grid/IsometricGrid01
350
20D
  3
Grid/IsometricGrid02
350
20E
  3
Grid/IsometricGrid03
350
20F
  3
Grid/IsometricProjection00
350
210
  3
Grid/IsometricProjection01
350
211
  3
Grid/IsometricProjection02
350
212
  3
Grid/IsometricProjection03
350
213
  3
Grid/MetaGridSpacingX00
350
214
  3
Grid/MetaGridSpacingX01
350
215
  3
Grid/MetaGridSpacingX02
350
216
  3
Grid/MetaGridSpacingX03
350
217
  3
Grid/MetaGridSpacingY00
350
218
  3
Grid/MetaGridSpacingY01
350
219
  3
Grid/MetaGridSpacingY02
350
21A
  3
Grid/MetaGridSpacingY03
350
21B
  3
MultiPageSettings/Columns
350
21C
  3
MultiPageSettings/GlueMarginsBottom
350
21D
  3
MultiPageSettings/GlueMarginsLeft
350
21E
  3
MultiPageSettings/GlueMarginsRight
350
21F
  3
MultiPageSettings/GlueMarginsTop
350
220
  3
MultiPageSettings/PrintCropMarks
350
221
  3
MultiPageSettings/Rows
350
222
  3
PageSettings/OffsetX
350
223
  3
PageSettings/OffsetY
350
224
  3
PageSettings/PageOrientation
350
225
  3
PageSettings/PaperHeight
350
226
  3
PageSettings/PaperSizeName
350
227
  3
PageSettings/PaperWidth
350
228
  3
PageSettings/Scale
350
229
  3
PageSettings/ShowPaperBorders
350
22A
  3
QCADVersion
350
22B
  3
UnitSettings/PaperUnit
350
22C
  3
ViewportCenter
350
22D
  3
ViewportHeight
350
22E
  3
ViewportWidth
350
22F
  0
XRECORD
  5
1F7
330
1F4
100
AcDbXrecord
280
1
1000
White
  0
XRECORD
  5
1F8
330
1F4
100
AcDbXrecord
280
1
1000
FullColor
  0
XRECORD
  5
1F9
330
1F4
100
AcDbXrecord
280
1
 90
0
  0
XRECORD
  5
1FA
330
1F4
100
AcDbXrecord
280
1
 90
0
  0
XRECORD
  5
1FB
330
1F4
100
AcDbXrecord
280
1
 90
46
  0
XRECORD
  5
1FC
330
1F4
100
AcDbXrecord
280
1
1000
Al Bayan
  0
XRECORD
  5
1FD
330
1F4
100
AcDbXrecord
280
1
290
1
  0
XRECORD
  5
1FE
330
1F4
100
AcDbXrecord
280
1
 90
2
  0
XRECORD
  5
1FF
330
1F4
100
AcDbXrecord
280
1
 90
8
  0
XRECORD
  5
200
330
1F4
100
AcDbXrecord
280
1
290
1
  0
XRECORD
  5
201
330
1F4
100
AcDbXrecord
280
1
290
1
  0
XRECORD
  5
202
330
1F4
100
AcDbXrecord
280
1
290
1
  0
XRECORD
  5
203
330
1F4
100
AcDbXrecord
280
1
290
1
  0
XRECORD
  5
204
330
1F4
100
AcDbXrecord
280
1
1000
0.5
  0
XRECORD
  5
205
330
1F4
100
AcDbXrecord
280
1
1000
auto
  0
XRECORD
  5
206
330
1F4
100
AcDbXrecord
280
1
1000
auto
  0
XRECORD
  5
207
330
1F4
100
AcDbXrecord
280
1
1000
auto
  0
XRECORD
  5
208
330
1F4
100
AcDbXrecord
280
1
1000
0.5
  0
XRECORD
  5
209
330
1F4
100
AcDbXrecord
280
1
1000
auto
  0
XRECORD
  5
20A
330
1F4
100
AcDbXrecord
280
1
1000
auto
  0
XRECORD
  5
20B
330
1F4
100
AcDbXrecord
280
1
1000
auto
  0
XRECORD
  5
20C
330
1F4
100
AcDbXrecord
280
1
290
0
  0
XRECORD
  5
20D
330
1F4
100
AcDbXrecord
280
1
290
0
  0
XRECORD
  5
20E
330
1F4
100
AcDbXrecord
280
1
290
0
  0
XRECORD
  5
20F
330
1F4
100
AcDbXrecord
280
1
290
0
  0
XRECORD
  5
210
330
1F4
100
AcDbXrecord
280
1
 90
65537
  0
XRECORD
  5
211
330
1F4
100
AcDbXrecord
280
1
 90
65537
  0
XRECORD
  5
212
330
1F4
100
AcDbXrecord
280
1
 90
65537
  0
XRECORD
  5
213
330
1F4
100
AcDbXrecord
280
1
 90
65537
  0
XRECORD
  5
214
330
1F4
100
AcDbXrecord
280
1
1000
auto
  0
XRECORD
  5
215
330
1F4
100
AcDbXrecord
280
1
1000
auto
  0
XRECORD
  5
216
330
1F4
100
AcDbXrecord
280
1
1000
auto
  0
XRECORD
  5
217
330
1F4
100
AcDbXrecord
280
1
1000
auto
  0
XRECORD
  5
218
330
1F4
100
AcDbXrecord
280
1
1000
auto
  0
XRECORD
  5
219
330
1F4
100
AcDbXrecord
280
1
1000
auto
  0
XRECORD
  5
21A
330
1F4
100
AcDbXrecord
280
1
1000
auto
  0
XRECORD
  5
21B
330
1F4
100
AcDbXrecord
280
1
1000
auto
  0
XRECORD
  5
21C
330
1F4
100
AcDbXrecord
280
1
 90
1
  0
XRECORD
  5
21D
330
1F4
100
AcDbXrecord
280
1
 40
10.0
  0
XRECORD
  5
21E
330
1F4
100
AcDbXrecord
280
1
 40
10.0
  0
XRECORD
  5
21F
330
1F4
100
AcDbXrecord
280
1
 40
10.0
  0
XRECORD
  5
220
330
1F4
100
AcDbXrecord
280
1
 40
10.0
  0
XRECORD
  5
221
330
1F4
100
AcDbXrecord
280
1
290
0
  0
XRECORD
  5
222
330
1F4
100
AcDbXrecord
280
1
 90
1
  0
XRECORD
  5
223
330
1F4
100
AcDbXrecord
280
1
 40
0.0
  0
XRECORD
  5
224
330
1F4
100
AcDbXrecord
280
1
 40
0.0
  0
XRECORD
  5
225
330
1F4
100
AcDbXrecord
280
1
1000
Landscape
  0
XRECORD
  5
226
330
1F4
100
AcDbXrecord
280
1
1000
420
  0
XRECORD
  5
227
330
1F4
100
AcDbXrecord
280
1
1000
ISO A3
  0
XRECORD
  5
228
330
1F4
100
AcDbXrecord
280
1
1000
297
  0
XRECORD
  5
229
330
1F4
100
AcDbXrecord
280
1
1000
1:1
  0
XRECORD
  5
22A
330
1F4
100
AcDbXrecord
280
1
290
1
  0
XRECORD
  5
22B
330
1F4
100
AcDbXrecord
280
1
1000
3.19.2
  0
XRECORD
  5
22C
330
1F4
100
AcDbXrecord
280
1
 90
4
  0
XRECORD
  5
22E
330
1F4
100
AcDbXrecord
280
1
 40
261.4090154867254228
  0
XRECORD
  5
22F
330
1F4
100
AcDbXrecord
280
1
 40
549.9453816371676567
  0
ENDSEC
  0
EOF
